<?xml version="1.0" encoding="utf-8"?>
<!-- Generator: Adobe Illustrator 27.4.0, SVG Export Plug-In . SVG Version: 6.00 Build 0)  -->
<svg version="1.1" id="Capa_1" xmlns="http://www.w3.org/2000/svg" xmlns:xlink="http://www.w3.org/1999/xlink" x="0px" y="0px"
	 viewBox="0 0 88.1 88.1" style="enable-background:new 0 0 88.1 88.1;" xml:space="preserve">
<style type="text/css">
	.st0{fill:#FFFFFF;}
</style>
<g>
	<path class="st0" d="M23.4,7c-1.1,0-2.1,0.1-3.2,0.3c-4.3,0.7-8.6,2.8-12,7.1C4,19.4,2.6,25.5,3.2,31.6c0.7,6.1,3.3,12.3,7.2,18.3
		c7.7,12,20.1,23.3,32.4,31.2c0.8,0.5,1.8,0.5,2.6,0c12.2-7.9,24.7-19.2,32.4-31.2c3.8-6,6.5-12.2,7.2-18.3
		c0.7-6.1-0.7-12.2-4.9-17.3c-3.4-4.2-7.8-6.4-12-7.1c-4.3-0.7-8.5,0-12.2,1.2c-6.6,2.1-10.6,5.1-11.7,5.9c-1.1-0.8-5-3.8-11.7-5.9
		C29.6,7.5,26.5,6.9,23.4,7L23.4,7z M23.4,11.8c2.5,0,5.1,0.5,7.5,1.2c6.5,2,11.6,5.9,11.6,5.9h0c0.9,0.6,2,0.6,2.9,0
		c0,0,5.2-3.8,11.6-5.9c3.2-1,6.8-1.5,10-1s6.3,2,9.1,5.4c3.4,4.1,4.4,8.6,3.9,13.7s-2.9,10.6-6.4,16.2C66.8,58,55.4,68.4,44.1,75.9
		c-11.3-7.5-22.8-18-29.6-28.7C10.9,41.7,8.6,36.1,8,31.1c-0.6-5.1,0.5-9.6,3.9-13.7c2.7-3.4,5.8-4.8,9.1-5.4
		C21.8,11.9,22.6,11.8,23.4,11.8L23.4,11.8z M39.6,23.8L39.6,23.8c-1.1,0-2,0.7-2.3,1.7L31,46.9l-2.1-4.2c-0.4-0.8-1.2-1.3-2.2-1.3
		h-5.8c-0.6,0-1.3,0.3-1.7,0.7c-0.5,0.5-0.7,1.1-0.7,1.7c0,1.3,1.1,2.4,2.4,2.4h4.3l4.2,8.3c0.4,0.9,1.4,1.4,2.4,1.3
		c1-0.1,1.8-0.8,2.1-1.7l5.8-19.5l6.7,21.4c0.3,0.9,1.2,1.6,2.2,1.7c1,0.1,1.9-0.5,2.3-1.4l6.6-14.5l1.8,3.2
		c0.4,0.8,1.2,1.2,2.1,1.2h5.8c1.3,0,2.4-1.1,2.4-2.4c0-0.6-0.2-1.3-0.7-1.7c-0.5-0.5-1.1-0.7-1.7-0.7h-4.4l-3.4-6.2
		c-0.4-0.8-1.3-1.3-2.2-1.3c-0.9,0-1.7,0.6-2.1,1.4l-6,13.1l-7.2-22.9C41.6,24.5,40.7,23.8,39.6,23.8L39.6,23.8z"/>
</g>
</svg>
