<?xml version="1.0" encoding="utf-8"?>
<!-- Generator: Adobe Illustrator 27.4.0, SVG Export Plug-In . SVG Version: 6.00 Build 0)  -->
<svg version="1.1" id="Capa_1" xmlns="http://www.w3.org/2000/svg" xmlns:xlink="http://www.w3.org/1999/xlink" x="0px" y="0px"
	 viewBox="0 0 88.1 88.1" style="enable-background:new 0 0 88.1 88.1;" xml:space="preserve">
<style type="text/css">
	.st0{fill:#FFFFFF;}
</style>
<path class="st0" d="M76.3,32.6c0.1,0,0.2,0.1,0.2,0.1l4.4,3l1.4-1.9L47.7,10.4c-1.1-0.8-2.4-1.1-3.6-1.1c-1.3,0-2.5,0.4-3.6,1.1
	L5.8,33.8l1.4,1.9l4.4-3c0.1-0.1,0.1-0.1,0.2-0.2l28.9-19.7c1-0.7,2.2-1,3.3-1c1.1,0,2.3,0.3,3.3,1L76.3,32.6L76.3,32.6z M53.2,78.9
	V58.1c0-2.5-1-4.8-2.7-6.4C48.9,50,46.6,49,44.1,49c-2.5,0-4.8,1-6.4,2.7c-1.7,1.7-2.7,3.9-2.7,6.4v20.8H53.2z M31.4,78.9V58.1
	c0-3.5,1.4-6.7,3.7-9c2.3-2.3,5.5-3.7,9-3.7c3.5,0,6.7,1.4,9,3.7c2.3,2.3,3.7,5.5,3.7,9v20.8h16.9V35.1L45.4,15.9
	c-0.4-0.3-0.9-0.4-1.3-0.4c-0.5,0-0.9,0.1-1.3,0.4L14.5,35.1v43.8H31.4L31.4,78.9z M77.2,37.5v43.1c0,1-0.8,1.8-1.8,1.8H12.7
	c-1,0-1.8-0.8-1.8-1.8V37.5l-3.2,2.2c-0.8,0.5-1.9,0.3-2.5-0.5l-3.4-4.9c-0.6-0.8-0.4-1.9,0.4-2.5L38.4,7.4c1.7-1.2,3.7-1.8,5.6-1.8
	c2,0,3.9,0.6,5.6,1.8l36.1,24.4c0.8,0.6,1,1.7,0.5,2.5l-3.4,4.9c-0.6,0.8-1.7,1-2.5,0.4L77.2,37.5L77.2,37.5z"/>
</svg>
