<?xml version="1.0" encoding="utf-8"?>
<!-- Generator: Adobe Illustrator 27.4.0, SVG Export Plug-In . SVG Version: 6.00 Build 0)  -->
<svg version="1.1" id="Capa_1" xmlns="http://www.w3.org/2000/svg" xmlns:xlink="http://www.w3.org/1999/xlink" x="0px" y="0px"
	 viewBox="0 0 88.1 88.1" style="enable-background:new 0 0 88.1 88.1;" xml:space="preserve">
<style type="text/css">
	.st0{fill:#FFFFFF;}
</style>
<path class="st0" d="M82.2,38.4c-1.5-3.2-4.1-7.5-7-10.1c-3.9-3.4-8.8-5.5-13.1-5.6c-0.1,0-0.2,0-0.3,0c-5.3,0-6.3,2.2-6.4,3.5
	c-0.4,3.9,4.2,4.4,5.8,4.5c5.2,0.5,9.6,4.1,11.3,9.4l0,0c1.1,3.4,1.2,7,0.3,10.4c-0.5,1.8-2.2,5.4-5.1,6.7c-0.1-0.2-0.5-0.6-0.5-0.6
	c-2.5-2.8-5.1-5.5-7.9-7.9c-4.1-3.7-7.6-7.9-10.5-12.5c-1.5-2.4-2.7-5-3.6-7.7c-0.5-1.6-1-3.3-1.4-5.4c-1.5-6.7-2.8-9.2-3.1-9.7
	C36.3,4,28.4,2.6,24,2.6c-0.9,0-1.9,0.1-2.8,0.2c-4.7,0.4-8.3,5.3-9,6.3c-1.9,1.6-4.7,2-6.3,2.1v0c-1.2,0.1-2.3,0.6-3.1,1.4
	c-1,1.1-1.5,2.7-1.3,4.2C2,20.4,6,23.4,6.2,23.5c0,0,0.1,0,0.1,0.1c1.3,0.8,3.5,1.4,6.6,2c1.4,0.3,3.3,0.9,4,1.6
	c5.1,4.8,0.1,13.7,0.1,13.8c-1.8,2.7-2,6-0.7,8.9c0.6,1.1,1.3,2.1,2.2,3c0.4,0.5,0.8,0.9,1.1,1.3h0c0.7,1,1.2,2.1,1.5,3.2
	c1,3.9,1.1,8.6,0.2,14.5v0c-0.3,1.3-1,2.5-2,3.4l-0.2,0.2c-1.5,1.3-3.9,3.4-3.5,6.1c0.4,2.6,3.7,4,5.9,4c7.6,0,10.3-6.7,10.4-6.9
	c1.6-3.7,0.3-10.9,0.2-11.7v0c0-0.1,0-0.1,0-0.2C30.3,61.2,33,54.3,33,54.3c0,0,0-0.1,0-0.1h0c0.4-1,0.3-2.2-0.4-3.2
	c-1.1-1.6-3.5-1.9-3.9-1.9L25,48.6c-0.6-0.1-0.8-0.3-0.8-0.4v0c-0.2-0.6-0.2-1.3,0-1.9c1.1-0.6,2-1.5,2.6-2.6
	c0.1-0.2,0.3-0.4,0.4-0.6h0c0.4-0.5,0.9-1,1.4-1.3l3.4-1.8v0c0.4-0.2,0.7-0.6,0.7-1l0.2-1.6c7.5,3.3,7.8,12.4,7.6,16.3
	c-0.1,4.5,1.9,8.8,5.5,11.5c2.7,1.9,5.5,5.3,5.5,8.5v2.6h-3.6c-0.1,0-0.1,0-0.2,0c-5.5,0.7-7.1,5.5-7.1,8c0,0.3,0.1,0.7,0.4,0.9
	c0.2,0.3,0.6,0.4,0.9,0.4h25.7h0c0.2,0,0.4-0.1,0.6-0.2c4.6-2.5,6.9-7,6.4-12.8v0c0-1.1,0.4-2.3,1.3-3
	C84.1,62.4,86.9,48.7,82.2,38.4L82.2,38.4z M26.1,5.3c0.1,0,0.1,0.1,0.2,0.1c2.1,0.9,3.5,4.2,4.6,6.7c0.3,0.6,0.5,1.1,0.7,1.6
	c1.6,3.4,2.8,7,1.1,9.6c-0.9,1.2-2.3,2-3.9,2.2c-1.3,0.3-2.6,0-3.7-0.8c-2.7-2.2-1.9-6.5-1.2-8.9C25.5,10.3,24.3,7,23,5.2
	C23.3,5.2,25.3,5.2,26.1,5.3L26.1,5.3z M74.1,67.6L74.1,67.6c-1.5,1.3-2.2,3.2-2.2,5.2c0.4,4.7-1.3,8.1-4.8,10.1H43.3
	c0.2-1.1,0.8-2.1,1.6-2.8c0.8-0.7,1.9-1.2,3-1.3h4.8c0.7,0,1.3-0.6,1.3-1.3v-3.9c0-4.5-3.5-8.5-6.5-10.6c-2.9-2.2-4.5-5.6-4.4-9.3
	c0.3-4.8-0.3-16.2-11-19.4h0c-0.4-0.1-0.8-0.1-1.1,0.2c-0.3,0.2-0.5,0.6-0.6,0.9L30.1,38l-2.8,1.4c-0.9,0.5-1.7,1.2-2.3,2.1
	c-0.2,0.2-0.3,0.4-0.5,0.7c-0.6,0.8-1,1.6-2,1.9h0c-0.4,0.1-0.6,0.4-0.8,0.8c-0.1,0.3-1,2.9,0.1,4.7v0c0.6,0.9,1.6,1.5,2.7,1.6
	l3.9,0.5c0,0,0,0,0.1,0c0.5,0,1.6,0.3,2,0.8c0.1,0.1,0.2,0.3,0,0.9c-0.3,0.8-3,7.9-1,14.1c0.4,2.1,1.1,7.6-0.1,10.2
	c-0.1,0.2-2.2,5.3-8,5.3c-1.4,0-3.2-0.8-3.4-1.7c-0.2-1.3,1.4-2.7,2.6-3.8l0.2-0.2c1.5-1.3,2.5-3.1,2.9-5c1-6.3,0.9-11.4-0.3-15.6
	c-0.4-1.4-1-2.8-1.9-4c-0.4-0.5-0.8-1-1.3-1.5c-0.7-0.7-1.3-1.5-1.7-2.3c-1-2.1-0.8-4.6,0.5-6.5c0.3-0.4,6.1-10.7-0.5-17
	c-1.6-1.5-4.7-2.2-5.3-2.3v0c-2-0.3-3.9-0.9-5.8-1.7c-1-0.7-3.3-2.8-3.6-4.9v0c0-0.1,0-0.3,0-0.5c0.6,0.3,1.3,0.2,1.7-0.4
	c0.4-0.5,0.3-1.3-0.2-1.7c0.2-0.1,0.4-0.1,0.6-0.1c1.9-0.1,5.5-0.7,7.9-2.9v0c0.1-0.1,0.2-0.2,0.2-0.3c0,0,2.5-3.7,5.6-4.9
	c0.6,0.4,3.5,2.6,1.5,9.3c-0.9,3-1.9,8.6,2,11.7v0c1.2,1,2.8,1.5,4.4,1.5c0.4,0,0.9,0,1.3-0.1c2.3-0.3,4.3-1.5,5.7-3.4
	c2.8-4.2,0.3-9.6-0.9-12.1c-0.2-0.5-0.4-1-0.7-1.5l0,0c-0.6-1.5-1.3-2.9-2.1-4.3c3.2,1.7,5.8,4.4,7.2,7.7c0,0.1,0.1,0.1,0.1,0.2
	c0,0,1.3,2.1,2.8,8.9c0.5,2.2,1,4,1.5,5.7h0c0.9,2.9,2.2,5.7,3.8,8.3c3.1,4.8,6.8,9.2,11,13.1c2.8,2.4,5.4,5,7.8,7.8
	c0.8,1.1,1.6,2.2,2.2,3.5c0.3,0.6,1.1,0.9,1.7,0.6c0.6-0.3,0.9-1.1,0.6-1.7c-0.2-0.4-0.5-0.9-0.7-1.3c3.5-1.8,5.5-5.9,6.1-8.2v0
	c1-3.9,0.9-8-0.4-11.9c-2.1-6.3-7.3-10.6-13.5-11.2c-3.3-0.3-3.5-1-3.4-1.7c0.1-0.7,1.7-1.2,3.9-1.2l0.3,0c3.7,0.1,8,2,11.4,4.9
	c2.6,2.3,5,6.3,6.4,9.3C84.1,48.6,81.5,61.3,74.1,67.6L74.1,67.6z"/>
</svg>
