<?xml version="1.0" encoding="utf-8"?>
<!-- Generator: Adobe Illustrator 27.4.0, SVG Export Plug-In . SVG Version: 6.00 Build 0)  -->
<svg version="1.1" id="Capa_1" xmlns="http://www.w3.org/2000/svg" xmlns:xlink="http://www.w3.org/1999/xlink" x="0px" y="0px"
	 viewBox="0 0 88.1 88.1" style="enable-background:new 0 0 88.1 88.1;" xml:space="preserve">
<style type="text/css">
	.st0{fill:#FFFFFF;}
</style>
<g>
	<path class="st0" d="M48.3,41.3L44.1,41c-5.3-0.5-9.4-6.7-9.6-7.9c0-0.7-0.6-1.3-1.4-1.3c-0.7,0-1.3,0.5-1.4,1.3c0,0,0,0,0,0.1
		c-0.3,1.2-4.4,7.4-9.6,7.9L18,41.3c-0.7,0.1-1.2,0.7-1.2,1.4v2.6c0,10.6,6.2,20.2,15.8,24.6c0.2,0.1,0.4,0.1,0.6,0.1
		c0.2,0,0.4,0,0.6-0.1c9.6-4.4,15.8-14,15.8-24.6v-2.6C49.5,42,49,41.4,48.3,41.3L48.3,41.3z M46.8,45.3c0,9.3-5.3,17.8-13.7,21.8
		c-8.3-4-13.7-12.5-13.7-21.8v-1.4l2.9-0.3c4.7-0.4,8.7-4.3,10.8-7.4c2,3.1,6.1,6.9,10.8,7.4l2.9,0.3V45.3z"/>
	<path class="st0" d="M68.7,52.3c-1.9,0-3.8,0.3-5.5,1V12.6c0-0.8-0.6-1.4-1.4-1.4H44c-0.7-4.6-4.7-8.2-9.5-8.2h-2.7
		c-4.8,0-8.8,3.6-9.5,8.2H4.4c-0.8,0-1.4,0.6-1.4,1.4v71.1c0,0.8,0.6,1.4,1.4,1.4h57.4c0.6,0,1.1-0.4,1.3-1c1.7,0.6,3.6,1,5.5,1
		c9,0,16.4-7.4,16.4-16.4S77.7,52.3,68.7,52.3L68.7,52.3z M60.5,54.5c-0.1,0-0.1,0.1-0.1,0.1c-0.5,0.3-1,0.6-1.4,1
		c-0.1,0.1-0.3,0.2-0.4,0.3c-0.3,0.2-0.5,0.4-0.8,0.7V18.1c0-0.8-0.6-1.4-1.4-1.4h-5.5V14h9.6L60.5,54.5z M52.4,70.6
		c0,0.1,0,0.2,0,0.2c0,0.1,0.1,0.3,0.1,0.4c0.1,0.4,0.1,0.8,0.2,1.2c0,0.2,0.1,0.3,0.1,0.5c0,0.1,0.1,0.2,0.1,0.3
		c0.1,0.3,0.2,0.7,0.3,1c0.1,0.2,0.2,0.5,0.3,0.7c0,0,0,0.1,0,0.1c0.1,0.3,0.3,0.6,0.5,1c0.1,0.3,0.3,0.6,0.4,0.9c0,0,0,0.1,0,0.1
		l-43.2,0V19.5h4.1v1.4c0,0.8,0.6,1.4,1.4,1.4h32.8c0.8,0,1.4-0.6,1.4-1.4v-1.4H55v40.2c-0.1,0.1-0.2,0.3-0.3,0.4
		c-0.1,0.2-0.2,0.4-0.4,0.6c0,0,0,0,0,0.1c-0.1,0.2-0.2,0.3-0.3,0.5c-0.1,0.3-0.3,0.5-0.4,0.8c0,0.1-0.1,0.1-0.1,0.2
		c-0.1,0.1-0.1,0.3-0.2,0.4c-0.1,0.3-0.2,0.6-0.3,0.9c0,0.1-0.1,0.2-0.1,0.4c0,0.1-0.1,0.2-0.1,0.3c0,0.1-0.1,0.3-0.1,0.4
		c-0.1,0.2-0.1,0.4-0.2,0.6c0,0.1,0,0.3-0.1,0.4c0,0.3-0.1,0.5-0.1,0.8c0,0.1,0,0.2,0,0.3c0,0,0,0.1,0,0.1c0,0.1,0,0.3,0,0.4
		c0,0.5-0.1,1-0.1,1.5C52.3,69.3,52.3,69.9,52.4,70.6L52.4,70.6z M23.6,14c0.8,0,1.4-0.6,1.4-1.4c0-3.8,3.1-6.8,6.8-6.8h2.7
		c3.8,0,6.8,3.1,6.8,6.8c0,0.8,0.6,1.4,1.4,1.4h5.5v5.5H18.1V14H23.6z M59.6,82.3H5.8V14h9.6v2.7H9.9c-0.8,0-1.4,0.6-1.4,1.4v60.1
		c0,0.8,0.6,1.4,1.4,1.4h46.5c0,0,0,0,0.1,0c0.1,0.1,0.3,0.3,0.4,0.4c0.3,0.3,0.6,0.6,0.9,0.8c0.1,0.1,0.3,0.3,0.4,0.4
		C58.6,81.6,59.1,82,59.6,82.3C59.6,82.3,59.6,82.3,59.6,82.3L59.6,82.3z M68.7,82.3c-2.2,0-4.4-0.6-6.2-1.5
		c-0.6-0.3-1.1-0.6-1.6-0.9c0,0-0.1-0.1-0.1-0.1c-0.4-0.3-0.8-0.6-1.2-0.9c-0.1-0.1-0.2-0.2-0.3-0.3c-0.4-0.4-0.7-0.7-1.1-1.2
		C58,77.3,58,77.1,57.9,77c-0.2-0.3-0.4-0.6-0.7-0.9c0-0.1-0.1-0.1-0.1-0.2c-0.1-0.1-0.2-0.3-0.3-0.4c-0.2-0.3-0.4-0.7-0.5-1
		c0-0.1-0.1-0.1-0.1-0.2c-0.1-0.1-0.1-0.3-0.2-0.4c-0.2-0.4-0.4-0.9-0.5-1.4c0,0,0,0,0-0.1c0-0.1-0.1-0.3-0.1-0.4
		c-0.1-0.4-0.2-0.8-0.3-1.2c0-0.2-0.1-0.3-0.1-0.5C55,69.8,55,69.2,55,68.7c0-0.6,0-1.1,0.1-1.7c0-0.2,0-0.3,0.1-0.5
		c0.1-0.4,0.2-0.8,0.3-1.2c0-0.1,0.1-0.3,0.1-0.4c0,0,0,0,0-0.1c0.1-0.5,0.3-0.9,0.5-1.4c0.1-0.1,0.1-0.3,0.2-0.4
		c0-0.1,0.1-0.1,0.1-0.2c0.2-0.3,0.3-0.7,0.5-1c0.1-0.1,0.2-0.3,0.3-0.4c0-0.1,0.1-0.1,0.1-0.2c0.2-0.3,0.4-0.6,0.7-0.9
		c0.1-0.1,0.2-0.2,0.3-0.3c0.3-0.4,0.7-0.8,1.1-1.2c0.1-0.1,0.2-0.2,0.3-0.3c0.4-0.3,0.8-0.6,1.2-0.9c0,0,0.1-0.1,0.1-0.1
		c0.5-0.3,1-0.7,1.6-0.9c1.9-1,4-1.5,6.2-1.5c7.5,0,13.7,6.1,13.7,13.7S76.2,82.3,68.7,82.3L68.7,82.3z"/>
	<path class="st0" d="M74.1,63.2v-4.1c0-0.8-0.6-1.4-1.4-1.4h-8.2c-0.8,0-1.4,0.6-1.4,1.4v4.1h-4.1c-0.8,0-1.4,0.6-1.4,1.4v8.2
		c0,0.8,0.6,1.4,1.4,1.4h4.1v4.1c0,0.8,0.6,1.4,1.4,1.4h8.2c0.8,0,1.4-0.6,1.4-1.4v-4.1h4.1c0.8,0,1.4-0.6,1.4-1.4v-8.2
		c0-0.8-0.6-1.4-1.4-1.4H74.1z M76.9,71.4h-4.1c-0.8,0-1.4,0.6-1.4,1.4v4.1h-5.5v-4.1c0-0.8-0.6-1.4-1.4-1.4h-4.1v-5.5h4.1
		c0.8,0,1.4-0.6,1.4-1.4v-4.1h5.5v4.1c0,0.8,0.6,1.4,1.4,1.4h4.1V71.4z"/>
	<path class="st0" d="M32.4,60.7l1.4,2.3c6.3-3.6,10.2-10.3,10.2-17.5h-2.7C41.3,51.7,38,57.5,32.4,60.7L32.4,60.7z"/>
</g>
</svg>
