<?xml version="1.0" encoding="utf-8"?>
<!-- Generator: Adobe Illustrator 27.4.0, SVG Export Plug-In . SVG Version: 6.00 Build 0)  -->
<svg version="1.1" id="Capa_1" xmlns="http://www.w3.org/2000/svg" xmlns:xlink="http://www.w3.org/1999/xlink" x="0px" y="0px"
	 viewBox="0 0 88.1 88.1" style="enable-background:new 0 0 88.1 88.1;" xml:space="preserve">
<style type="text/css">
	.st0{fill:#FFFFFF;}
</style>
<path class="st0" d="M44.1,1.8c-11.4,0-20.7,9.3-20.7,20.7c0,3.9,1.1,7.5,2.9,10.6C17.9,35.8,11.7,44,11.7,53.4v31.2
	c0,1,0.8,1.8,1.8,1.8h61.2c1,0,1.8-0.8,1.8-1.8V53.4c0-9.4-6.2-17.6-14.6-20.3c1.8-3.1,2.9-6.7,2.9-10.6
	C64.8,11.1,55.5,1.8,44.1,1.8L44.1,1.8z M44.1,5.4c9.5,0,17.1,7.6,17.1,17.1c0,9.5-7.6,17.1-17.1,17.1S27,31.9,27,22.5
	C27,13,34.6,5.4,44.1,5.4z M28.5,36.1c1.8,2,3.9,3.7,6.3,4.9l4.8,5.3c0,0,0,0,0,0l-6.5,28.1c-0.1,0.6,0,1.2,0.4,1.6l6,6.8H15.3V53.4
	C15.3,45.1,21.1,38,28.5,36.1L28.5,36.1z M59.6,36.1c7.4,1.8,13.2,9,13.2,17.2v29.4H48.6l6-6.8c0.4-0.4,0.6-1,0.4-1.6l-6.5-28.1
	c0,0,0,0,0,0l4.8-5.3C55.7,39.8,57.9,38.1,59.6,36.1L59.6,36.1z M41.5,43c0.8,0.1,1.7,0.1,2.6,0.1s1.7,0,2.6-0.1l-2.6,2.8L41.5,43z
	 M42.5,49.6l0.2,0.2c0.3,0.4,0.8,0.6,1.3,0.6s1-0.2,1.3-0.6l0.2-0.2l5.7,24.7l-7.2,8.2l-7.2-8.2L42.5,49.6z"/>
</svg>
