<?xml version="1.0" encoding="utf-8"?>
<!-- Generator: Adobe Illustrator 27.4.0, SVG Export Plug-In . SVG Version: 6.00 Build 0)  -->
<svg version="1.1" id="Capa_1" xmlns="http://www.w3.org/2000/svg" xmlns:xlink="http://www.w3.org/1999/xlink" x="0px" y="0px"
	 viewBox="0 0 88.1 88.1" style="enable-background:new 0 0 88.1 88.1;" xml:space="preserve">
<style type="text/css">
	.st0{fill:#FFFFFF;}
</style>
<g>
	<path class="st0" d="M46,48.4h-3.9c-4.6,0-9-1.5-12.4-4.4c-3.4-2.9-5.3-6.7-5.5-10.8h0c0-0.4,0.1-0.7,0.2-1.1c0-0.1,0.1-0.3,0.6-1
		c0,0,0,0,0,0l11.7-15.3c-0.2-1-0.8-2.5-1.9-3.3c-0.3-0.2-1-0.8-1.2-1.4c-0.4-1.1-0.7-2.6,0.1-3.9c0.3-0.6,1-1.3,2.4-1.5
		c0.7-0.1,1.8,0.3,2.2,0.7c1.7,1.3,2.4,0.4,2.8-0.1h0c0.6-0.8,1.5-1.4,2.5-1.6c0.3-0.1,0.5-0.1,0.8,0c1,0.2,1.9,0.8,2.5,1.6
		c0.3,0.5,1,1.3,2.8,0.1c0.5-0.3,1.5-0.8,2.2-0.7c1.4,0.2,2,0.9,2.4,1.5c0.8,1.3,0.5,2.8,0.1,3.9c-0.2,0.7-0.9,1.2-1.2,1.4
		c-0.4,0.3-0.7,0.6-1,1l5.2-1.9c0.4-0.2,0.8-0.1,1.2,0c0.4,0.2,0.7,0.5,0.8,0.9c0.1,0.4,0.1,0.8-0.1,1.2c-0.2,0.4-0.5,0.7-0.9,0.8
		L54,16.1l4.4,1.6c0.4,0.1,0.7,0.4,0.9,0.8c0.2,0.4,0.2,0.8,0.1,1.2c-0.1,0.4-0.4,0.7-0.8,0.9c-0.4,0.2-0.8,0.2-1.2,0l-3.3-1.2
		l9,11.7l0,0c0.5,0.7,0.6,0.9,0.6,1l0,0c0.1,0.4,0.2,0.7,0.2,1.1c-0.1,4.1-2.1,8-5.5,10.8C55.1,46.9,50.7,48.4,46,48.4L46,48.4z
		 M27.3,33.3c0.3,6.7,6.8,12,14.8,12H46c8,0,14.4-5.3,14.8-12c-0.1-0.1-0.2-0.2-0.2-0.4L48.8,17.6l-9.5,0L27.6,33
		C27.5,33.1,27.4,33.2,27.3,33.3L27.3,33.3z M39.7,14.5h8.7c0.4-1.6,1.3-3.3,3-4.6c0.1,0,0.1-0.1,0.2-0.2c0.2-0.6,0.2-0.9,0.1-1v0
		c-0.1,0-0.1,0-0.2,0.1c-2.6,1.9-5.3,1.6-7.1-0.8c0,0,0,0,0,0h0c-0.1-0.1-0.2-0.2-0.4-0.3c-0.1,0.1-0.3,0.2-0.4,0.3c0,0,0,0,0,0
		c-1.8,2.3-4.5,2.6-7.1,0.8h0c-0.1,0-0.1-0.1-0.2-0.1c0,0.1,0,0.5,0.1,1l0,0c0.1,0.1,0.1,0.1,0.2,0.2C38.4,11.2,39.2,12.9,39.7,14.5
		L39.7,14.5z"/>
	<path class="st0" d="M44.1,41.7c-0.9,0-1.5-0.7-1.5-1.5v-2c0-0.9,0.7-1.5,1.5-1.5s1.5,0.7,1.5,1.5v2c0,0.4-0.2,0.8-0.5,1.1
		C44.9,41.5,44.5,41.7,44.1,41.7z"/>
	<path class="st0" d="M44.1,26.9c-0.9,0-1.5-0.7-1.5-1.5v-2c0-0.9,0.7-1.5,1.5-1.5s1.5,0.7,1.5,1.5v2c0,0.4-0.2,0.8-0.5,1.1
		S44.5,26.9,44.1,26.9z"/>
	<path class="st0" d="M43.7,39.7c-0.1,0-0.3,0-0.4,0c-0.3,0-2.6-0.2-4.1-1.9h0c-0.6-0.6-0.5-1.6,0.1-2.2c0.6-0.6,1.6-0.5,2.2,0.1
		c0.6,0.6,1.6,0.8,2,0.9c1.7,0.1,3.1-0.8,3.2-1.6c0-0.2-0.1-0.5-0.3-0.7c-0.5-0.6-1.4-0.9-2.4-1h0c-1.9-0.1-3.6-0.9-4.6-2.1
		c-0.8-0.9-1.1-2-1-3.1c0.3-2.6,3.1-4.5,6.4-4.4c0.3,0,2.6,0.2,4.1,1.9v0c0.6,0.6,0.5,1.6-0.1,2.2s-1.6,0.5-2.2-0.1
		c-0.6-0.7-1.7-0.8-2-0.9c-1.7-0.1-3.1,0.8-3.2,1.6c0,0.2,0.1,0.5,0.3,0.8c0.5,0.6,1.4,0.9,2.4,1h0c1.9,0.1,3.6,0.9,4.6,2.1
		c0.8,0.9,1.1,2,1,3.1C49.5,37.9,46.9,39.7,43.7,39.7L43.7,39.7z"/>
	<path class="st0" d="M49.9,68.3H33c-2.2,0-4.3-1.2-5.4-3.2c-1.1-1.9-1.1-4.3,0-6.3c1.1-1.9,3.2-3.2,5.4-3.2h16.9
		c0.2,0,3.1-0.2,6.6-1.7l0.3-0.1c2.8-1.2,6.9-2.9,9.8-2.9c3.4,0,6.4,0.7,8.8,2.2v0c0.7,0.4,1,1.4,0.5,2.1c-0.4,0.7-1.4,1-2.1,0.5
		c-2-1.2-4.4-1.7-7.2-1.7c-1.8,0-4.6,0.9-8.6,2.6c-0.1,0-0.2,0.1-0.3,0.1c-4.2,1.8-7.6,1.9-7.8,2l-17,0c-1.1,0-2.2,0.6-2.8,1.6
		c-0.6,1-0.6,2.2,0,3.2c0.6,1,1.6,1.6,2.8,1.6h16.9c0.9,0,1.5,0.7,1.5,1.5C51.4,67.6,50.7,68.3,49.9,68.3L49.9,68.3z"/>
	<path class="st0" d="M43.3,80.9c-1.2,0-2.4-0.1-3.5-0.3c-2.3-0.4-5.5-1.5-6.7-1.9l-0.2-0.1c-6.3-2.1-13-6.3-19.9-12.3
		c-5.1-4.5-8.4-8.3-8.5-8.5v0c-0.2-0.2-0.3-0.5-0.3-0.7c-0.5-3.2,0-5.6,1.7-7.1c2.6-2.4,6.8-1.4,7-1.4c0.2,0,0.4,0.1,0.5,0.2
		l15.8,11.4c0.7,0.5,0.8,1.5,0.4,2.2c-0.5,0.7-1.5,0.8-2.2,0.4L11.8,51.7c-0.9-0.2-2.8-0.2-3.9,0.7c-0.9,0.9-1,2.5-0.8,3.9h0
		c2.5,2.8,5.1,5.4,7.9,7.9c4.5,4,11.5,9.2,18.8,11.7l0.2,0.1c1.1,0.4,4.2,1.4,6.2,1.7c2.2,0.4,5.8,0.5,9.9-0.9l9.6-4.2
		c0,0,0.1,0,0.1,0c0.5-0.2,4.9-1.8,7.1-2.1c2.4-0.3,4.4-0.4,6-0.3V54.4c0-0.9,0.7-1.5,1.5-1.5c0.9,0,1.5,0.7,1.5,1.5v17.6
		c0,0.5-0.2,1-0.7,1.3c-0.4,0.3-1,0.4-1.4,0.2c-0.7-0.3-2.5-0.6-6.6,0c-1.5,0.2-5.1,1.5-6.4,1.9l-9.6,4.2c0,0-0.1,0-0.1,0v0
		C48.7,80.5,46,80.9,43.3,80.9L43.3,80.9z"/>
	<path class="st0" d="M82.7,83.6h-8c-0.9,0-1.5-0.7-1.5-1.5V47.4c0-0.9,0.7-1.5,1.5-1.5h8c0.4,0,0.8,0.2,1.1,0.5
		c0.3,0.3,0.5,0.7,0.5,1.1V82c0,0.4-0.2,0.8-0.5,1.1C83.5,83.4,83.1,83.6,82.7,83.6z M76.2,80.5h4.9V48.9h-4.9V80.5z"/>
</g>
</svg>
