<?xml version="1.0" encoding="UTF-8"?><svg id="Capa_1" xmlns="http://www.w3.org/2000/svg" viewBox="0 0 43 43"><defs><style>.cls-1{fill:#fff;}.cls-2{fill:#333;}</style></defs><circle class="cls-2" cx="21.5" cy="21.5" r="19.35"/><path class="cls-1" d="m11.67,11.66c0-1.43,1.13-2.51,2.65-2.51s2.67,1.08,2.67,2.51-1.16,2.48-2.67,2.48-2.65-1.05-2.65-2.48Zm.24,3.83h4.83v14.12h-4.83v-14.12Z"/><path class="cls-1" d="m19.74,15.5h4.83v2.27c.76-1.46,2.29-2.65,4.64-2.65,2.73,0,4.62,1.7,4.62,5.32v9.18h-4.83v-8.21c0-1.59-.62-2.38-2.02-2.38s-2.4.86-2.4,2.67v7.91h-4.83v-14.12Z"/></svg>