<?xml version="1.0" encoding="utf-8"?>
<!-- Generator: Adobe Illustrator 27.4.0, SVG Export Plug-In . SVG Version: 6.00 Build 0)  -->
<svg version="1.1" id="Capa_1" xmlns="http://www.w3.org/2000/svg" xmlns:xlink="http://www.w3.org/1999/xlink" x="0px" y="0px"
	 viewBox="0 0 88.1 88.1" style="enable-background:new 0 0 88.1 88.1;" xml:space="preserve">
<style type="text/css">
	.st0{fill:#FFFFFF;}
</style>
<path class="st0" d="M75.5,52.1V20.9c0-0.9-0.7-1.6-1.6-1.6H61.4c-0.8-8.9-8.3-15.8-17.4-15.8s-16.5,7-17.4,15.8l-12.4,0
	c-0.9,0-1.6,0.7-1.6,1.6v31.2c-5.4,0.8-9.6,5.5-9.6,11.1c0,6.2,5.1,11.3,11.3,11.3c3.2,0,6.1-1.4,8.2-3.5l10.4,3.7
	c0.6,5.7,5.4,10.1,11.2,10.1c5.8,0,10.6-4.4,11.2-10.1l10.4-3.7c2.1,2.2,5,3.5,8.2,3.5c6.2,0,11.3-5.1,11.3-11.3
	C85.1,57.6,80.9,52.9,75.5,52.1L75.5,52.1z M81.8,63.2c0,0.6-0.1,1.1-0.2,1.7c-0.9-1.1-2.1-2-3.4-2.4c0.1-0.4,0.2-0.8,0.2-1.2
	c0-2.5-2-4.5-4.5-4.5c-2.5,0-4.5,2-4.5,4.5c0,0.4,0.1,0.8,0.2,1.2c-1.4,0.5-2.6,1.3-3.5,2.4c-0.1-0.5-0.2-1.1-0.2-1.7
	c0-4.4,3.6-8,8-8C78.2,55.2,81.8,58.8,81.8,63.2L81.8,63.2z M72.6,61.2c0-0.7,0.5-1.2,1.2-1.2c0.7,0,1.2,0.5,1.2,1.2
	c0,0.7-0.5,1.2-1.2,1.2C73.1,62.4,72.6,61.9,72.6,61.2z M44.1,6.7c7.8,0,14.2,6.4,14.2,14.2c0,1.9-0.4,3.6-1,5.3
	c-1.4-2.9-4.1-5-7.4-5.8c0.4-0.8,0.6-1.7,0.6-2.7c0-3.5-2.8-6.3-6.4-6.3c-3.5,0-6.4,2.8-6.4,6.3c0,1,0.2,1.9,0.6,2.7
	c-3.3,0.8-6,3-7.4,5.8c-0.7-1.6-1-3.4-1-5.3C29.9,13.1,36.3,6.7,44.1,6.7L44.1,6.7z M51.9,75.1c-0.9-1.1-2.1-2-3.5-2.4
	c0.1-0.4,0.2-0.8,0.2-1.2c0-2.5-2-4.5-4.5-4.5c-2.5,0-4.5,2-4.5,4.5c0,0.4,0.1,0.8,0.2,1.2c-1.4,0.5-2.6,1.3-3.4,2.4
	c-0.1-0.5-0.2-1.1-0.2-1.7c0-4.4,3.6-8,8-8s8,3.6,8,8C52,74,52,74.6,51.9,75.1L51.9,75.1z M42.8,71.5c0-0.7,0.5-1.2,1.2-1.2
	c0.7,0,1.2,0.5,1.2,1.2c0,0.7-0.5,1.2-1.2,1.2C43.4,72.7,42.8,72.1,42.8,71.5z M44.1,35.1c-4.3,0-8.2-2-10.8-5
	c0.2-3.8,3.6-6.8,7.8-6.8c0,0,0.1,0,0.1,0C42,23.7,43,24,44.1,24c1,0,2-0.3,2.9-0.7c0,0,0.1,0,0.1,0c4.2,0,7.6,3,7.8,6.8
	C52.3,33.1,48.4,35.1,44.1,35.1L44.1,35.1z M44.1,20.7c-1.7,0-3.1-1.4-3.1-3c0-1.7,1.4-3,3.1-3s3.1,1.4,3.1,3
	C47.1,19.3,45.7,20.7,44.1,20.7z M14.3,55.2c4.4,0,8,3.6,8,8c0,0.6-0.1,1.1-0.2,1.7c-0.9-1.1-2.1-2-3.5-2.4c0.1-0.4,0.2-0.8,0.2-1.2
	c0-2.5-2-4.5-4.5-4.5s-4.5,2-4.5,4.5c0,0.4,0.1,0.8,0.2,1.2c-1.4,0.5-2.6,1.3-3.4,2.4c-0.1-0.5-0.2-1.1-0.2-1.7
	C6.4,58.8,9.9,55.2,14.3,55.2L14.3,55.2z M13.1,61.2c0-0.7,0.5-1.2,1.2-1.2c0.7,0,1.2,0.5,1.2,1.2s-0.5,1.2-1.2,1.2
	C13.7,62.4,13.1,61.9,13.1,61.2z M14.3,71.2c-2.3,0-4.4-1-5.9-2.6c0.2-1.8,1.9-3.2,4-3.2c0.6,0.3,1.2,0.4,1.9,0.4
	c0.7,0,1.3-0.1,1.9-0.4c2.1,0,3.8,1.4,4,3.2C18.8,70.2,16.7,71.2,14.3,71.2L14.3,71.2z M16,52.1V22.5h10.7c0.8,8.3,7.4,15,15.7,15.7
	v24C37.7,63,34,66.6,33,71.2l-8.6-3.1c0.7-1.5,1.1-3.2,1.1-4.9C25.6,57.6,21.4,52.9,16,52.1L16,52.1z M44.1,81.4
	c-2.3,0-4.4-1-5.9-2.6c0.2-1.8,1.9-3.2,4-3.2c0.6,0.3,1.2,0.4,1.9,0.4c0.7,0,1.3-0.2,1.9-0.4c2.1,0,3.8,1.4,4,3.2
	C48.5,80.4,46.4,81.4,44.1,81.4L44.1,81.4z M55.1,71.2c-0.9-4.6-4.7-8.2-9.4-8.9v-24c8.3-0.8,15-7.4,15.7-15.7h10.7v29.5
	c-5.4,0.8-9.6,5.5-9.6,11.1c0,1.8,0.4,3.4,1.1,4.9L55.1,71.2z M73.8,71.2c-2.3,0-4.4-1-5.9-2.6c0.2-1.8,1.9-3.2,4-3.2
	c0.6,0.3,1.2,0.4,1.9,0.4c0.7,0,1.3-0.1,1.9-0.4c2.1,0,3.8,1.4,4,3.2C78.2,70.2,76.1,71.2,73.8,71.2L73.8,71.2z"/>
</svg>
