<?xml version="1.0" encoding="utf-8"?>
<!-- Generator: Adobe Illustrator 27.4.0, SVG Export Plug-In . SVG Version: 6.00 Build 0)  -->
<svg version="1.1" id="Capa_1" xmlns="http://www.w3.org/2000/svg" xmlns:xlink="http://www.w3.org/1999/xlink" x="0px" y="0px"
	 viewBox="0 0 88.1 88.1" style="enable-background:new 0 0 88.1 88.1;" xml:space="preserve">
<style type="text/css">
	.st0{fill:#FFFFFF;}
</style>
<g>
	<path class="st0" d="M78.2,28.2c-0.3-0.7,0-1.5,0.7-1.8c0.8-0.3,1.6,0,2,0.7c3.8,8.4,4.6,17.8,2.5,26.6
		c-2.1,8.6-7.1,16.5-14.5,22.3c-3.8,3-8.1,5.1-12.4,6.6c-4.5,1.5-9.2,2-13.9,1.8c-0.8,0-1.3-0.7-1.3-1.3c0-0.8,0.7-1.5,1.5-1.3
		c4.3,0,8.6-0.5,12.9-1.8c4-1.3,7.9-3.5,11.4-6.1c7.1-5.5,11.6-12.9,13.5-20.8C82.5,44.9,81.8,36.1,78.2,28.2L78.2,28.2z M65.5,8.7
		c2,0,3.8,0.8,5.1,2.3h0.2c1.3,1.3,2,3.1,2,5.1c0,2-0.8,4-2.1,5.3c-1.3,1.3-3.1,2.1-5.1,2.1c-2.1,0-4-0.8-5.3-2.1
		c-1.3-1.3-2.1-3.3-2.1-5.3c0-2,0.8-3.8,2.1-5.1C61.6,9.6,63.4,8.7,65.5,8.7L65.5,8.7z M68.6,13c-0.8-0.8-2-1.5-3.1-1.5
		c-1.3,0-2.5,0.7-3.3,1.5c-0.8,0.8-1.3,1.8-1.3,3.1s0.5,2.5,1.3,3.3c0.8,0.8,2,1.3,3.3,1.3c1.2,0,2.3-0.5,3.1-1.3
		c0.8-0.8,1.3-2,1.3-3.3c0-1.2-0.5-2.3-1.2-3.1L68.6,13z M65.5,3.1c3.6,0,6.9,1.5,9.2,3.8c2.3,2.3,3.8,5.6,3.8,9.2
		c0,3.6-1.3,7.1-3.5,10.2c-1.6,2.6-3.8,5.1-6.1,6.9c0.5,1.5,1.2,3.1,1.5,4.8c0.3,1.8,0.7,3.8,0.7,5.8c0,15-12.2,27.1-27.1,27.1h-0.2
		c-0.8,0-1.8,0-2.8-0.2h-0.5c1.5,5.3,1.5,9.2-4,13.7c-0.2,0-0.2,0-0.3,0.2c-0.7,0.3-1.5,0-1.8-0.7l-7.1-15l-6.8,4.8
		c0.2,1,0.3,1.6,0.5,2.3c1,4,1,4.1-3.5,7.8L17.5,84c-0.7,0.3-1.6,0.2-2-0.5L11,75.2l-6.9-6.1c0-0.2-0.2-0.2-0.2-0.3
		c-0.5-0.7-0.5-1.5,0.2-2c4.6-3.6,4.8-3.5,8.4-1.6c0.5,0.3,1.2,0.7,2,1.2l6.3-5.6L7.9,50.5c-0.2,0-0.2-0.2-0.3-0.3
		c-0.5-0.5-0.3-1.3,0.2-1.8c3.5-2.8,6.3-3.5,9.1-3v-1.5C16.8,29,29,16.8,43.9,16.8c2,0,3.8,0.2,5.6,0.7c1,0.2,2,0.3,3,0.7
		c0-0.7-0.2-1.3-0.2-2c0-3.6,1.5-6.9,4-9.2C58.6,4.6,61.9,3.1,65.5,3.1L65.5,3.1z M66.5,35l-0.3,0.3c-0.5,0.2-1,0.2-1.5,0
		c-2-1.3-4.1-3.1-5.9-5.1c-1.6,0.8-3.5,1.3-5.3,1.8c1,3.5,1.5,6.9,1.6,10.6h13c0-1.3-0.2-2.6-0.5-4C67.5,37.5,67,36.1,66.5,35
		L66.5,35z M56.8,27.9c-0.3-0.5-0.7-1-1-1.5c-1-1.5-1.8-3.1-2.5-4.9c-1.3-0.5-2.8-1-4.3-1.3c-0.7-0.2-1.2-0.2-1.6-0.3
		c2.1,2.8,4,6.1,5.3,9.6C54.1,29,55.4,28.5,56.8,27.9L56.8,27.9z M72.8,8.9c-1.8-1.8-4.5-3-7.3-3c-3,0-5.5,1.2-7.3,3
		c-2,1.8-3.1,4.5-3.1,7.3c0,3,1.2,6.1,3,8.7c2,3,4.6,5.6,7.4,7.4c2.6-1.8,5.3-4.5,7.3-7.4c1.8-2.6,3-5.8,3-8.7
		C75.7,13.4,74.6,10.7,72.8,8.9z M13.4,73.8l3.8,6.9c1.8-1.6,1.8-2,1.3-4c-0.3-0.8-0.5-2-0.8-3.3c-0.2-0.5,0.2-1.2,0.7-1.3l8.7-6.3
		c0.7-0.5,1.5-0.3,2,0.3c0,0,0.2,0,0.2,0.2L36.1,81c3.6-3.8,2.5-7.6,0.8-13c-0.7-2.1-1.3-4.3-1.8-6.8c-0.2-0.5,0-1.2,0.5-1.5
		l0.3-0.2c3.3-2.5,11.2-8.1,8.9-11.4c-2.8-2.8-10.1,3.8-13,6.4l-0.3,0.2c-0.3,0.5-1,0.5-1.5,0.2c-2.3-1.2-4.3-2.1-6.1-3.3
		c-4.9-2.8-8.4-4.9-12.9-2.1l12.7,10.1c0.7,0.5,0.7,1.3,0.2,2l-0.2,0.2L15.7,69c-0.3,0.3-1,0.3-1.5,0.2c-1.3-0.7-2.3-1-3-1.5
		c-1.8-0.8-2.1-1-4.1,0.3l5.9,5.3C13.2,73.4,13.2,73.6,13.4,73.8L13.4,73.8z M19.8,46.4c1.6,0.7,3.5,1.8,5.6,3
		c1.5,0.8,3.1,1.8,4.9,2.8c0.8-0.7,1.8-1.5,2.8-2.5c-0.2-1.3-0.3-2.8-0.3-4.3H19.6C19.8,45.7,19.8,46,19.8,46.4L19.8,46.4z
		 M35.8,47.9c1.5-1,3.1-2,4.6-2.5h-4.8C35.6,46.2,35.8,47,35.8,47.9L35.8,47.9z M45.6,45.4c0.5,0.2,1,0.5,1.3,1
		c0.2,0,0.2,0.2,0.3,0.2c1.8,2.6,0.7,5.5-1.3,8.1c1.6,0,3.3,0.2,4.9,0.5c0.8-3.1,1.3-6.4,1.5-9.7L45.6,45.4z M43.2,57.3
		c-1.3,1.3-2.8,2.5-4,3.3c0.7,1.5,1.5,3,2.5,4.3c0.7,1,1.5,2,2.1,2.8c2.6-2.8,4.6-6.1,5.9-9.9C47.7,57.4,45.6,57.3,43.2,57.3
		L43.2,57.3z M39.3,66.3l0.3,0.8l0.2,0.7l0.8,0.2c-0.3-0.5-0.8-1-1.2-1.5L39.3,66.3z M18.3,72.1c0.2-0.2,0.3-0.2,0.5-0.3 M53.5,55.8
		l0.7,0.2c3,0.8,5.8,2.1,8.3,4c3.3-4,5.6-9.1,5.8-14.5h-13C55,48.8,54.5,52.5,53.5,55.8L53.5,55.8z M60.4,61.9
		c-2.1-1.5-4.6-2.5-7.1-3.3l-0.7-0.2c-1.3,3.5-3.1,6.8-5.3,9.6C52.3,67.3,56.8,65.2,60.4,61.9L60.4,61.9z M27.6,26.1
		c2.3,1.5,4.9,2.6,7.8,3.3c1.3-3.5,3-6.8,5.3-9.6C35.6,20.6,31,22.8,27.6,26.1L27.6,26.1z M38.1,30c1,0.2,2.1,0.3,3.3,0.5
		c2.8,0.2,5.6,0,8.4-0.5c-1.3-3.6-3.3-7.1-5.9-9.7C41.4,22.9,39.4,26.4,38.1,30z M50.8,32.7c-3.1,0.7-6.4,0.8-9.6,0.5
		c-1.5,0-2.8-0.2-4.1-0.5c-0.8,3.1-1.3,6.4-1.5,9.9h16.7C52.1,39.1,51.7,35.8,50.8,32.7L50.8,32.7z M34.5,32c-3.3-0.8-6.3-2.1-8.9-4
		c-3.5,4-5.6,8.9-5.9,14.5h13.2C33,38.9,33.5,35.5,34.5,32L34.5,32z M8.9,57.9c0.3,0.8,0,1.6-0.7,1.8c-0.8,0.3-1.6,0-1.8-0.7
		C3,50.3,2.6,40.9,5.1,32.3c2.5-8.4,7.8-16.2,15.5-21.6c4.6-3.1,9.4-5.1,14.5-6.3C40.3,3.3,45.7,3.1,50.8,4c0.8,0.2,1.3,1,1.2,1.6
		c-0.2,0.8-0.8,1.3-1.6,1.2c-4.8-0.8-9.7-0.7-14.7,0.3C31,8.2,26.4,10.2,22.3,13c-7.3,5.1-12,12.2-14.5,20.1
		C5.5,41.2,5.8,50,8.9,57.9L8.9,57.9z"/>
</g>
</svg>
