<?xml version="1.0" encoding="UTF-8"?><svg id="Capa_1" xmlns="http://www.w3.org/2000/svg" viewBox="0 0 43 43"><defs><style>.cls-1{fill:#333;}</style></defs><path class="cls-1" d="m21.5,17.44c-2.24,0-4.06,1.82-4.06,4.06s1.82,4.06,4.06,4.06,4.06-1.82,4.06-4.06-1.82-4.06-4.06-4.06Z"/><path class="cls-1" d="m31,14.32c-.22-.57-.49-.97-.91-1.4s-.83-.69-1.4-.91c-.43-.17-1.07-.37-2.26-.42-1.28-.06-1.67-.07-4.92-.07s-3.64.01-4.92.07c-1.19.05-1.83.25-2.26.42-.57.22-.97.49-1.4.91s-.69.83-.91,1.4c-.17.43-.37,1.07-.42,2.26-.06,1.28-.07,1.67-.07,4.92s.01,3.64.07,4.92c.05,1.19.25,1.83.42,2.26.22.57.49.97.91,1.4s.83.69,1.4.91c.43.17,1.07.37,2.26.42,1.28.06,1.67.07,4.92.07s3.64-.01,4.92-.07c1.19-.05,1.83-.25,2.26-.42.57-.22.97-.49,1.4-.91s.69-.83.91-1.4c.17-.43.37-1.07.42-2.26.06-1.28.07-1.67.07-4.92s-.01-3.64-.07-4.92c-.05-1.19-.25-1.83-.42-2.26Zm-9.5,13.44c-3.46,0-6.26-2.8-6.26-6.26s2.8-6.26,6.26-6.26,6.26,2.8,6.26,6.26-2.8,6.26-6.26,6.26Zm6.5-11.3c-.81,0-1.46-.65-1.46-1.46s.65-1.46,1.46-1.46,1.46.65,1.46,1.46-.65,1.46-1.46,1.46Z"/><path class="cls-1" d="m21.5,2.15C10.81,2.15,2.15,10.81,2.15,21.5s8.66,19.35,19.35,19.35,19.35-8.66,19.35-19.35S32.19,2.15,21.5,2.15Zm12.11,24.37c-.06,1.3-.26,2.18-.57,2.96-.31.8-.73,1.48-1.41,2.16-.68.68-1.36,1.09-2.16,1.41-.78.3-1.66.51-2.96.57-1.3.06-1.71.07-5.02.07s-3.72-.01-5.02-.07c-1.3-.06-2.18-.27-2.96-.57-.8-.31-1.48-.73-2.16-1.41-.68-.68-1.09-1.36-1.41-2.16-.3-.78-.51-1.66-.57-2.96-.06-1.3-.07-1.71-.07-5.02s.01-3.72.07-5.02c.06-1.3.27-2.18.57-2.96.31-.8.73-1.48,1.41-2.16.68-.68,1.36-1.09,2.16-1.41.78-.3,1.66-.51,2.96-.57,1.3-.06,1.71-.07,5.02-.07s3.72.01,5.02.07c1.3.06,2.18.27,2.96.57.8.31,1.48.73,2.16,1.41.68.68,1.09,1.36,1.41,2.16.3.78.51,1.66.57,2.96.06,1.3.07,1.71.07,5.02s-.01,3.72-.07,5.02Z"/></svg>