<?xml version="1.0" encoding="utf-8"?>
<!-- Generator: Adobe Illustrator 27.4.0, SVG Export Plug-In . SVG Version: 6.00 Build 0)  -->
<svg version="1.1" id="Capa_1" xmlns="http://www.w3.org/2000/svg" xmlns:xlink="http://www.w3.org/1999/xlink" x="0px" y="0px"
	 viewBox="0 0 138.2 52.8" style="enable-background:new 0 0 138.2 52.8;" xml:space="preserve">
<style type="text/css">
	.st0{fill:#FFFFFF;}
</style>
<g>
	<path class="st0" d="M103.4,45H36.5c-0.8,0-1.4-0.6-1.4-1.4s0.6-1.4,1.4-1.4h66.9c0.8,0,1.4,0.6,1.4,1.4S104.2,45,103.4,45z"/>
	<path class="st0" d="M132.9,45h-8.4c-0.8,0-1.4-0.6-1.4-1.4s0.6-1.4,1.4-1.4h8.4c0.7,0,1.3-0.3,1.7-0.7c0.5-0.5,0.7-1.1,0.7-1.7
		v-8.1c0-0.8-0.4-1.5-1-2c-8.8-5.9-20-9.1-34.1-9.7l0,0c-0.3,0-0.5-0.1-0.8-0.3l-19.9-14c-1.3-0.9-2.7-1.5-4.2-1.7
		c-4.2-0.6-8.4-0.9-12.6-1c-6.6-0.2-13.3,0.1-19.9,1c-1.4,0.2-2.7,0.8-3.9,1.6L21.6,16.9c-0.2,0.2-0.5,0.2-0.8,0.2H9.9
		c-1.4,0-2.5,1.1-2.5,2.5v2.2c0,1.3-0.5,2.6-1.3,3.6l-2.6,2.9v0c-0.5,0.5-0.7,1.3-0.6,2l1.2,9.8h0c0.1,1.2,1.2,2.2,2.4,2.2h8.9
		c0.8,0,1.4,0.6,1.4,1.4c0,0.8-0.6,1.4-1.4,1.4H6.6c-1.3,0-2.6-0.5-3.6-1.4c-1-0.9-1.6-2.1-1.7-3.4L0,30.6c-0.2-1.5,0.3-3,1.3-4.2
		L4,23.5c0.4-0.5,0.6-1,0.6-1.6v-2.2c0-1.4,0.6-2.8,1.6-3.8c1-1,2.4-1.6,3.8-1.6h10.4L37.2,3.1c1.5-1,3.3-1.7,5.1-2
		c6.8-0.9,13.6-1.3,20.4-1.1c4.3,0.1,8.7,0.4,13,1c2,0.3,3.9,1.1,5.5,2.2L100.8,17c14.5,0.7,25.9,4,35.1,10.1c1.4,1,2.3,2.6,2.3,4.3
		v8.1c0,1.4-0.5,2.8-1.5,3.8C135.7,44.5,134.3,45,132.9,45L132.9,45z"/>
	<path class="st0" d="M25.9,52.8c-3.3,0-6.5-1.3-8.9-3.7c-2.3-2.3-3.7-5.5-3.7-8.8s1.3-6.5,3.7-8.8c2.3-2.3,5.5-3.7,8.8-3.7
		c3.3,0,6.5,1.3,8.8,3.7c2.3,2.3,3.7,5.5,3.7,8.8c0,3.3-1.3,6.5-3.7,8.8C32.4,51.5,29.3,52.8,25.9,52.8L25.9,52.8z M25.9,30.7
		c-2.6,0-5,1-6.8,2.8c-1.8,1.8-2.8,4.3-2.8,6.8c0,2.6,1,5,2.8,6.8c1.8,1.8,4.3,2.8,6.8,2.8c2.6,0,5-1,6.8-2.8
		c1.8-1.8,2.8-4.3,2.8-6.8c0-2.6-1-5-2.8-6.8C30.9,31.7,28.5,30.7,25.9,30.7L25.9,30.7z"/>
	<path class="st0" d="M25.9,45.6c-1.4,0-2.8-0.6-3.8-1.5c-1-1-1.6-2.3-1.6-3.8c0-1.4,0.6-2.8,1.6-3.8c1-1,2.3-1.6,3.8-1.6
		c1.4,0,2.8,0.6,3.8,1.6c1,1,1.6,2.3,1.6,3.8c0,1.4-0.6,2.8-1.5,3.8C28.7,45,27.4,45.6,25.9,45.6L25.9,45.6z M25.9,37.9
		c-1,0-1.9,0.6-2.3,1.5c-0.4,0.9-0.2,2,0.5,2.7c0.7,0.7,1.7,0.9,2.7,0.5c0.9-0.4,1.5-1.3,1.5-2.3C28.4,38.9,27.3,37.9,25.9,37.9
		L25.9,37.9z"/>
	<path class="st0" d="M113.9,52.8c-3.3,0-6.5-1.3-8.9-3.7c-2.3-2.3-3.7-5.5-3.7-8.8c0-3.3,1.3-6.5,3.7-8.8c2.3-2.3,5.5-3.7,8.8-3.7
		c3.3,0,6.5,1.3,8.8,3.7c2.3,2.3,3.7,5.5,3.7,8.8c0,3.3-1.3,6.5-3.7,8.8C120.4,51.5,117.2,52.8,113.9,52.8L113.9,52.8z M113.9,30.7
		c-2.6,0-5,1-6.8,2.8c-1.8,1.8-2.8,4.3-2.8,6.8c0,2.6,1,5,2.8,6.8c1.8,1.8,4.3,2.8,6.8,2.8c2.6,0,5-1,6.8-2.8
		c1.8-1.8,2.8-4.3,2.8-6.8c0-2.5-1-5-2.8-6.8C118.9,31.7,116.5,30.7,113.9,30.7L113.9,30.7z"/>
	<path class="st0" d="M113.9,45.6c-1.4,0-2.8-0.6-3.8-1.5c-1-1-1.6-2.3-1.6-3.8c0-1.4,0.6-2.8,1.6-3.8c1-1,2.3-1.6,3.8-1.6
		c1.4,0,2.8,0.6,3.8,1.6c1,1,1.6,2.3,1.6,3.8c0,1.4-0.6,2.8-1.6,3.8C116.7,45,115.3,45.6,113.9,45.6L113.9,45.6z M113.9,37.9
		c-1,0-1.9,0.6-2.3,1.5c-0.4,0.9-0.2,2,0.5,2.7c0.7,0.7,1.7,0.9,2.7,0.5c0.9-0.4,1.5-1.3,1.5-2.3C116.3,38.9,115.3,37.9,113.9,37.9
		L113.9,37.9z"/>
	<path class="st0" d="M100.3,19.9H37c-0.5,0-1-0.3-1.3-0.7l-5.4-9.9c-0.2-0.3-0.3-0.8-0.1-1.1c0.1-0.4,0.4-0.7,0.7-0.9
		c0.7-0.4,1.6-0.1,1.9,0.6l5,9.1h62.4c0.8,0,1.4,0.6,1.4,1.4C101.8,19.2,101.1,19.8,100.3,19.9L100.3,19.9z"/>
	<path class="st0" d="M62.7,19.9c-0.8,0-1.4-0.6-1.4-1.4v-17c0-0.8,0.6-1.4,1.4-1.4c0.8,0,1.4,0.6,1.4,1.4v17c0,0.4-0.2,0.7-0.4,1
		C63.5,19.7,63.1,19.9,62.7,19.9L62.7,19.9z"/>
</g>
</svg>
