<svg xmlns="http://www.w3.org/2000/svg" xmlns:xlink="http://www.w3.org/1999/xlink" width="237" height="148" viewBox="0 0 237 148"><defs><radialGradient id="a" cx="0.496" cy="-0.075" r="1.307" gradientTransform="translate(0.248) scale(0.504 1)" gradientUnits="objectBoundingBox"><stop offset="0" stop-color="#f3efea"/><stop offset="1" stop-color="#ccbeb1"/></radialGradient><radialGradient id="b" cx="0.5" cy="0.5" r="0.593" gradientTransform="translate(0.129) scale(0.742 1)" gradientUnits="objectBoundingBox"><stop offset="0" stop-color="#fdede7"/><stop offset="1" stop-color="#ef9385"/></radialGradient><radialGradient id="c" cx="0.3" cy="0.156" r="0.777" gradientTransform="translate(0.113) scale(0.775 1)" gradientUnits="objectBoundingBox"><stop offset="0" stop-color="#ea7d6f"/><stop offset="0.5" stop-color="#d80028"/><stop offset="1" stop-color="#d80028"/></radialGradient><radialGradient id="d" cx="0.239" cy="0.281" r="0.777" gradientTransform="translate(0.204) scale(0.593 1)" gradientUnits="objectBoundingBox"><stop offset="0" stop-color="#ea7d6f"/><stop offset="0.742" stop-color="#dc2433"/></radialGradient><linearGradient id="e" x1="0.418" y1="0.829" x2="1.081" y2="0.025" gradientUnits="objectBoundingBox"><stop offset="0" stop-color="#fdede7"/><stop offset="0.28" stop-color="#faded6"/><stop offset="0.829" stop-color="#f4b8aa"/><stop offset="1" stop-color="#f3ab9c"/></linearGradient><clipPath id="g"><rect width="237" height="148"/></clipPath></defs><g id="f" clip-path="url(#g)"><rect width="237" height="148" fill="#fff"/><g transform="translate(-127.402 -142.782)"><g transform="translate(256.251 212.167)"><path d="M330.531,232.967a.124.124,0,0,0-.116-.081h-2.905a.124.124,0,0,0-.116.081l-5.811,15.755a.125.125,0,0,0,.015.114.122.122,0,0,0,.1.054h2.642a.124.124,0,0,0,.117-.082l1.219-3.4h6.381l1.219,3.4a.124.124,0,0,0,.117.082H336.3a.125.125,0,0,0,.117-.167Zm-1.676,3.363a16.335,16.335,0,0,0,.627,2.023l1.786,4.78H326.44l1.762-4.71A19.3,19.3,0,0,0,328.855,236.329Zm.743,1.98Z" transform="translate(-321.574 -231.603)" fill="#d80028"/><path d="M355.3,236.868h-3.022v-4.24a.122.122,0,0,0-.048-.1.124.124,0,0,0-.108-.021l-2.546.676a.124.124,0,0,0-.092.12v3.564h-2.157a.125.125,0,0,0-.124.124v1.937a.123.123,0,0,0,.037.088.126.126,0,0,0,.088.037h2.156v6.2a4.118,4.118,0,0,0,.735,2.829,3.453,3.453,0,0,0,2.7.843,12.894,12.894,0,0,0,2.4-.259.123.123,0,0,0,.1-.122v-2.054a.123.123,0,0,0-.154-.12,6.471,6.471,0,0,1-1.53.182c-.59,0-.923-.111-1.129-.4a2.979,2.979,0,0,1-.307-1.672v-5.431h3a.126.126,0,0,0,.125-.124v-1.937a.126.126,0,0,0-.037-.088A.122.122,0,0,0,355.3,236.868Z" transform="translate(-333.144 -231.43)" fill="#d80028"/><path d="M368.887,230.546h-2.569a.127.127,0,0,0-.088.036.129.129,0,0,0-.037.088v17.038a.128.128,0,0,0,.037.088.126.126,0,0,0,.088.036h2.569a.121.121,0,0,0,.088-.036.124.124,0,0,0,.037-.088V230.671a.124.124,0,0,0-.125-.125Z" transform="translate(-341.72 -230.546)" fill="#d80028"/><path d="M384.851,244.08a3.89,3.89,0,0,0-1-2.942,5.272,5.272,0,0,0-3.785-1.1,12.343,12.343,0,0,0-4.245.778.125.125,0,0,0-.081.13l.241,2.124a.123.123,0,0,0,.068.1.127.127,0,0,0,.12-.005,7.358,7.358,0,0,1,3.489-.915,2.64,2.64,0,0,1,1.866.521,2.016,2.016,0,0,1,.507,1.549v.623a10.286,10.286,0,0,0-5.069,1.12A3.618,3.618,0,0,0,375,249.262a2.914,2.914,0,0,0,.946,2.267,3.735,3.735,0,0,0,2.516.822h0a4.412,4.412,0,0,0,3.8-1.943c-.042.5-.054,1.05-.054,1.586a.124.124,0,0,0,.037.088.125.125,0,0,0,.088.036H384.8a.125.125,0,0,0,.124-.129c-.048-.978-.072-2.168-.072-3.17Zm-2.818,2.786v.109a3.459,3.459,0,0,1-.779,2.187,2.605,2.605,0,0,1-2.026.98,1.652,1.652,0,0,1-1.113-.357,1.21,1.21,0,0,1-.4-.943,1.466,1.466,0,0,1,.816-1.32A7.149,7.149,0,0,1,382.033,246.866Z" transform="translate(-345.696 -234.83)" fill="#d80028"/><path d="M404.458,246.3a7.783,7.783,0,0,0-2.83-1.358,4.142,4.142,0,0,1-1.149-.557,1.034,1.034,0,0,1-.44-.861,1.107,1.107,0,0,1,.473-.955,2.613,2.613,0,0,1,1.516-.368,8.524,8.524,0,0,1,2.294.321.122.122,0,0,0,.107-.018.13.13,0,0,0,.052-.1l.071-2.031a.124.124,0,0,0-.1-.127,14.831,14.831,0,0,0-2.253-.212,6,6,0,0,0-3.753,1.071,3.284,3.284,0,0,0-1.294,2.648,2.913,2.913,0,0,0,.857,2.229,7.218,7.218,0,0,0,2.807,1.3,3.832,3.832,0,0,1,1.135.534,1.047,1.047,0,0,1,.436.882,1.18,1.18,0,0,1-.6,1.024,3.055,3.055,0,0,1-1.632.392,9.815,9.815,0,0,1-2.559-.369.124.124,0,0,0-.107.019.13.13,0,0,0-.052.1l-.071,2.124a.125.125,0,0,0,.1.126,14.1,14.1,0,0,0,2.544.236,6.437,6.437,0,0,0,3.865-1.089,3.411,3.411,0,0,0,1.445-2.793A2.832,2.832,0,0,0,404.458,246.3Z" transform="translate(-355.697 -234.83)" fill="#d80028"/></g><g transform="translate(176.898 213.235)"><path d="M184.875,241.283a14.889,14.889,0,0,0-3.973-1.976c-1.315-.576-2.321-1.248-2.321-2.624,0-1.677,1.247-2.781,3.629-2.788a9.728,9.728,0,0,1,2.823.439.082.082,0,0,0,.071-.01.081.081,0,0,0,.036-.063l.094-1.4a.083.083,0,0,0-.068-.087,15.782,15.782,0,0,0-2.839-.281,6.139,6.139,0,0,0-3.986,1.236,3.954,3.954,0,0,0-1.442,3.119,3.45,3.45,0,0,0,1.195,2.738,15.267,15.267,0,0,0,3.961,1.975c1.31.585,2.314,1.274,2.315,2.686a2.7,2.7,0,0,1-1.14,2.366,4.787,4.787,0,0,1-2.722.7,10.155,10.155,0,0,1-3.194-.579.085.085,0,0,0-.073.009.083.083,0,0,0-.037.064l-.093,1.494a.082.082,0,0,0,.059.085,11.62,11.62,0,0,0,3.2.4h0a6.349,6.349,0,0,0,4.17-1.321,4.365,4.365,0,0,0,1.538-3.43A3.475,3.475,0,0,0,184.875,241.283Z" transform="translate(-176.898 -232.492)" fill="#6a5643"/><path d="M202.636,240.067a4.648,4.648,0,0,0-3.756,1.747,6.92,6.92,0,0,0-1.345,4.358,6.568,6.568,0,0,0,1.375,4.564,5.16,5.16,0,0,0,4,1.472h0a10.187,10.187,0,0,0,3.789-.683.083.083,0,0,0,.052-.086l-.14-1.307a.083.083,0,0,0-.043-.064.084.084,0,0,0-.077,0,8.027,8.027,0,0,1-3.324.738,3.64,3.64,0,0,1-2.908-1.1,5.389,5.389,0,0,1-1.011-3.623c0-.133,0-.27.007-.41h7.786a.083.083,0,0,0,.082-.072,5.333,5.333,0,0,0,.048-.782,5.105,5.105,0,0,0-1.067-3.324A4.321,4.321,0,0,0,202.636,240.067Zm-.093,1.286a2.761,2.761,0,0,1,2.906,2.983v.026h-6.075C199.723,242.507,200.888,241.355,202.543,241.353Z" transform="translate(-186.216 -235.912)" fill="#6a5643"/><path d="M229.268,240.254h-3.937a8.3,8.3,0,0,0-1.689-.187,5.3,5.3,0,0,0-3.718,1.342,4.341,4.341,0,0,0-1.359,3.2,3.818,3.818,0,0,0,1.639,3.4,2.04,2.04,0,0,0-1.173,1.829,1.9,1.9,0,0,0,1.073,1.683,3.6,3.6,0,0,0-1.96,3.149,3.016,3.016,0,0,0,1.346,2.6,6.248,6.248,0,0,0,3.545.9,7.609,7.609,0,0,0,4.363-1.217,3.764,3.764,0,0,0,1.742-3.091,3.034,3.034,0,0,0-1.033-2.417,4.477,4.477,0,0,0-2.948-.887h-2.381a3.813,3.813,0,0,1-1.58-.245.751.751,0,0,1-.484-.722,1.148,1.148,0,0,1,.834-1.033,7.481,7.481,0,0,0,1.7.206,5.437,5.437,0,0,0,3.838-1.3,4.252,4.252,0,0,0,1.287-3.174,3.575,3.575,0,0,0-1.066-2.7h1.963a.081.081,0,0,0,.059-.024.082.082,0,0,0,.024-.059v-1.167a.082.082,0,0,0-.083-.083Zm-5.719,1.122a3.241,3.241,0,0,1,2.335.808,3.041,3.041,0,0,1,.827,2.26,2.865,2.865,0,0,1-.88,2.224,3.475,3.475,0,0,1-2.376.775,3.439,3.439,0,0,1-2.389-.766,2.893,2.893,0,0,1-.842-2.232A3,3,0,0,1,223.549,241.376Zm-3.769,13.036a2.844,2.844,0,0,1,1.735-2.391h3.248a3.327,3.327,0,0,1,2.051.534,1.763,1.763,0,0,1,.668,1.483,2.293,2.293,0,0,1-1.093,1.954,5.559,5.559,0,0,1-3.1.765,4.8,4.8,0,0,1-2.515-.6A1.985,1.985,0,0,1,219.78,254.413Z" transform="translate(-195.521 -235.912)" fill="#6a5643"/><path d="M252.339,240.408h-1.47a.082.082,0,0,0-.083.083v5.556a6.066,6.066,0,0,1-1.029,3.578,3.2,3.2,0,0,1-2.623,1.405,1.986,1.986,0,0,1-1.8-.778,4,4,0,0,1-.473-2.221v-7.54a.081.081,0,0,0-.024-.058.083.083,0,0,0-.059-.025h-1.47a.083.083,0,0,0-.059.024.084.084,0,0,0-.025.059v8.076a4.262,4.262,0,0,0,.762,2.7,3.391,3.391,0,0,0,2.822,1.119h.006a4.347,4.347,0,0,0,4.088-2.531,18.968,18.968,0,0,0-.138,2.238.084.084,0,0,0,.024.058.083.083,0,0,0,.059.025h1.494a.083.083,0,0,0,.083-.083v-11.6a.083.083,0,0,0-.024-.059A.085.085,0,0,0,252.339,240.408Z" transform="translate(-206.844 -236.066)" fill="#6a5643"/><path d="M272.34,240.041a4.565,4.565,0,0,0-.556-.035,3.678,3.678,0,0,0-3.487,2.57,16.836,16.836,0,0,0,.17-2.267.082.082,0,0,0-.083-.083H266.89a.082.082,0,0,0-.058.024.083.083,0,0,0-.024.059v11.6a.083.083,0,0,0,.024.058.08.08,0,0,0,.058.025h1.471a.081.081,0,0,0,.058-.025.081.081,0,0,0,.025-.058v-4.622a9.075,9.075,0,0,1,.8-4.246,2.574,2.574,0,0,1,2.388-1.466,3.856,3.856,0,0,1,.619.051.082.082,0,0,0,.065-.018.079.079,0,0,0,.031-.06l.07-1.424A.082.082,0,0,0,272.34,240.041Z" transform="translate(-217.493 -235.885)" fill="#6a5643"/><path d="M283.673,240.067a5.164,5.164,0,0,0-4.087,1.824,7.613,7.613,0,0,0-.048,8.835,4.791,4.791,0,0,0,3.738,1.481h0a5.164,5.164,0,0,0,4.07-1.842,6.805,6.805,0,0,0,1.473-4.4,6.167,6.167,0,0,0-1.542-4.584A5,5,0,0,0,283.673,240.067Zm3.465,5.965c-.008,3.38-1.739,4.79-3.606,4.8a3.251,3.251,0,0,1-2.715-1.24,5.733,5.733,0,0,1-.96-3.533c.006-3.213,1.784-4.627,3.652-4.632a3.227,3.227,0,0,1,2.709,1.219A5.515,5.515,0,0,1,287.138,246.032Z" transform="translate(-222.615 -235.912)" fill="#6a5643"/><path d="M307.071,246.375a9.822,9.822,0,0,0-3.129-1.245,3.67,3.67,0,0,1-1.289-.644,1.478,1.478,0,0,1-.514-1.185,1.642,1.642,0,0,1,.658-1.381,3.292,3.292,0,0,1,1.989-.521,8.621,8.621,0,0,1,2.428.393.083.083,0,0,0,.072-.011.086.086,0,0,0,.035-.064l.07-1.306a.083.083,0,0,0-.065-.086,11.389,11.389,0,0,0-2.328-.259,5.327,5.327,0,0,0-3.346.966,3.014,3.014,0,0,0-1.172,2.431,2.714,2.714,0,0,0,.946,2.233,9.048,9.048,0,0,0,3.118,1.251,3.66,3.66,0,0,1,1.283.625,1.436,1.436,0,0,1,.512,1.166,1.74,1.74,0,0,1-.818,1.493,3.866,3.866,0,0,1-2.156.548,10.008,10.008,0,0,1-2.592-.37.085.085,0,0,0-.071.013.083.083,0,0,0-.034.063l-.047,1.4a.085.085,0,0,0,.064.084,11.53,11.53,0,0,0,2.493.235,5.643,5.643,0,0,0,3.553-1.071,3.284,3.284,0,0,0,1.292-2.606A2.584,2.584,0,0,0,307.071,246.375Z" transform="translate(-232.696 -235.912)" fill="#6a5643"/></g><g transform="translate(297.036 189.841)"><g transform="translate(0 11.112)"><path d="M411.619,213.118a20.363,20.363,0,0,1-3.022,1.813l-.091.046-3.85-4.878-3.768,4.855-.089-.041a14.152,14.152,0,0,1-3.032-1.907l-1.834,2.311a11.848,11.848,0,0,0,6.321,3.612l2.454-3.135,2.481,3.137a12.4,12.4,0,0,0,6.258-3.511Z" transform="translate(-395.933 -210.1)" fill="#d80028"/></g><g transform="translate(0 11.112)" style="mix-blend-mode:multiply;isolation:isolate"><path d="M411.619,213.118a20.363,20.363,0,0,1-3.022,1.813l-.091.046-3.85-4.878-3.768,4.855-.089-.041a14.152,14.152,0,0,1-3.032-1.907l-1.834,2.311a11.848,11.848,0,0,0,6.321,3.612l2.454-3.135,2.481,3.137a12.4,12.4,0,0,0,6.258-3.511Z" transform="translate(-395.933 -210.1)" fill="url(#a)"/></g><g transform="translate(2.785 11.112)"><path d="M406.948,210.1l-3.835,4.823-2.1,2.642a11.732,11.732,0,0,0,3.543,1.365L407,215.8l2.488,3.137a12.075,12.075,0,0,0,3.43-1.3l-2.111-2.662-.01.005Z" transform="translate(-401.011 -210.1)" fill="#fc9220"/></g><g transform="translate(2.785 11.112)" style="mix-blend-mode:multiply;isolation:isolate"><path d="M406.948,210.1l-3.835,4.823-2.1,2.642a11.732,11.732,0,0,0,3.543,1.365L407,215.8l2.488,3.137a12.075,12.075,0,0,0,3.43-1.3l-2.111-2.662-.01.005Z" transform="translate(-401.011 -210.1)" fill="url(#b)"/></g><path d="M404.989,194.076l7.1,8.805a8.435,8.435,0,1,0-14.115.033Z" transform="translate(-396.228 -189.841)" fill="url(#c)"/><path d="M399.271,199.8a8.778,8.778,0,0,0,3-1.675,9.958,9.958,0,0,1,.91-.639l2.318-2.922,1.06,1.314a9.124,9.124,0,0,1,1.881-.482,5.2,5.2,0,0,1,4.385,1.65c-.986-4.066-3.589-6.311-7.8-6.12-2.581.117-4.66,1.655-6.22,4.048a6.345,6.345,0,0,0-1.091,3.706A1.106,1.106,0,0,0,399.271,199.8Z" transform="translate(-396.735 -190.324)" fill-rule="evenodd" fill="url(#d)"/><g transform="translate(4.888 11.118)" style="mix-blend-mode:multiply;isolation:isolate"><path d="M408.679,210.112l-3.835,4.817a8.616,8.616,0,0,0,3.888.872,8.5,8.5,0,0,0,3.807-.823Z" transform="translate(-404.844 -210.112)" fill="#fc9220"/></g><g transform="translate(4.888 11.118)"><path d="M408.679,210.112l-3.835,4.817a8.616,8.616,0,0,0,3.888.872,8.5,8.5,0,0,0,3.807-.823Z" transform="translate(-404.844 -210.112)" fill="#fc9220"/></g><g transform="translate(4.888 11.118)" style="mix-blend-mode:multiply;isolation:isolate"><path d="M408.679,210.112l-3.835,4.817a8.616,8.616,0,0,0,3.888.872,8.5,8.5,0,0,0,3.807-.823Z" transform="translate(-404.844 -210.112)" fill="url(#e)"/></g></g><g transform="translate(310.94 226.382)"><g transform="translate(0 0)"><path d="M424.647,258.1a1.683,1.683,0,1,1-1.667-1.637A1.649,1.649,0,0,1,424.647,258.1Zm-2.945,0a1.274,1.274,0,0,0,1.278,1.308,1.253,1.253,0,0,0,1.247-1.3,1.263,1.263,0,1,0-2.525-.01Zm1.008.849h-.38v-1.638a4.5,4.5,0,0,1,.629-.049.871.871,0,0,1,.559.129.411.411,0,0,1,.169.349.42.42,0,0,1-.339.388v.021c.159.049.239.179.289.4a1.474,1.474,0,0,0,.12.4h-.4a1.312,1.312,0,0,1-.13-.4c-.03-.169-.129-.25-.339-.25h-.18Zm.009-.919h.18c.21,0,.38-.07.38-.24,0-.15-.11-.25-.349-.25a.971.971,0,0,0-.21.02Z" transform="translate(-421.283 -256.463)" fill="#d80028"/></g></g></g></g></svg>