<svg xmlns="http://www.w3.org/2000/svg" xmlns:xlink="http://www.w3.org/1999/xlink" width="237" height="148" viewBox="0 0 237 148"><defs><clipPath id="b"><rect width="237" height="148"/></clipPath></defs><g id="a" clip-path="url(#b)"><rect width="237" height="148" fill="#fff"/><g transform="translate(80 24)"><path d="M78.777,100.669c-1.419.288-2.3,1.063-6.63,2.372-4.194,1.066-11.409.769-17.182-1.743C50.5,99.442,43.76,96.558,43.76,96.558l-4.732-2.111-.974,3.1a78.642,78.642,0,0,1,13.386,6.758c2.7,1.786,10.169,6.479,10.169,6.479s3.551,2.588,5.169,2.577c1.407-.025,2.588-1.518,4.463-3.309,2.292-2.048,3.339-3.2,5.834-5.244a19.906,19.906,0,0,0,2.708-2.615A.983.983,0,0,0,78.777,100.669Z" transform="translate(-20.914 -51.907)" fill="#77006f"/><g transform="translate(8.758 67.983)"><rect width="1.935" height="1.933" fill="#77006f"/><rect width="1.933" height="1.933" transform="translate(4.724)" fill="#77006f"/><rect width="1.931" height="1.933" transform="translate(9.447)" fill="#77006f"/><rect width="1.933" height="1.933" transform="translate(14.168)" fill="#77006f"/><rect width="1.933" height="1.933" transform="translate(18.891)" fill="#77006f"/><rect width="1.933" height="1.933" transform="translate(23.615)" fill="#77006f"/><rect width="1.932" height="1.933" transform="translate(28.337)" fill="#77006f"/><rect width="1.932" height="1.933" transform="translate(33.06)" fill="#77006f"/><rect width="1.933" height="1.933" transform="translate(37.783)" fill="#77006f"/><rect width="1.933" height="1.933" transform="translate(42.506)" fill="#77006f"/><rect width="1.932" height="1.933" transform="translate(47.228)" fill="#77006f"/><rect width="1.934" height="1.933" transform="translate(51.953)" fill="#77006f"/><rect width="1.933" height="1.934" transform="translate(56.686 0.002)" fill="#77006f"/></g><path d="M58.616,58.614H0V0H58.616V58.614ZM1.928,1.926V56.689H56.69V1.926Z" transform="translate(8.758 7.463)" fill="#77006f"/><path d="M60.6,57.338c-4.05,0-10.494-1.83-10.494-13.654,0-7.544,2.951-13.485,10.487-13.665,8.408.173,10.494,5.862,10.5,13.659C71.274,51.377,68.579,57.511,60.6,57.338ZM80.755,43.716c.006-7.575-5.134-16.762-20.123-16.936-13.232.357-20.113,7.6-20.108,16.953.359,13.352,12.361,16.934,20.124,16.933C73.368,60.66,81.1,53.275,80.755,43.716Z" transform="translate(-22.271 -14.718)" fill="#77006f"/><g transform="translate(8.752 73.003)"><path d="M25.231,163.024a2.942,2.942,0,0,0-2.573,1.618,16.243,16.243,0,0,0-.055,12.409,3.314,3.314,0,0,0,2.688,1.9,3.327,3.327,0,0,0,2.683-1.925c.787-1.338,1.109-3.234,1.108-5.845a17.115,17.115,0,0,0-.655-5.07,5.287,5.287,0,0,0-1.333-2.341A2.726,2.726,0,0,0,25.231,163.024Zm1.454,16.63c1.307,1.535,2.085,1.839,4.377,1.989,1.77-.026,2.391-.321,4.163-1.472,0,0,.329-.159.537.013.22.188.065.546.065.546a5.9,5.9,0,0,1-4.616,3.02c-1.3.093-3.291-1.054-4.113-1.8a11.006,11.006,0,0,1-1.767-2.213c-2.707-.256-3.152-1.283-3.643-1.825a8.365,8.365,0,0,1-1.668-2.947,13.022,13.022,0,0,1-.589-4.141,10.671,10.671,0,0,1,1.726-6.252,4.994,4.994,0,0,1,4.18-2.492,4.863,4.863,0,0,1,4.025,2.494,10.876,10.876,0,0,1,1.717,6.295,11.829,11.829,0,0,1-1.166,5.5A6.163,6.163,0,0,1,26.685,179.654Z" transform="translate(-19.431 -162.081)" fill="#0084a0"/><path d="M54.369,174.979l0,6.914c0,1.295.022,2.095.062,2.381a1.418,1.418,0,0,0,.2.609c.125.157.122.254.324.351a.482.482,0,0,0,.585-.074l.152.422-2.327,1.1h-.382l.027-2.095a7.434,7.434,0,0,1-1.4,1.839,1.375,1.375,0,0,1-1.13.4,1.708,1.708,0,0,1-1.166-.7,3.1,3.1,0,0,1-.656-1.412,13.248,13.248,0,0,1-.176-2.462v-5.064a3.546,3.546,0,0,0-.119-1.127,1.118,1.118,0,0,0-.346-.479,1.373,1.373,0,0,0-.829-.163v-.445l2.676,0,0,7.619a3.889,3.889,0,0,0,.371,2.093,1.27,1.27,0,0,0,.9.614,1.566,1.566,0,0,0,.891-.32,3.275,3.275,0,0,0,.937-1.145l.012-6.706a2.564,2.564,0,0,0-.234-1.338,1.168,1.168,0,0,0-.983-.375l0-.443Z" transform="translate(-34.685 -169.17)" fill="#0084a0"/><path d="M73.067,184.064v-4.32a16.9,16.9,0,0,0-1.753,1.06,3.464,3.464,0,0,0-1.019,1.136,2.828,2.828,0,0,0-.311,1.3,2.645,2.645,0,0,0,.39,1.478,1.109,1.109,0,0,0,.891.589C71.722,185.3,72.328,184.888,73.067,184.064Zm0,.8a13.97,13.97,0,0,1-1.581,1.567,1.892,1.892,0,0,1-1.041.316,1.65,1.65,0,0,1-1.413-.81,3.028,3.028,0,0,1-.536-1.919,4.422,4.422,0,0,1,.362-1.641,4.5,4.5,0,0,1,1.35-1.57,15.135,15.135,0,0,1,2.833-1.738v-.524a8.139,8.139,0,0,0-.3-2.412,1.125,1.125,0,0,0-1.156-.717,1.2,1.2,0,0,0-.934.469,1.837,1.837,0,0,0-.342,1.089l.013.721a.94.94,0,0,1-.159.677.652.652,0,0,1-.562.31.638.638,0,0,1-.545-.322,1.469,1.469,0,0,1-.227-.878,2.384,2.384,0,0,1,.762-1.758,2.821,2.821,0,0,1,2.224-.893,2.531,2.531,0,0,1,1.642.585,2.409,2.409,0,0,1,.743,1.466,10.069,10.069,0,0,1,.152,1.991v3.856c0,1.086.01,1.75.039,1.994a1.142,1.142,0,0,0,.154.491c.27.262.542.262.986-.235l.2.307c-.671,1.231-1.073,1.454-1.681,1.454a.789.789,0,0,1-.707-.418A3,3,0,0,1,73.069,184.866Z" transform="translate(-46.397 -169.09)" fill="#0084a0"/><path d="M124.262,184.07v-4.317A16.379,16.379,0,0,0,122.5,180.8a3.553,3.553,0,0,0-1.013,1.135,2.792,2.792,0,0,0-.3,1.3,2.572,2.572,0,0,0,.39,1.472,1.078,1.078,0,0,0,.89.589C122.927,185.3,123.518,184.887,124.262,184.07Zm0,.795a12.673,12.673,0,0,1-1.586,1.57,1.846,1.846,0,0,1-1.038.313,1.645,1.645,0,0,1-1.4-.8,3.011,3.011,0,0,1-.543-1.922,4.563,4.563,0,0,1,.366-1.644,4.5,4.5,0,0,1,1.351-1.568,15,15,0,0,1,2.834-1.741l0-.522a8.639,8.639,0,0,0-.291-2.411,1.15,1.15,0,0,0-1.168-.722,1.212,1.212,0,0,0-.93.475,1.9,1.9,0,0,0-.335,1.09l.011.722a.9.9,0,0,1-.169.67.636.636,0,0,1-.549.313.62.62,0,0,1-.546-.322,1.4,1.4,0,0,1-.232-.882,2.375,2.375,0,0,1,.762-1.757,2.8,2.8,0,0,1,2.225-.89,2.562,2.562,0,0,1,1.641.583,2.45,2.45,0,0,1,.742,1.467,9.657,9.657,0,0,1,.147,1.995l0,3.864c0,1.08.014,1.744.05,1.988a.975.975,0,0,0,.144.486c.277.268.541.267.989-.232l.2.307c-.676,1.238-1.078,1.454-1.681,1.455a.8.8,0,0,1-.713-.421A3.124,3.124,0,0,1,124.261,184.865Z" transform="translate(-74.532 -169.09)" fill="#0084a0"/><path d="M88.608,162.159l.005,15.068a5.673,5.673,0,0,0,.109,1.409,1.023,1.023,0,0,0,.35.518,1.516,1.516,0,0,0,.891.182l0,.444H85.846v-.446a1.378,1.378,0,0,0,.791-.162,1.05,1.05,0,0,0,.329-.526,5.443,5.443,0,0,0,.124-1.421l-.008-10.311a18.689,18.689,0,0,0-.171-3.118c-.082-.237-.347-.414-1.082-.06l-.151-.394,2.511-1.185Z" transform="translate(-55.84 -162.124)" fill="#0084a0"/><path d="M98.687,162.531a.743.743,0,0,1,.612.363,1.52,1.52,0,0,1,.253.878,1.6,1.6,0,0,1-.253.895.745.745,0,0,1-.61.362.759.759,0,0,1-.619-.364,1.643,1.643,0,0,1-.254-.894,1.539,1.539,0,0,1,.25-.876A.738.738,0,0,1,98.687,162.531Zm.707,5.886,0,9.041a6.264,6.264,0,0,0,.1,1.4,1.154,1.154,0,0,0,.315.521,1.237,1.237,0,0,0,.759.168v.44l-3.808,0v-.443a1.207,1.207,0,0,0,.768-.165,1,1,0,0,0,.312-.516,5.041,5.041,0,0,0,.12-1.4V173.13a21.125,21.125,0,0,0-.077-2.37,1.233,1.233,0,0,0-.2-.549.441.441,0,0,0-.348-.154,1.265,1.265,0,0,0-.581.189l-.118-.448,2.371-1.38Z" transform="translate(-61.865 -162.328)" fill="#0084a0"/><path d="M110.16,167.525v3.459h1.822l0,.665-1.822.034v7.535a8.238,8.238,0,0,0,.12,1.569.817.817,0,0,0,.755.694c.4,0,.87-.564.967-.9h.347c-.206.806-.966,2.264-2.1,2.14a1.486,1.486,0,0,1-1.4-1.436,13.129,13.129,0,0,1-.106-1.8l-.005-7.836H107.68l0-.217c.316-.181.47-.489.794-.921a7.222,7.222,0,0,0,.871-1.537,8.8,8.8,0,0,0,.564-1.45Z" transform="translate(-67.93 -165.073)" fill="#0084a0"/><path d="M142.694,174.7v3.712h-.176a6.58,6.58,0,0,0-.881-2.557,1.484,1.484,0,0,0-1.259-.62,1.3,1.3,0,0,0-.936.6,1.617,1.617,0,0,0-.348,1.008,2.491,2.491,0,0,0,.247,1.186,4.058,4.058,0,0,0,1.086,1.18l1.273,1.049a3.253,3.253,0,0,1,1.558,2.951,3.807,3.807,0,0,1-.781,2.5,2.227,2.227,0,0,1-1.74.945,4.211,4.211,0,0,1-1.592-.354,1.312,1.312,0,0,0-.448-.114c-.125,0-.22.1-.289.293h-.29v-4.055h.211a6.7,6.7,0,0,0,.822,2.84,1.9,1.9,0,0,0,1.578.785,1.328,1.328,0,0,0,1.038-.519,2.321,2.321,0,0,0,.267-1.313,2.471,2.471,0,0,0-.4-1.436,7.365,7.365,0,0,0-1.609-1.471,5.456,5.456,0,0,1-1.569-1.61,3.849,3.849,0,0,1-.368-1.781,3.736,3.736,0,0,1,.585-2.214,1.858,1.858,0,0,1,1.552-1.021,1.83,1.83,0,0,1,1.219.237,1.55,1.55,0,0,0,.849.136c.053-.052.113-.119.125-.366Z" transform="translate(-84.646 -168.996)" fill="#0084a0"/><g transform="translate(57.52 16.623)"><path d="M149.137,199.32a1.676,1.676,0,0,0-.814.217,1.518,1.518,0,0,0-.629.616,1.758,1.758,0,0,0-.222.836,1.7,1.7,0,0,0,.219.827,1.623,1.623,0,0,0,.621.618,1.659,1.659,0,0,0,.828.216,1.694,1.694,0,0,0,.834-.216,1.579,1.579,0,0,0,.623-.62,1.681,1.681,0,0,0-.01-1.663,1.5,1.5,0,0,0-.625-.615A1.736,1.736,0,0,0,149.137,199.32Zm0-.333a2.055,2.055,0,0,1,1,.259,1.823,1.823,0,0,1,.744.737,2.015,2.015,0,0,1,.011,2,1.873,1.873,0,0,1-.747.748,2.007,2.007,0,0,1-1.994,0,1.823,1.823,0,0,1-.741-.74,2,2,0,0,1,0-2,1.867,1.867,0,0,1,.749-.737A2.035,2.035,0,0,1,149.137,198.987Z" transform="translate(-147.138 -198.987)" fill="#0084a0"/><g transform="translate(1.122 0.958)"><path d="M149.974,202.054h.431a.681.681,0,0,0,.413-.092.284.284,0,0,0,.112-.241.279.279,0,0,0-.047-.169.361.361,0,0,0-.153-.114,1.344,1.344,0,0,0-.353-.035h-.4Zm-.344,1.209,0-2.15.743,0a1.809,1.809,0,0,1,.552.058.551.551,0,0,1,.272.211.538.538,0,0,1,.1.312.568.568,0,0,1-.169.413.668.668,0,0,1-.448.194.684.684,0,0,1,.186.116,2.717,2.717,0,0,1,.316.422l.267.422h-.431l-.19-.337a1.792,1.792,0,0,0-.365-.5.459.459,0,0,0-.28-.073h-.206v.911Z" transform="translate(-149.628 -201.113)" fill="#0084a0"/></g></g><g transform="translate(24.313 0.052)"><path d="M74.2,165.177c-.535.7-.96,1.227-.717,1.384.275.129.518-.118.843-.354s.887-.879,1.521-1.438,1.812-1.751,1.21-2.284c-.7-.611-.9-.219-1.558.88C75.334,163.617,74.727,164.481,74.2,165.177Z" transform="translate(-73.41 -162.197)" fill="#0084a0"/></g></g></g></g></svg>