<svg xmlns="http://www.w3.org/2000/svg" xmlns:xlink="http://www.w3.org/1999/xlink" width="237" height="148" viewBox="0 0 237 148"><defs><clipPath id="b"><rect width="237" height="148"/></clipPath></defs><g id="a" clip-path="url(#b)"><g transform="translate(-353.914 -83.852)"><circle cx="14.852" cy="14.852" r="14.852" transform="translate(493.915 131.107)" fill="#de1934"/><circle cx="14.852" cy="14.852" r="14.852" transform="translate(458.271 131.107)" fill="#de1934"/><circle cx="14.852" cy="14.852" r="14.852" transform="translate(422.632 131.107)" fill="#de1934"/><path d="M424.37,176.884H427.1c.16,2.042,1.742,3.11,3.783,3.11,1.675,0,3.168-.712,3.168-2.337,0-1.068-.645-1.781-2.433-2.137l-2.224-.46c-2.661-.549-4.681-1.514-4.681-4.471,0-2.85,2.594-4.771,5.8-4.771,3.417,0,5.918,1.949,6.032,5.045h-2.729a3.088,3.088,0,0,0-3.395-2.728c-1.6,0-2.936.916-2.936,2.247,0,.941.552,1.629,2.112,1.97l3,.645c3.206.688,4.221,2.291,4.221,4.336,0,3.164-2.728,4.987-5.988,4.987C427.192,182.342,424.417,180.254,424.37,176.884Z" transform="translate(0.121 2.413)" fill="#091925"/><path d="M448.973,176.606h-8.907a3.223,3.223,0,0,0,3.3,3.189,2.525,2.525,0,0,0,2.7-1.782h2.78c-.325,2.294-2.456,4.036-5.529,4.036a6.118,6.118,0,0,1,.018-12.233,5.453,5.453,0,0,1,5.667,5.7A10.18,10.18,0,0,1,448.973,176.606Zm-8.785-1.995h6.1a2.837,2.837,0,0,0-2.96-2.526A3.088,3.088,0,0,0,440.188,174.612Z" transform="translate(1.022 2.691)" fill="#091925"/><path d="M449.612,175.92a5.82,5.82,0,0,1,6.078-6.1c3.049,0,5.39,1.856,5.618,4.517h-2.789a2.723,2.723,0,0,0-2.868-2.2c-2.137,0-3.373,1.674-3.373,3.787s1.255,3.829,3.391,3.829a2.722,2.722,0,0,0,2.868-2.248h2.771a5.358,5.358,0,0,1-5.618,4.564A5.866,5.866,0,0,1,449.612,175.92Z" transform="translate(1.876 2.691)" fill="#091925"/><path d="M461.917,176.613V170.03h2.615v6.309c0,2.137.805,3.442,2.64,3.442,2,0,2.936-1.653,2.936-3.787V170.03h2.615v11.81h-2.59v-1.333a4.465,4.465,0,0,1-3.563,1.56C463.363,182.049,461.917,179.987,461.917,176.613Z" transform="translate(2.731 2.706)" fill="#091925"/><path d="M474.012,181.839V170.046h2.615v1.7c.847-1.446,2.227-1.7,3.673-1.7h.356v2.494H480.4c-2.273,0-3.786.712-3.786,3.509v5.789Z" transform="translate(3.572 2.707)" fill="#091925"/><path d="M481.5,167.236a1.631,1.631,0,1,1,0,.153C481.494,167.338,481.494,167.287,481.5,167.236Zm.321,14.888V170.332h2.629v11.81Z" transform="translate(4.092 2.404)" fill="#091925"/><path d="M491.8,182.051c-2.387,0-4.061-1.218-4.061-3.948V172.49H485.7v-2.248h2.042v-3.257h2.615v3.257h2.935v2.248h-2.935V177.9a1.635,1.635,0,0,0,1.628,1.834h1.493v2.312Z" transform="translate(4.385 2.494)" fill="#091925"/><path d="M494.064,178.534c0-2.661,2.138-3.74,5.024-3.74h2.889V174.2A2.279,2.279,0,0,0,499.5,171.9a2.36,2.36,0,0,0-2.494,1.674h-2.661c.275-2.494,2.494-3.762,5.276-3.762,3,0,4.93,1.741,4.93,4.677V178.6a.878.878,0,0,0,.941,1.007h.274v2.245H504.7c-1.1,0-2.138-.278-2.34-1.585a4.679,4.679,0,0,1-3.969,1.813C495.921,182.064,494.064,180.918,494.064,178.534Zm7.912-1.379V176.7h-3.167c-1.03,0-2.084.484-2.084,1.7s.963,1.674,2.109,1.674A2.811,2.811,0,0,0,501.976,177.155Z" transform="translate(4.966 2.691)" fill="#091925"/><path d="M505.859,177.981l2.522-.021a2.5,2.5,0,0,0,2.751,2.016c1.012,0,2.227-.356,2.227-1.535,0-.805-.574-1.148-1.86-1.375l-2.063-.356c-1.446-.249-3.349-.848-3.349-3.118,0-2.041,1.857-3.762,4.8-3.762,3.437,0,4.862,2.248,4.883,3.855h-2.522a2.3,2.3,0,0,0-2.455-1.781c-1.354,0-2.137.712-2.137,1.467,0,.666.506.94,1.307,1.068l2.59.481c2.226.413,3.419,1.489,3.419,3.277,0,2.687-2.408,3.855-4.909,3.855C508.5,182.063,506.108,180.824,505.859,177.981Z" transform="translate(5.786 2.692)" fill="#091925"/></g></g></svg>