<svg xmlns="http://www.w3.org/2000/svg" xmlns:xlink="http://www.w3.org/1999/xlink" width="237" height="148" viewBox="0 0 237 148"><defs><clipPath id="b"><rect width="237" height="148"/></clipPath></defs><g id="a" clip-path="url(#b)"><g transform="translate(-65.501 26.484)"><path d="M209.049,58.552l3.356-22.02h7.933l-2.264,14.874h6.585l-1.092,7.146Zm-59.059,0,3.253-22.02H168.37l-.915,5.95h-7.221l-.33,2.135h6.356l-.787,5.646H159.04l-.382,2.312h7.3l-.917,5.977Zm-29.621-.027.712-4.474a59.608,59.608,0,0,0,16.552,2.236,14.666,14.666,0,0,1-6.915,2.238Zm12.256-4.958c-6.737-.636-13.806-2.389-16.959-4.882a3.614,3.614,0,0,1-1.092-1.854v-.509c.2-1.221,1.781-2.212,4.883-2.847-6.052,2.034-3.254,4.576,2.262,6.2l1.932-13.145h10.627c4.272.153,7.222,2.06,8.671,4.753l.71-4.753h8.035L149.811,48.94c-1.4-1.83-4.651-3.177-4.651-3.177a29.264,29.264,0,0,0,2.236,1.906,3.462,3.462,0,0,1,1.652,2.366c.026.839-.381,1.4-1.806,2.161-1.652.913-5.161,1.4-6.254,1.526A49.208,49.208,0,0,1,132.625,53.567Zm0-10.526a10.255,10.255,0,0,0-1.881-.153L129.5,51.533a8.6,8.6,0,0,0,3.128-.508,4.92,4.92,0,0,0,3.075-3.788c.306-2.033-.533-3.711-3.075-4.194ZM140.3,58.552l.381-2.569c1.3-.2,3.229-.483,5.263-.915a7.88,7.88,0,0,0,3.1-1.143l-.71,4.627Zm25.984,0,3.356-22.019h10.551c2.263,0,3.941.535,5.009,1.6a4.248,4.248,0,0,1,1.322,3.178v.179a7.667,7.667,0,0,1-.1,1.041,5.711,5.711,0,0,1-1.346,3,4.966,4.966,0,0,1-2.746,1.552,4.692,4.692,0,0,1,3.049,1.753,4.636,4.636,0,0,1,.56,3.484,6.515,6.515,0,0,1-2.772,4.653,11.238,11.238,0,0,1-6.354,1.578H166.286Zm10.3-16.807h-.306l-.458,3.1h1.017a2.424,2.424,0,0,0,1.526-.407,1.632,1.632,0,0,0,.686-1.143,1.157,1.157,0,0,0-.331-1.144,2,2,0,0,0-1.4-.408Zm0,7.832h-1.5l-.535,3.531h1.322a5.8,5.8,0,0,0,.712-.05,3.146,3.146,0,0,0,1.194-.407,1.9,1.9,0,0,0,.84-1.3,1.341,1.341,0,0,0-.458-1.322,2.576,2.576,0,0,0-1.576-.457Z" transform="translate(0 -0.021)" fill="#146ab3" fill-rule="evenodd"/><path d="M201.516,59.011a14.008,14.008,0,0,1-1.832.1,12.321,12.321,0,0,1-4.728-.865,9.822,9.822,0,0,1-3.637-2.491,8.642,8.642,0,0,1-2.007-3.661,10.81,10.81,0,0,1-.178-4.551,13.219,13.219,0,0,1,1.626-4.526,12.579,12.579,0,0,1,3.2-3.66,15.26,15.26,0,0,1,4.424-2.492,14.675,14.675,0,0,1,3.128-.736,15.628,15.628,0,0,1,1.881-.1,12.875,12.875,0,0,1,4.753.838,9.91,9.91,0,0,1,3.635,2.492,8.685,8.685,0,0,1,2.034,3.66,11.194,11.194,0,0,1,.152,4.526,12.419,12.419,0,0,1-1.627,4.526,14.006,14.006,0,0,1-3.255,3.713,14.731,14.731,0,0,1-4.4,2.465A13.776,13.776,0,0,1,201.516,59.011Zm0-15.609a4.993,4.993,0,0,0-4.3,4.144,3.437,3.437,0,0,0,.661,3.026,3.613,3.613,0,0,0,2.925,1.143,6.221,6.221,0,0,0,.711-.05,4.852,4.852,0,0,0,4.323-4.119,3.527,3.527,0,0,0-.638-3.025,3.573,3.573,0,0,0-2.921-1.17,7.243,7.243,0,0,0-.764.051ZM228.21,58.531l3.457-22.019h6.585c.736,0,1.423.026,2.086.052a27.017,27.017,0,0,1,3.2.3A9.953,9.953,0,0,1,247,37.91a8.948,8.948,0,0,1,3.864,3.967,8.547,8.547,0,0,1,.838,3.788v.1a10.809,10.809,0,0,1-.151,1.755,12.015,12.015,0,0,1-2.44,5.644,13.373,13.373,0,0,1-8.772,5.009c-.051,0-.1.023-.177.023a41.412,41.412,0,0,1-5.977.333H228.21ZM240.338,43.35a10.54,10.54,0,0,0-1.323-.076h-.356l-1.322,8.517a9.229,9.229,0,0,0,3-.432,3.876,3.876,0,0,0,1.169-.611,4.586,4.586,0,0,0,1.779-3.228,3.585,3.585,0,0,0-.711-3.2A4.061,4.061,0,0,0,240.338,43.35Zm13.4-5.948h-.764v2.236h.28v-.966h.2a.959.959,0,0,1,.281.026c.049.025.1.025.125.051a1.457,1.457,0,0,1,.383.533l.229.356h.356l-.23-.407c-.062-.092-.121-.185-.177-.28a1.944,1.944,0,0,0-.178-.2.538.538,0,0,0-.177-.1.964.964,0,0,0,.432-.179.565.565,0,0,0,.027-.888,1.069,1.069,0,0,0-.689-.177h-.1Zm2.084,1.194a1.938,1.938,0,0,1-.611,1.45,2.057,2.057,0,0,1-2.924,0,1.944,1.944,0,0,1-.609-1.45,2.072,2.072,0,1,1,4.144,0ZM253.737,40.4a1.764,1.764,0,0,0,1.3-.533,1.605,1.605,0,0,0,.559-1.271,1.693,1.693,0,0,0-.559-1.3,1.832,1.832,0,0,0-3.129,1.3,1.669,1.669,0,0,0,.535,1.271A1.762,1.762,0,0,0,253.737,40.4Zm0-1.983h-.484v-.762h.484c.3,0,.482.024.56.1a.409.409,0,0,1,.126.28.322.322,0,0,1-.077.2.3.3,0,0,1-.177.129,1.569,1.569,0,0,1-.433.05Z" transform="translate(-3.169)" fill="#146ab3" fill-rule="evenodd"/></g></g></svg>