<svg xmlns="http://www.w3.org/2000/svg" xmlns:xlink="http://www.w3.org/1999/xlink" width="237" height="148" viewBox="0 0 237 148"><defs><clipPath id="b"><rect width="237" height="148"/></clipPath></defs><g id="a" clip-path="url(#b)"><rect width="237" height="148" fill="#fff"/><path d="M389.551,402.7a15.366,15.366,0,0,1-4.237-.446,13.263,13.263,0,0,1-3.6-2.227c-.6-.461-1.219-.94-1.886-1.384a3.922,3.922,0,0,0-2.143-.794,3.969,3.969,0,0,0-2.753,1.538,54.949,54.949,0,0,0-4.505,6.029.326.326,0,0,1-.245.174c-.219,0-.225-.285-.225-.38-.043-3.729-.626-24.085-1.034-30.163-.182-2.688-1.015-4.357-2.182-4.357-.935,0-2.336,1.244-3.214,4.75-2.231,8.929-6.994,28.772-9.043,38.854a.215.215,0,0,1-.429,0c-.227-1.03-.431-2.2-.622-3.184-.614-3.109-1.141-5.795-2.184-7.273-1.193-1.676-2.952-1.783-5.087-.369a15.151,15.151,0,0,0-1.4,1.118c-1.369,1.178-2.916,2.514-5.488,2.514H314.13l-.616,3.334h26.449c2.7,0,5.213-1.558,6.709-2.632a3.561,3.561,0,0,1,1.71-.862c.579,0,.839.59,1.053,1.478.107.433.238,1.036.384,1.729a60.479,60.479,0,0,0,2.21,8.344c.446,1.122,1.1,1.742,1.862,1.742,1.154,0,2.334-1.367,3-3.482.89-2.817,6.239-25.992,8.5-35.7.092-.4.144-.622.148-.642a.321.321,0,0,1,.287-.283c.118,0,.251.1.255.32l0,.037c.172,9.82.659,27.067,1.39,28.839.4.978,1.023,1.5,1.792,1.5a3.746,3.746,0,0,0,2.72-1.828c.384-.558.873-1.285,1.39-2.055,1.277-1.9,2.723-4.044,3.15-4.505.637-.676,1.369-.676,2.411.032.15.1.33.234.541.386a16.538,16.538,0,0,0,5.053,2.487,18.159,18.159,0,0,0,4.407.459c.807,0,1.663-.032,1.914-.047l.573-3.089c-.3.015-1.114.039-1.869.039Zm-67.026-18.022c4.793.268,3.3,10.268-1.785,9.987-5.211-.287-3.514-10.281,1.785-9.987Zm-7.52,17.646,1.45-7.882A5.211,5.211,0,0,0,321.188,397c4.615,0,7.47-3.6,7.758-7.82.3-4.482-2.328-7.063-5.385-7.063a6.37,6.37,0,0,0-5.374,2.63l.041-.191a1.8,1.8,0,0,0-1.881-2.145h-.989s-2.69,15.378-3.059,17.232a2.044,2.044,0,0,0,1.89,2.684Zm-5.145-19.916h-.929s-1.371,7.852-1.525,8.747c-.33,1.924-1.257,3.24-3.864,3.24a2.373,2.373,0,0,1-2.587-2.9c.133-.775,1.116-6.481,1.2-6.94.273-1.543-1.043-2.145-2.126-2.145h-.824c-.2,1.191-1.1,6.213-1.446,8.18a8.153,8.153,0,0,0-.131,2.113c.311,2.667,2.652,4.3,5.548,4.3,5,0,6.88-2.613,7.479-5.718.2-1.023,1.144-6.2,1.217-6.726a1.861,1.861,0,0,0-2.012-2.145Zm-19.944,2.7a7.032,7.032,0,0,1-2.109.189H285.4l1.131-6.4h3.147c3.78,0,3.484,5.143.236,6.211Zm-1.369,9.116a10.991,10.991,0,0,1-2.405.154h-2.351l1.189-6.707h3.484c4.6,0,4.184,5.535.084,6.552Zm7.58-12.8c0-3.233-2.075-4.735-5.722-4.735-2.242,0-5.771-.009-7.056-.009l-3.559,20,6.462,0a21.744,21.744,0,0,0,3.675-.212,6.517,6.517,0,0,0,5.387-5.338,4.148,4.148,0,0,0-3.207-4.874,5.084,5.084,0,0,0,4.02-4.829Zm42.887,3c5.214.29,3.514,10.251-1.783,9.957-4.8-.266-3.3-10.24,1.783-9.957Zm-2.695,12.559a5.719,5.719,0,0,0,5.231-2.663l-.049.215a1.809,1.809,0,0,0,1.882,2.148h.905l2.512-14.293h-3.109l-.416,2.182a5.124,5.124,0,0,0-4.709-2.478c-4.523,0-7.2,3.727-7.655,7.7-.513,4.538,2.418,7.194,5.409,7.194Z" transform="translate(-217 -317)" fill="#0090df"/></g></svg>