<svg xmlns="http://www.w3.org/2000/svg" width="89.649" height="59.202" viewBox="0 0 89.649 59.202"><path d="M87.443,1089.25a13.321,13.321,0,0,0-1.906-6.8,13.911,13.911,0,0,0-7.925-6.234c.345-.373.653-.695.949-1.028A11.454,11.454,0,0,0,79.9,1061.77a11.657,11.657,0,0,0-12.581-5.653c-4.99,1.132-8.427,5.049-9.247,10.537a2.309,2.309,0,0,0-.187,1.088c-.006.152-.007.3-.006.453a7.628,7.628,0,0,0-.181-1.322c-.085-.626-.158-1.255-.257-1.879-1.23-7.783-9.2-13.581-16.9-12.3-7.2,1.2-12.162,6.637-12.931,14.181-.223.249-.169.558-.184.852,0,.094,0,.186,0,.279a7.706,7.706,0,0,0-.186-1.35c-.089-.514-.161-1.031-.268-1.542a11.869,11.869,0,0,0-12.652-9.211,11.88,11.88,0,0,0-10.456,11.061,11.706,11.706,0,0,0,3.834,9.233c-.359.139-.667.252-.97.375a13.6,13.6,0,0,0-8.547,9.9c-.6,2.5-.148,5.063-.348,7.584a3.074,3.074,0,0,0,2.151,3.5,42.588,42.588,0,0,0,9.991,3.1c1.31.215,2.174-.214,2.453-1.172.349-1.2-.369-2.146-1.82-2.37a33.411,33.411,0,0,1-8.424-2.521,1.057,1.057,0,0,1-.755-1.167c.058-1.453-.006-2.911.031-4.366a9.989,9.989,0,0,1,8.737-9.664,78.646,78.646,0,0,1,9.5-.113,9.975,9.975,0,0,1,6.273,2.3c.711.564.918.871.044,1.59a16.915,16.915,0,0,0-6.015,10.293c-.594,3.222-.066,6.485-.355,9.706-.18,2,.63,2.934,2.339,3.726q21.435,9.936,42.531-.611a1.848,1.848,0,0,0,1.149-1.654c.037-2.759.1-5.523-.018-8.278a17.554,17.554,0,0,0-6.678-13.482c-.55-.444-.349-.648.035-.988a9.357,9.357,0,0,1,5.273-2.482,78.109,78.109,0,0,1,9.723-.107,9.988,9.988,0,0,1,9.689,8.318,48.777,48.777,0,0,1,.194,5.695,1.179,1.179,0,0,1-.846,1.333,33.291,33.291,0,0,1-8.435,2.486,1.8,1.8,0,0,0-1.765,1.576,1.692,1.692,0,0,0,.961,1.848,2.5,2.5,0,0,0,1.644.089,37.967,37.967,0,0,0,10.873-3.594,1.88,1.88,0,0,0,1.147-1.865C87.422,1093.207,87.456,1091.228,87.443,1089.25ZM15.52,1075.619a8.089,8.089,0,1,1,8.115-8.07A8.106,8.106,0,0,1,15.52,1075.619Zm27.115-19.5a11.426,11.426,0,1,1-11.412,11.415A11.571,11.571,0,0,1,42.635,1056.117ZM24.7,1076.433c-.682-.292-.639-.557-.205-1.032a9.342,9.342,0,0,0,1.068-1.435,11.068,11.068,0,0,0,1.858-5.276,13.5,13.5,0,0,0,1.237,4.889,16.553,16.553,0,0,0,4.141,5.654c-.771.273-1.435.487-2.082.741a1.035,1.035,0,0,1-1.21-.339A13.575,13.575,0,0,0,24.7,1076.433Zm37.26,20.121c.012,2.012.027,4.026.082,6.037a1.161,1.161,0,0,1-.762,1.288,42.876,42.876,0,0,1-37.35-.056c-.339-.156-.679-.286-.667-.774.081-3.124-.263-6.273.348-9.365a14.073,14.073,0,0,1,13.269-11.107c1.938-.043,3.878-.007,6.371-.007,2.268.127,5.111-.292,7.913.384A13.959,13.959,0,0,1,61.962,1096.554Zm-1.353-20.124a13.513,13.513,0,0,0-4.806,3.2,1.037,1.037,0,0,1-1.2.355c-.649-.252-1.314-.466-2.078-.75a16.753,16.753,0,0,0,4.159-5.757,12.478,12.478,0,0,0,1.2-4.965A11.518,11.518,0,0,0,60.8,1075.4C61.193,1075.877,61.309,1076.131,60.61,1076.429Zm9.022-.811a8.09,8.09,0,1,1,8.252-8.041A8.119,8.119,0,0,1,69.632,1075.619Z" transform="translate(2.193 -1052.515)" fill="#fff"/></svg>