<svg xmlns="http://www.w3.org/2000/svg" width="61.142" height="83.84" viewBox="0 0 61.142 83.84"><g transform="translate(-496.852 -964.064)"><path d="M624.307,964.064a.943.943,0,0,1-1.146,0Z" transform="translate(-95.184)" fill="#fff"/><path d="M616.834,964.064a.743.743,0,0,1-.982,0Z" transform="translate(-89.676)" fill="#fff"/><path d="M611.527,964.064c-.109.214-.218.247-.327,0Z" transform="translate(-86.17)" fill="#fff"/><path d="M669.293,1207.4a1.6,1.6,0,0,1-1.642-1.639,1.658,1.658,0,0,1,1.608-1.617,1.686,1.686,0,0,1,1.658,1.664A1.627,1.627,0,0,1,669.293,1207.4Z" transform="translate(-128.711 -180.917)" fill="#fff"/><path d="M543.544,1018.385a2.476,2.476,0,0,0-.5.833,1.632,1.632,0,0,0,.757,1.9,1.6,1.6,0,0,0,2.17-.514q2.754-3.506,5.477-7.036a30.191,30.191,0,0,0,6.348-22.445,30.574,30.574,0,0,0-25.1-26.6,12.054,12.054,0,0,1-2.589-.457h-.982a1.674,1.674,0,0,1-1.146,0h-.819a1.252,1.252,0,0,1-.982,0h-.819a.212.212,0,0,1-.328,0h-.655c-.277.341-.694.247-1.042.291a26.594,26.594,0,0,0-7.993,2.223c-10.305,4.789-16.53,12.756-18.159,24.05a29.112,29.112,0,0,0,5.922,22.461c5.51,7.25,11.181,14.377,16.782,21.559.187.24.371.483.619.807-2.347,0-4.53-.012-6.713,0a6.218,6.218,0,1,0-.037,12.434q13.671.027,27.341,0a6.22,6.22,0,1,0-.038-12.436c-1.992-.012-3.984,0-5.976-.009-.19,0-.433.126-.588-.133.235-.306.466-.609.7-.909.886-1.141,1.8-2.264,2.65-3.429a1.587,1.587,0,0,0-.272-2.2,1.61,1.61,0,0,0-2.272.2c-.222.24-.412.508-.614.766-2.249,2.88-4.511,5.749-6.734,8.649-.411.537-.589.545-1.008.006-6.978-8.977-14.008-17.914-20.959-26.912a26.661,26.661,0,0,1-5.372-21.772,27.294,27.294,0,1,1,48.211,21.9C547.048,1013.856,545.3,1016.124,543.544,1018.385Zm-20.091,20.822c.794,1.073,1.632,2.114,2.456,3.165,1,1.272,2.061,1.271,3.074-.009.828-1.048,1.656-2.1,2.459-3.164a1.035,1.035,0,0,1,.938-.484c2.891.024,5.783,0,8.675.016a2.949,2.949,0,1,1-.027,5.888q-6.793.013-13.586,0c-4.583,0-9.167.011-13.749-.006a2.939,2.939,0,0,1-.665-5.8,3.884,3.884,0,0,1,.891-.082c2.837-.006,5.674.006,8.512-.013A1.112,1.112,0,0,1,523.453,1039.207Z" transform="translate(0)" fill="#fff"/><path d="M576.213,1035.279a11.691,11.691,0,0,0,3.288-9.726,1.764,1.764,0,0,0-1.8-1.844,11.651,11.651,0,0,0-9.677,3.193c-.97.918-1.909,1.872-2.835,2.835a.967.967,0,0,1-.936.324c-1.643-.252-3.288-.49-4.933-.729q-6.429-.936-12.859-1.874a2.19,2.19,0,0,0-2.056.705c-1.187,1.242-2.423,2.438-3.637,3.654-1.372,1.374-1.216,2.427.486,3.313,4.027,2.1,8.054,4.2,12.2,6.358-1.326,1.317-2.567,2.539-3.793,3.777a.676.676,0,0,1-.745.125c-1.166-.272-2.342-.5-3.5-.806a1.771,1.771,0,0,0-1.848.536c-1.133,1.144-2.279,2.273-3.412,3.416-1.167,1.176-.977,2.314.513,3.045,2.221,1.09,4.443,2.177,6.674,3.245a1.977,1.977,0,0,1,1,.993q1.649,3.46,3.362,6.89a1.626,1.626,0,0,0,2.806.5c1.232-1.2,2.439-2.421,3.65-3.641a1.689,1.689,0,0,0,.476-1.718c-.294-1.16-.528-2.336-.823-3.5a.845.845,0,0,1,.263-.935c1.02-.985,2.039-1.974,3-3.012.491-.528.7-.6,1.069.134,1.976,3.877,4,7.727,6.022,11.583.769,1.469,1.886,1.64,3.067.473,1.222-1.208,2.4-2.468,3.658-3.633a2.616,2.616,0,0,0,.809-2.569c-.871-5.792-1.7-11.591-2.552-17.385a1.042,1.042,0,0,1,.342-1.009Q574.882,1036.668,576.213,1035.279Zm-31.639-2.109a3.7,3.7,0,0,1-.343-.244c.671-.65,1.33-1.256,1.949-1.9.264-.276.529-.2.823-.157q6.027.868,12.055,1.733a16.918,16.918,0,0,1,2.832.594c-.321.263-.665.5-.959.794-1.551,1.535-3.1,3.075-4.626,4.634a.667.667,0,0,1-.954.175C551.768,1036.9,548.168,1035.042,544.574,1033.17Zm27.416,24.046c-.579.537-1.109,1.125-1.646,1.677-.335-.1-.363-.376-.468-.575-1.807-3.445-3.6-6.9-5.414-10.337a.767.767,0,0,1,.137-1.1c1.852-1.8,3.663-3.648,5.586-5.576.312,2.155.605,4.17.9,6.184.417,2.885.821,5.772,1.26,8.654A1.069,1.069,0,0,1,571.991,1057.216Zm-2.033-20.3q-7.437,7.438-14.885,14.865a2.158,2.158,0,0,0-.664,2.347c.28.966.443,1.965.7,2.938a1.113,1.113,0,0,1-.4,1.342,8.564,8.564,0,0,0-.96,1.028c-.949-1.94-1.865-3.75-2.719-5.588a3.239,3.239,0,0,0-1.669-1.683c-1.827-.841-3.621-1.753-5.471-2.658.042-.079.053-.1.067-.127.808-1.273,1.831-1.434,3.3-1.058,3.666.939,2.82,1.117,5.429-1.482q8.611-8.58,17.191-17.191a8.75,8.75,0,0,1,5.762-2.743c.553-.037.691.12.654.661a8.373,8.373,0,0,1-2.407,5.4C572.6,1034.308,571.269,1035.606,569.958,1036.918Z" transform="translate(-32.06 -44.884)" fill="#fff"/></g></svg>