<svg xmlns="http://www.w3.org/2000/svg" width="200" height="218.628" viewBox="0 0 200 218.628"><g transform="translate(-600.355 -1852.679)"><path d="M703.046,1980.051l9.36,4.336v0a2.677,2.677,0,0,0,2.24,0l9.365-4.335v0a67.355,67.355,0,0,0,38.932-60.921v-47.636a2.667,2.667,0,0,0-2.667-2.667H736.037a21.086,21.086,0,0,1-19.985-14.335,2.664,2.664,0,0,0-5.05,0,21.1,21.1,0,0,1-19.994,14.335H666.785a2.667,2.667,0,0,0-2.667,2.667v47.636a67.344,67.344,0,0,0,38.927,60.921Zm-33.6-105.888H691a26.427,26.427,0,0,0,22.5-12.575,26.416,26.416,0,0,0,22.512,12.575h21.561v44.97a61.985,61.985,0,0,1-35.833,56.079l-8.239,3.808-8.239-3.819a61.991,61.991,0,0,1-35.812-56.068Z" transform="translate(-12.607)" fill="#121766"/><path d="M717.643,1962.191a33.393,33.393,0,0,0,33.188-37.066,2.667,2.667,0,1,0-5.3.581,28.063,28.063,0,1,1-8.239-16.939,2.666,2.666,0,0,0,3.733-3.807,33.4,33.4,0,1,0-23.379,57.231Z" transform="translate(-16.584 -8.446)" fill="#121766"/><path d="M615.606,2017.767a2.565,2.565,0,0,0,.6.821l27.673,25.53v9.914h-.916a2.667,2.667,0,0,0-2.667,2.667v19.2a2.667,2.667,0,0,0,5.334,0v-16.533h33.46v4.667H653.258a2.666,2.666,0,1,0,0,5.333h25.833v13.494H628.249a2.666,2.666,0,0,0,0,5.333H773.171a2.666,2.666,0,1,0,0-5.333H721.64v-13.494h26.02a2.666,2.666,0,1,0,0-5.333H721.64v-4.667H755.1v16.8a2.667,2.667,0,0,0,5.333,0V2056.7a2.667,2.667,0,0,0-2.667-2.667h-.918v-9.919l27.674-25.531h0a2.53,2.53,0,0,0,.6-.821L800.1,1986.04a2.662,2.662,0,0,0,.255-1.141v-35.036a11.536,11.536,0,1,0-23.066,0v30.858l-2.254,2.6a11.531,11.531,0,0,0-19.424-4.758l-38.559,40.393a2.671,2.671,0,0,0-.735,1.84v62.068H684.426v-62.068a2.663,2.663,0,0,0-.737-1.84l-38.559-40.393a11.525,11.525,0,0,0-19.428,4.758l-2.278-2.6v-30.858a11.536,11.536,0,1,0-23.066,0V1984.9a2.655,2.655,0,0,0,.258,1.141Zm143.859-35.524a6.209,6.209,0,0,1,9.156,8.385l-6.331,7.22-10.106,11.526h0a2.667,2.667,0,1,0,4.006,3.515l13.1-14.934,3.345-3.813,9.345-10.667h0a2.667,2.667,0,0,0,.661-1.759v-31.851a6.2,6.2,0,1,1,12.4,0V1984.3l-14.507,30.719-28.153,25.967a2.664,2.664,0,0,0-.859,1.964v11.082H721.652v-32.165ZM605.7,1949.865a6.2,6.2,0,1,1,12.4,0v31.862a2.672,2.672,0,0,0,.661,1.76l9.344,10.666,3.345,3.813,13.1,14.933h0a2.667,2.667,0,1,0,4.006-3.516l-10.133-11.526-6.314-7.236a6.218,6.218,0,0,1,9.185-8.379l37.824,39.625,0,32.165H649.244v-11.082a2.664,2.664,0,0,0-.859-1.964l-28.154-25.967L605.725,1984.3Z" transform="translate(0 -16.885)" fill="#121766"/><path d="M704.329,1929.246a2.666,2.666,0,0,0-3.771,3.769l15.908,15.914h0a2.663,2.663,0,0,0,3.769,0l38.015-38.01,0,0a2.671,2.671,0,0,0-3.777-3.777l-36.121,36.127Z" transform="translate(-19.664 -10.614)" fill="#121766"/></g></svg>