<svg xmlns="http://www.w3.org/2000/svg" xmlns:xlink="http://www.w3.org/1999/xlink" width="100" height="100" viewBox="0 0 100 100"><defs><clipPath id="b"><rect width="100" height="100"/></clipPath></defs><g id="a" clip-path="url(#b)"><path d="M440.09,980.344h78.417a2.257,2.257,0,0,1,2.256,2.257v46.016a2.256,2.256,0,0,1-2.256,2.257H440.09a2.257,2.257,0,0,1-2.257-2.257V982.6a2.257,2.257,0,0,1,2.257-2.257m36.952,11.189a2.257,2.257,0,0,1,4.513,0v1.594h6.4a2.257,2.257,0,0,1,0,4.513h-6.4v5.713h6.4a2.256,2.256,0,0,1,2.257,2.256v10.225a2.257,2.257,0,0,1-2.257,2.257h-6.4v1.594a2.257,2.257,0,0,1-4.513,0v-1.594h-6.4a2.257,2.257,0,0,1,0-4.513h6.4v-5.712h-6.4a2.257,2.257,0,0,1-2.256-2.257V995.384a2.257,2.257,0,0,1,2.256-2.257h6.4Zm4.513,22.045h4.14v-5.712h-4.14Zm-4.513-15.938H472.9v5.713h4.14Zm-27.816-21.617a2.257,2.257,0,0,1,0-4.513h78.417a2.257,2.257,0,0,1,2.257,2.256v46.016a2.257,2.257,0,0,1-4.513,0V976.022h-76.16Zm67.023,8.834h-73.9v41.5h73.9Z" transform="translate(-433.866 -951.399)" fill="#fff"/></g></svg>