<svg xmlns="http://www.w3.org/2000/svg" xmlns:xlink="http://www.w3.org/1999/xlink" width="140" height="140" viewBox="0 0 140 140"><defs><clipPath id="b"><rect width="140" height="140"/></clipPath></defs><g id="a" clip-path="url(#b)"><g transform="translate(-544.149 -2562.589)"><g transform="translate(552.028 2579.179)"><path d="M663.608,2620.862a11.887,11.887,0,0,0-11.834,10.956H631.023a16.737,16.737,0,0,0-7.872-13.287l10.165-17.6a11.761,11.761,0,0,0,7.26,2.5,11.9,11.9,0,1,0-8.623-3.732l-10.369,17.974a16.732,16.732,0,0,0-15.146.318l-10.586-18.331a12.1,12.1,0,1,0-1.378,1.248l10.406,18.025a16.72,16.72,0,0,0-7.287,12.9H576.234a11.891,11.891,0,1,0,0,1.8H597.6a16.735,16.735,0,0,0,7.287,12.942l-10.255,17.745a12.067,12.067,0,1,0,1.325,1.273l10.445-18.1a16.732,16.732,0,0,0,15.146.318l10.269,17.746a11.835,11.835,0,1,0,1.336-1.261l-10-17.337a16.734,16.734,0,0,0,7.872-13.325h20.751a11.87,11.87,0,1,0,11.835-12.763Zm-29.516-21.592c1.249-3.336,3.745-5.465,6.484-5.465s5.223,2.128,6.483,5.465a10.055,10.055,0,0,1-12.968,0m6.484-7.273a2.841,2.841,0,1,1,2.842-2.842A2.842,2.842,0,0,1,640.577,2592Zm0-10.522a10.065,10.065,0,0,1,7.847,16.382,10.067,10.067,0,0,0-4.829-5.185,4.635,4.635,0,1,0-6.051.013,10.06,10.06,0,0,0-4.829,5.185,10.074,10.074,0,0,1,7.861-16.395Zm-63.488,10.089a10.076,10.076,0,1,1,17.923,6.3,10.072,10.072,0,0,0-4.828-5.185,4.637,4.637,0,1,0-6.039,0,10.068,10.068,0,0,0-4.828,5.185,10.046,10.046,0,0,1-2.23-6.3Zm10.076.433a2.841,2.841,0,1,1,2.841-2.84,2.843,2.843,0,0,1-2.841,2.84m-6.484,7.273c1.248-3.336,3.745-5.465,6.483-5.465s5.223,2.128,6.484,5.465a10.055,10.055,0,0,1-12.968,0Zm0,81.972c1.248-3.338,3.745-5.465,6.483-5.465s5.223,2.126,6.484,5.465a10.055,10.055,0,0,1-12.968,0Zm6.484-7.26a2.841,2.841,0,1,1,2.841-2.841,2.844,2.844,0,0,1-2.841,2.841m7.859,5.858a10.06,10.06,0,0,0-4.828-5.185,4.637,4.637,0,1,0-6.037,0,10.059,10.059,0,0,0-4.829,5.185,10.076,10.076,0,1,1,15.694,0Zm39.07,1.4c1.248-3.338,3.745-5.465,6.483-5.465s5.223,2.126,6.484,5.465a10.055,10.055,0,0,1-12.968,0m6.483-7.26a2.841,2.841,0,1,1,2.842-2.842,2.844,2.844,0,0,1-2.842,2.842Zm10.077-.447a10.047,10.047,0,0,1-2.23,6.306,10.068,10.068,0,0,0-4.828-5.185,4.636,4.636,0,1,0-6.051.013,10.059,10.059,0,0,0-4.829,5.185,10.076,10.076,0,1,1,17.936-6.319Zm-92.725-33.1c1.248-3.336,3.745-5.464,6.483-5.464s5.223,2.126,6.484,5.464a10.057,10.057,0,0,1-12.968,0m6.483-7.26a2.84,2.84,0,1,1,2.84-2.84,2.843,2.843,0,0,1-2.84,2.84m7.847,5.872a10.062,10.062,0,0,0-4.828-5.185,4.637,4.637,0,1,0-6.037,0,10.059,10.059,0,0,0-4.829,5.185,10.076,10.076,0,1,1,15.694,0Zm32.229,4.93c1.834-5.122,5.63-8.407,9.822-8.407s7.986,3.286,9.821,8.407a14.907,14.907,0,0,1-19.643,0m9.822-10.2a4.5,4.5,0,0,1-3.185-7.683,4.45,4.45,0,0,1,3.185-1.312,4.5,4.5,0,0,1,0,8.995Zm11.21,8.814a14.156,14.156,0,0,0-7.63-8.14,6.291,6.291,0,0,0-3.58-11.465,6.308,6.308,0,0,0-6.293,6.292,6.306,6.306,0,0,0,2.714,5.172,14.075,14.075,0,0,0-7.63,8.14,14.954,14.954,0,1,1,22.419,0Zm31.606-2.153c1.248-3.336,3.744-5.464,6.483-5.464s5.223,2.126,6.483,5.464a10.051,10.051,0,0,1-12.967,0m6.483-7.26a2.84,2.84,0,1,1,2.841-2.84,2.843,2.843,0,0,1-2.841,2.84m7.847,5.872a10.064,10.064,0,0,0-4.829-5.185,4.636,4.636,0,1,0-6.037,0,10.053,10.053,0,0,0-4.828,5.185,10.077,10.077,0,1,1,15.693,0Z" transform="translate(-551.983 -2579.134)" fill="#121766"/><path d="M640.622,2686a12.4,12.4,0,0,1-9.433-20.469l-9.821-16.977a17.362,17.362,0,0,1-7.039,1.5,17.066,17.066,0,0,1-7.674-1.8l-9.99,17.315a12.33,12.33,0,1,1-2.153-2.021l9.694-16.774a17.4,17.4,0,0,1-7.075-12.556H576.774a12.4,12.4,0,1,1,0-2.884h20.358a17.154,17.154,0,0,1,7.075-12.518l-9.851-17.063a12.253,12.253,0,0,1-7.146,2.277,12.417,12.417,0,0,1,.025-24.833h0a12.4,12.4,0,0,1,9.334,20.577l10.126,17.536a17.282,17.282,0,0,1,14.712-.3l9.919-17.2a12.434,12.434,0,1,1,2.2,1.964l-9.6,16.626a17.3,17.3,0,0,1,7.651,12.919h19.749a12.473,12.473,0,0,1,12.328-10.956,12.424,12.424,0,0,1,0,24.848,12.471,12.471,0,0,1-12.329-10.994H631.577a17.307,17.307,0,0,1-7.652,12.957l9.432,16.351A12.413,12.413,0,1,1,640.622,2686Zm-18.813-38.86,10.721,18.53-.268.294a11.3,11.3,0,1,0,1.275-1.2l-.5.4-10.582-18.346.447-.278a16.213,16.213,0,0,0,7.617-12.891l.026-.517h21.775l.038.5a11.324,11.324,0,1,0,19.3-8.855,11.243,11.243,0,0,0-8-3.323,11.376,11.376,0,0,0-11.291,10.452l-.038.5H630.551l-.027-.515a16.207,16.207,0,0,0-7.617-12.853l-.447-.278,10.741-18.6.494.385a11.2,11.2,0,0,0,6.928,2.38,11.357,11.357,0,1,0-8.228-3.561l.279.294L621.85,2618.42l-.455-.218a16.193,16.193,0,0,0-14.654.306l-.465.25-11.051-19.136.276-.3a11.306,11.306,0,0,0-8.264-19.044h0a11.327,11.327,0,1,0,6.95,20.234l.494-.387,10.975,19.006-.417.286a16.083,16.083,0,0,0-7.051,12.484l-.027.515H575.775l-.038-.5a11.353,11.353,0,1,0,0,1.712l.038-.5h22.385l.026.517a16.284,16.284,0,0,0,7.051,12.521l.417.286-10.828,18.735-.5-.4a11.2,11.2,0,0,0-7.134-2.539,11.376,11.376,0,1,0,8.4,3.755l-.266-.293,10.906-18.9.467.25a16,16,0,0,0,7.628,1.909,16.239,16.239,0,0,0,7.024-1.6Zm18.814,37.064a10.641,10.641,0,0,1-6.835-2.5l-.294-.249.134-.36c1.343-3.589,4.023-5.819,7-5.819s5.637,2.229,6.993,5.817l.136.361-.3.25A10.642,10.642,0,0,1,640.623,2684.2Zm-5.831-3.087a9.509,9.509,0,0,0,11.66,0c-1.225-2.94-3.432-4.748-5.828-4.748S636.007,2678.176,634.791,2681.115ZM587.21,2684.2a10.647,10.647,0,0,1-6.835-2.5l-.294-.249.134-.36c1.343-3.589,4.023-5.819,7-5.819s5.639,2.229,6.993,5.817l.136.362-.3.249A10.641,10.641,0,0,1,587.21,2684.2Zm-5.831-3.087a9.509,9.509,0,0,0,11.66,0c-1.225-2.94-3.432-4.748-5.828-4.748S582.594,2678.176,581.378,2681.115Zm51.516-.18-.559-.7a10.622,10.622,0,1,1,18.908-6.659,10.656,10.656,0,0,1-2.35,6.646l-.558.7-.364-.814a9.55,9.55,0,0,0-4.557-4.911l-.776-.354.646-.555a4.091,4.091,0,1,0-5.339.013l.646.555-.777.354a9.539,9.539,0,0,0-4.556,4.91Zm7.714-16.873a9.542,9.542,0,0,0-9.531,9.531,9.4,9.4,0,0,0,1.591,5.256,10.625,10.625,0,0,1,4.008-4.279,5.195,5.195,0,1,1,7.875-.013,10.62,10.62,0,0,1,4.009,4.282,9.407,9.407,0,0,0,1.592-5.259A9.543,9.543,0,0,0,640.609,2664.063Zm-61.1,16.86-.558-.7a10.623,10.623,0,1,1,16.543,0l-.557.7-.363-.814a9.551,9.551,0,0,0-4.558-4.911l-.775-.354.646-.555a4.091,4.091,0,1,0-5.327,0l.647.556-.777.353a9.541,9.541,0,0,0-4.557,4.911Zm11.645-6.365a10.624,10.624,0,0,1,4.009,4.28,9.4,9.4,0,0,0,1.591-5.257,9.532,9.532,0,0,0-19.064,0,9.412,9.412,0,0,0,1.592,5.257,10.622,10.622,0,0,1,4.008-4.28,5.182,5.182,0,1,1,7.863,0Zm49.469.015a3.386,3.386,0,1,1,3.386-3.386A3.391,3.391,0,0,1,640.623,2674.572Zm0-5.681a2.3,2.3,0,1,0,2.294,2.295A2.288,2.288,0,0,0,640.624,2668.891Zm-53.413,5.681a3.386,3.386,0,1,1,3.384-3.385A3.391,3.391,0,0,1,587.211,2674.572Zm0-5.681a2.3,2.3,0,1,0,2.294,2.3A2.3,2.3,0,0,0,587.211,2668.891Zm27.14-20.626a15.512,15.512,0,0,1-10.175-3.828l-.281-.243.126-.352c1.937-5.408,5.9-8.768,10.334-8.768,4.369,0,8.425,3.442,10.334,8.768l.126.351-.28.243a15.462,15.462,0,0,1-10.181,3.829Zm-9.173-4.407a14.415,14.415,0,0,0,9.173,3.317h0a14.37,14.37,0,0,0,9.178-3.317c-1.8-4.687-5.369-7.694-9.178-7.694S606.975,2639.171,605.177,2643.858Zm-1.857-.2-.583-.663a15.5,15.5,0,1,1,23.238,0l-.58.66-.335-.814a13.7,13.7,0,0,0-7.322-7.837l-.961-.372.848-.585a5.747,5.747,0,0,0-3.27-10.473,5.759,5.759,0,0,0-5.746,5.748,5.762,5.762,0,0,0,2.479,4.725l.845.586-.96.369a13.63,13.63,0,0,0-7.32,7.835Zm15.661-9.3a14.9,14.9,0,0,1,6.729,7.249,14.385,14.385,0,1,0-22.709,0,14.8,14.8,0,0,1,6.731-7.249,6.824,6.824,0,0,1-.207-9.863,6.742,6.742,0,0,1,4.831-2.006,6.837,6.837,0,0,1,4.626,11.872Zm44.619,9.04a10.557,10.557,0,0,1-6.782-2.5l-.294-.249.135-.36c1.343-3.589,4.023-5.818,6.995-5.818s5.637,2.228,6.994,5.816l.136.362-.3.249a10.638,10.638,0,0,1-6.834,2.5Zm-5.777-3.088a9.448,9.448,0,0,0,5.78,2,9.775,9.775,0,0,0,5.879-2c-1.226-2.938-3.433-4.747-5.829-4.747S659.038,2637.374,657.823,2640.313ZM564.4,2643.4a10.561,10.561,0,0,1-6.779-2.5l-.293-.249.134-.36c1.343-3.589,4.023-5.818,7-5.818s5.637,2.228,6.993,5.816l.136.362-.3.249A10.662,10.662,0,0,1,564.4,2643.4Zm-5.774-3.087a9.712,9.712,0,0,0,5.828,2,9.543,9.543,0,0,0,5.831-2c-1.226-2.938-3.432-4.747-5.828-4.747S559.842,2637.374,558.627,2640.313Zm112.74-.179-.364-.814a9.546,9.546,0,0,0-4.557-4.912l-.776-.353.646-.556a4.091,4.091,0,1,0-5.327,0l.646.556-.776.353a9.543,9.543,0,0,0-4.557,4.912l-.364.814-.558-.7a10.622,10.622,0,1,1,16.545,0Zm-7.714-16.874a9.543,9.543,0,0,0-9.532,9.533,9.408,9.408,0,0,0,1.591,5.256,10.627,10.627,0,0,1,4.009-4.281,5.181,5.181,0,1,1,7.862,0,10.631,10.631,0,0,1,4.009,4.281,9.408,9.408,0,0,0,1.591-5.256A9.543,9.543,0,0,0,663.653,2623.26Zm-91.482,16.874-.364-.814a9.546,9.546,0,0,0-4.557-4.912l-.777-.353.647-.556a4.091,4.091,0,1,0-5.327,0l.646.556-.776.353a9.537,9.537,0,0,0-4.556,4.912l-.364.814-.557-.7a10.62,10.62,0,1,1,16.544,0Zm-7.714-16.874a9.542,9.542,0,0,0-9.531,9.533,9.406,9.406,0,0,0,1.591,5.256,10.618,10.618,0,0,1,4.008-4.281,5.181,5.181,0,1,1,7.863,0,10.629,10.629,0,0,1,4.008,4.281,9.409,9.409,0,0,0,1.591-5.256A9.543,9.543,0,0,0,564.457,2623.26Zm49.9,11.109a5.042,5.042,0,1,1,5.041-5.042A5.048,5.048,0,0,1,614.355,2634.369Zm0-8.994a3.921,3.921,0,0,0-2.8,1.152,3.959,3.959,0,1,0,2.8-1.152Zm49.3,8.394a3.385,3.385,0,1,1,3.385-3.385A3.389,3.389,0,0,1,663.653,2633.769Zm0-5.68a2.295,2.295,0,1,0,2.3,2.3A2.3,2.3,0,0,0,663.653,2628.089Zm-99.2,5.68a3.385,3.385,0,1,1,3.384-3.385,3.387,3.387,0,0,1-3.384,3.385Zm0-5.68a2.295,2.295,0,1,0,2.294,2.3A2.3,2.3,0,0,0,564.458,2628.089Zm76.163-25.858a10.643,10.643,0,0,1-6.834-2.5l-.294-.248.134-.36c1.343-3.589,4.023-5.82,6.994-5.82s5.638,2.229,6.993,5.818l.136.361-.3.25A10.643,10.643,0,0,1,640.622,2602.231Zm-5.83-3.089a9.4,9.4,0,0,0,5.83,2,9.533,9.533,0,0,0,5.828-2c-1.225-2.938-3.432-4.747-5.828-4.747S636.007,2596.2,634.791,2599.142Zm-47.582,3.089a10.651,10.651,0,0,1-6.836-2.5l-.293-.248.134-.36c1.343-3.589,4.023-5.82,7-5.82s5.639,2.229,6.993,5.818l.136.361-.3.25A10.642,10.642,0,0,1,587.21,2602.231Zm-5.831-3.089a9.5,9.5,0,0,0,11.66,0c-1.225-2.938-3.432-4.747-5.828-4.747S582.594,2596.2,581.378,2599.142Zm13.545-.19-.364-.814a9.537,9.537,0,0,0-4.557-4.912l-.777-.353.647-.556a4.091,4.091,0,1,0-5.327,0l.646.556-.776.353a9.534,9.534,0,0,0-4.556,4.912l-.364.814-.558-.7a10.622,10.622,0,1,1,16.544,0Zm-7.713-16.875a9.542,9.542,0,0,0-9.532,9.531,9.406,9.406,0,0,0,1.591,5.258,10.616,10.616,0,0,1,4.008-4.281,5.181,5.181,0,1,1,7.863,0,10.613,10.613,0,0,1,4.008,4.281,9.411,9.411,0,0,0,1.593-5.258A9.542,9.542,0,0,0,587.211,2582.077Zm45.684,16.875-.558-.7a10.515,10.515,0,0,1-2.35-6.646,10.664,10.664,0,0,1,10.635-10.634h0a10.607,10.607,0,0,1,8.272,17.266l-.558.7-.364-.814a9.552,9.552,0,0,0-4.558-4.912l-.775-.354.646-.555a4.091,4.091,0,1,0-5.339.013l.646.556-.777.353a9.545,9.545,0,0,0-4.556,4.912Zm7.725-16.885a9.569,9.569,0,0,0-9.543,9.544,9.4,9.4,0,0,0,1.593,5.256,10.62,10.62,0,0,1,4.008-4.281,5.194,5.194,0,1,1,7.875-.013,10.622,10.622,0,0,1,4.009,4.28,9.406,9.406,0,0,0,1.592-5.256,9.542,9.542,0,0,0-9.532-9.531h0Zm0,10.521a3.385,3.385,0,1,1,3.387-3.387A3.39,3.39,0,0,1,640.622,2592.587Zm0-5.681a2.3,2.3,0,1,0,2.3,2.294A2.284,2.284,0,0,0,640.623,2586.906Zm-53.412,5.681a3.385,3.385,0,1,1,3.384-3.385A3.391,3.391,0,0,1,587.211,2592.587Zm0-5.68a2.295,2.295,0,1,0,2.294,2.294A2.3,2.3,0,0,0,587.211,2586.907Z" transform="translate(-552.028 -2579.179)" fill="#121766"/></g></g></g></svg>