<svg xmlns="http://www.w3.org/2000/svg" xmlns:xlink="http://www.w3.org/1999/xlink" width="140" height="140" viewBox="0 0 140 140"><defs><clipPath id="b"><rect width="140" height="140"/></clipPath></defs><g id="a" clip-path="url(#b)"><g transform="translate(-147.003 -2553.29)"><path d="M275.8,2573.8a1.621,1.621,0,0,0-1.393,1.589v7.161l-2.347,2.346v-4.033a1.564,1.564,0,1,0-3.128,0v7.162l-.342.342a26.685,26.685,0,1,0,4.131,4.645l-2.224,2.2c0,.006,0,.018,0,.024a23.541,23.541,0,1,1-4.107-4.668l-3.886,3.886a18.3,18.3,0,1,0,3.984,4.79l-2.273,2.273a14.934,14.934,0,1,1-3.935-4.839l-4.473,4.472a8.514,8.514,0,0,0-4.864-1.515,8.6,8.6,0,1,0,8.6,8.6,8.449,8.449,0,0,0-.22-1.834l-3.056,3.056a5.481,5.481,0,1,1-2.737-6.037l-3.691,3.691a1.566,1.566,0,0,0,2.1,2.322l19.188-19.188h7.186a1.564,1.564,0,1,0,0-3.128h-4.058l2.347-2.347h7.186a1.564,1.564,0,1,0,0-3.128h-6.258v-6.257a1.633,1.633,0,0,0-1.735-1.589Z" fill="#121766"/><path d="M250.944,2635.328a27.092,27.092,0,1,1,17.489-47.764v-6.7a2.128,2.128,0,0,1,1.838-2.086,2.132,2.132,0,0,1,2.291,2.1v2.815l1.346-1.346v-6.955a2.13,2.13,0,0,1,1.838-2.085h0a2.131,2.131,0,0,1,2.29,2.1v5.746h5.758a2.091,2.091,0,0,1,1.453.611,1.984,1.984,0,0,1,0,2.905,2.119,2.119,0,0,1-1.461.613h-6.973l-1.345,1.346h2.849a2.21,2.21,0,0,1,1.454.611,1.984,1.984,0,0,1,0,2.9,2.027,2.027,0,0,1-1.462.613H271.34L252.3,2609.787a2.065,2.065,0,1,1-2.791-3.045l3.164-3.165a4.9,4.9,0,0,0-1.729-.316,4.974,4.974,0,1,0,4.841,6.086l.031-.141,3.8-3.8.2.886a8.807,8.807,0,0,1,.233,1.943,9.1,9.1,0,1,1-9.105-9.1,9.008,9.008,0,0,1,4.8,1.374l3.784-3.784a14.184,14.184,0,0,0-8.583-2.847,14.314,14.314,0,1,0,12.827,7.865l-.164-.324,2.989-2.987.327.561a18.326,18.326,0,1,1-4.45-5.213l3.183-3.183a22.815,22.815,0,1,0,4.426,4.915l-.116-.174,0-.018-.115-.174,2.938-2.905.34.484a26.836,26.836,0,0,1,4.906,15.514A27.122,27.122,0,0,1,250.944,2635.328Zm0-53.185a26.092,26.092,0,1,0,26.093,26.093,25.831,25.831,0,0,0-4.39-14.45l-1.518,1.5a24.027,24.027,0,1,1-4.408-5.1l.4.351-4.589,4.588-.35-.295a17.785,17.785,0,1,0,4.191,5.23l-1.553,1.552a15.426,15.426,0,1,1-4.227-5.329l.431.35-5.16,5.16-.343-.237a8.008,8.008,0,0,0-4.58-1.427,8.1,8.1,0,1,0,8.105,8.1,6.906,6.906,0,0,0-.048-.8l-2.275,2.274a5.982,5.982,0,1,1-2.954-6.73l.594.317-4.168,4.167a1.066,1.066,0,1,0,1.412,1.6l19.317-19.317h7.392a1.04,1.04,0,0,0,.752-1.8,1.137,1.137,0,0,0-.745-.324h-5.27l3.345-3.346h7.394a1.017,1.017,0,0,0,.752-.325.988.988,0,0,0,0-1.481,1.011,1.011,0,0,0-.745-.323h-6.765v-6.757a1.134,1.134,0,0,0-1.181-1.092h0a1.13,1.13,0,0,0-.947,1.08v7.38l-3.346,3.346v-5.239a1.078,1.078,0,0,0-.369-.8,1.029,1.029,0,0,0-.812-.3,1.128,1.128,0,0,0-.948,1.081v7.379l-.822.821-.352-.312A26.038,26.038,0,0,0,250.944,2582.143Z" fill="#121766"/><path d="M151.126,2619.059l15.879,5.1,9.661-1.086a14.959,14.959,0,0,0-3.669,4.292l-3.56,5.573a3.846,3.846,0,0,0,1.1,5.335,3.867,3.867,0,0,0,5.347-1.1l3.142-4.82,4.711-1.054,27.875,19.02a3.147,3.147,0,0,1-1.99,5.583,3.154,3.154,0,0,1-1.9-.645l-9.682-6.434-.581.958,8.187,5.411a3.144,3.144,0,0,1,.6,4.411,3.1,3.1,0,0,1-2.506,1.248,3.154,3.154,0,0,1-1.9-.645l-7.66-5.035-.58.947,6.54,4.271a3.148,3.148,0,1,1-3.807,5.014l-5.745-3.314-.538.883,3.593,1.85a3.148,3.148,0,1,1-3.808,5.014l-4.453-3.066-.162-.1.022-.022a4.139,4.139,0,0,0-1.183-5.744,4.223,4.223,0,0,0-4.174-.237,4.167,4.167,0,0,0-1.71-4.571,4.123,4.123,0,0,0-2.292-.689,4.074,4.074,0,0,0-2.474.828,3.867,3.867,0,0,0-.065-1.215,4.079,4.079,0,0,0-1.786-2.636,4.144,4.144,0,0,0-5.314.624,4.326,4.326,0,0,0-.075-.732,4.167,4.167,0,0,0-4.078-3.324,4.128,4.128,0,0,0-2.862,1.151l-7.756-4.519-.3-26.486Zm.022,29.543,5.454,3.151,2.131-.247,1.344-1.281c.323-.3,1.539-1.312,1.969-1.312a3.808,3.808,0,0,1,1.441.258c.388.258.764,0,.851.43.021.108,2.162,1.528,2.162,1.6l-3.55,7.186,4.121-6.487a1.69,1.69,0,0,1,1.226-.527,1.661,1.661,0,0,1,.925.28c.387.258,4.54,2.054,4.626,2.5a1.808,1.808,0,0,1,.032.473l-3.572,6.96,3.98-6.057a1.606,1.606,0,0,1,.99-.322,1.643,1.643,0,0,1,.925.28c.387.258,4.013,2.463,4.11,2.905a1.712,1.712,0,0,1-.022.774l-4.325,6.207,5.132-5.346a1.75,1.75,0,0,1,.753-.172,1.771,1.771,0,0,1,.947.269,28.922,28.922,0,0,1,3.669,4.044,1.713,1.713,0,0,1-.237,1.259l-1.4,2.1-.99,1.183.129.087,4.389,3.022a5.625,5.625,0,0,0,3.346,1.109,5.566,5.566,0,0,0,4.475-2.216,5.661,5.661,0,0,0,1.033-2.292,6.018,6.018,0,0,0,.99.086,5.609,5.609,0,0,0,5.594-5.2,5.616,5.616,0,0,0,5.486-4.95h.3a5.614,5.614,0,0,0,3.561-9.961l-.086-.065.086.065-29-16.341-.883-.6-1.044.236-2.9,1.485-.979.215-.549.839-2.538,4.8c-.248.377-4.218-.01-4.69-.01a1.392,1.392,0,0,1-1.367-1.109c-.075-.365-.538-1.786-.333-2.1l.549,1.044-.624-2.034,1.581-3.389.452-1.076.333-1.613a41.766,41.766,0,0,1,5.928-6.53l7.541-2.776-8.219.925-9.133,1.033-16.127-5.175v32.36Z" fill="#121766"/><path d="M191.706,2673.425a6.109,6.109,0,0,1-3.642-1.206l-4.963-3.405,1.539-1.9-.248-.148.474-.454a3.63,3.63,0,0,0,.481-2.673c-.017-.078-.035-.154-.056-.23-.7-.792-1.758-1.9-2.355-2.491a3.765,3.765,0,0,0-1.887-.122l-4.723,4.921-.77-.633,3.965-5.689a4.09,4.09,0,0,0-.07-.565,3.672,3.672,0,0,0-.259-.79c-.515-.373-1.389-.958-2.843-1.872-.194-.121-.336-.212-.408-.258a3.229,3.229,0,0,0-1.5.294l-3.715,5.654-.864-.5,3.037-5.916c-.012-.1-.029-.207-.051-.31a3.6,3.6,0,0,0-.648-1.46c-.71-.364-1.55-.762-2.036-.993s-.787-.374-.987-.476a3.635,3.635,0,0,0-2.245.836l-3.56,5.62-.87-.49,3.062-6.2a3.545,3.545,0,0,0-1.03-1.574c-.215-.154-.359-.263-.457-.346a3.67,3.67,0,0,0-2.149-.59,9.36,9.36,0,0,0-1.51,1.132l-1.462,1.392-2.46.286-5.717-3.3-.144-.258v-29.456l-.984-1.159.984.3v-2.857l16.678,5.351,21.356-2.408-10.738,3.951.334-.037-1.279,1.066a14.354,14.354,0,0,0-3.553,4.155l-2.742,4.291-1.378,2.955.568,1.849-.124.051a3.277,3.277,0,0,0,1.05,1.1,3.368,3.368,0,0,0,4.657-.955l3.251-4.988,5.122-1.145,4.586,3.129,24.929,14.043,0-.008.087.064a6.115,6.115,0,0,1-3.732,10.863,6.1,6.1,0,0,1-1.126,2.525,6.038,6.038,0,0,1-4.338,2.4,6.1,6.1,0,0,1-6.654,5.186,6.205,6.205,0,0,1-1.013,2.037A6.056,6.056,0,0,1,191.706,2673.425Zm-7.128-4.82,4.066,2.8a5.128,5.128,0,0,0,3.062,1.02,5.065,5.065,0,0,0,4.077-2.018,5.2,5.2,0,0,0,.941-2.087l.094-.476.478.08a5.492,5.492,0,0,0,.907.079,5.11,5.11,0,0,0,5.1-4.732l.033-.458.459-.006a5.114,5.114,0,0,0,5-4.509l.053-.44h.744a5.116,5.116,0,0,0,3.277-9.048l-14.807-8.343,13.837,9.442a3.644,3.644,0,0,1-4.477,5.751l-9.225-6.129-.061.1,7.786,5.147a3.642,3.642,0,0,1,.725,5.132,3.586,3.586,0,0,1-2.9,1.443,3.647,3.647,0,0,1-2.2-.746l-7.2-4.733-.057.093,6.134,4a3.648,3.648,0,1,1-4.382,5.833l-1.621-.934a3.639,3.639,0,0,1-4.876,5.368l-4.047-2.786-.232.348Zm1.457-1.985,4.075,2.806a2.686,2.686,0,0,0,3.728-.491,2.652,2.652,0,0,0-.505-3.712l-4-2.051,1.071-1.758,6.167,3.557a2.65,2.65,0,1,0,3.255-4.183l-6.918-4.514,1.106-1.8,8.089,5.317a2.665,2.665,0,0,0,3.735-.481,2.644,2.644,0,0,0-.5-3.715l-8.562-5.659,1.1-1.814,10.115,6.723a2.676,2.676,0,0,0,3.738-.491,2.626,2.626,0,0,0-.435-3.643l-23.412-15.973-3.986-2.245-.739-.5-.77.174-2.969,1.5-.759.167-.545.836-2.427,4.594c-.295.452-.93.543-4.409.3-.356-.024-.624-.044-.724-.044a1.9,1.9,0,0,1-1.857-1.508c-.014-.074-.048-.194-.087-.342a4.06,4.06,0,0,1-.261-1.944,4.233,4.233,0,0,1-.054-.777l-.05-.162.068-.146a4.312,4.312,0,0,1,.707-1.975l.887-1.443.444-1.058.358-1.665a32.41,32.41,0,0,1,3.987-4.7l-7.742.871-15.282-4.908.29,25.541,7.2,4.2a4.647,4.647,0,0,1,2.589-1.027.959.959,0,0,1,.294-.055,4.261,4.261,0,0,1,1.716.34.506.506,0,0,0,.24.062.845.845,0,0,1,.769.5,4.864,4.864,0,0,1,.386.3c.207.148.447.318.64.453,1.2.845,1.2.845,1.2,1.14v.11a2.149,2.149,0,0,1,2.443-.11,4.6,4.6,0,0,1,2.384.769,4.687,4.687,0,0,1,1.026.91c1.184.62,1.427.872,1.486,1.174a2.305,2.305,0,0,1,.04.6l-.1.283a2.225,2.225,0,0,1,1.952-.019,4.643,4.643,0,0,1,3.755,2.464c.662.5.775.706.816.9a2.214,2.214,0,0,1-.026,1.007l-.074.161-.179.255c0,.064,0,.127-.008.19l.019,0,.35-.317a2.31,2.31,0,0,1,2.183.126,4.869,4.869,0,0,1,.369.335,4.637,4.637,0,0,1,2.764,2.923,3.9,3.9,0,0,1,.759,1.113,2.216,2.216,0,0,1-.3,1.62Zm4.714-3.844.167.086-.163-.094ZM151.635,2648.3l5.074,2.933,1.8-.21.493-.469-.032-.02-7.335-4.272Zm0-29.607,15.421,4.952,8.78-.989c.375-.36.692-.65.917-.836l.146-.084,3.661-1.348-13.349,1.508-.1-.032-15.474-4.966Z" fill="#121766"/><rect width="2.905" height="40.74" transform="translate(149.503 2614.466)" fill="#121766"/><path d="M152.908,2655.706H149v-41.74h3.9Zm-2.9-1h1.9v-39.74H150Z" fill="#121766"/><rect width="2.905" height="40.74" transform="translate(218.095 2614.466)" fill="#121766"/><path d="M221.5,2655.706h-3.9v-41.74h3.9Zm-2.9-1h1.9v-39.74h-1.9Z" fill="#121766"/><path d="M211.727,2655.076c1.291.828-3.69,3.453-3.69,3.453l-12.792-8.359,1.657-2.324s4.8,2.98,6.81,4.335c2.873,1.926,6.014,4.873,8.015,2.894Z" fill="#121766"/><path d="M208.01,2659.109l-13.474-8.8,2.232-3.13.4.247c.048.031,4.829,3,6.825,4.345.486.326.981.682,1.476,1.037,2.745,1.973,4.639,3.171,5.908,1.916l.284-.281.337.217a.893.893,0,0,1,.443.809c-.051,1.209-2.932,2.856-4.168,3.508Zm-12.056-9.073,12.109,7.913a18.174,18.174,0,0,0,2.733-1.788c-1.791.411-3.956-1.139-5.912-2.545-.487-.35-.973-.7-1.45-1.02-1.645-1.107-5.205-3.334-6.4-4.077Z" fill="#121766"/><path d="M205.831,2660.026c.871-.828-3.077,3.97-3.077,3.97l-5.088-3.421-5.422-3.4,1.657-2.409s3.173,1.839,4.6,2.851c1.582,1.108,5.466,4.163,7.327,2.409Z" fill="#121766"/><path d="M202.852,2664.664l-5.465-3.674-5.85-3.668,2.214-3.221.4.232c.13.076,3.21,1.863,4.643,2.875l.433.308c1.573,1.127,4.847,3.474,6.259,2.149h0c.393-.374.675-.223.81-.1.426.4.426.4-3.156,4.748Zm-9.9-7.635,4.981,3.122,4.724,3.177c.6-.731,1.284-1.578,1.834-2.268H204.4c-1.944,0-4.316-1.7-5.759-2.732l-.427-.3c-1.1-.777-3.274-2.068-4.169-2.594Z" fill="#121766"/><path d="M200.2,2665.33l-4.658,2.938-6.617-4.121,1.668-2.377c6.648,4.292,7.412,5.046,9.607,3.56Z" fill="#121766"/><path d="M195.539,2668.858l-7.332-4.566,2.248-3.2,1.918,1.241c4.824,3.132,5.708,3.655,7.1,2.863l.452-.285.547.836q-.246.168-.476.3ZM189.633,2664l5.9,3.677,2-1.261c-1.228-.342-2.844-1.39-5.706-3.248l-1.107-.717Z" fill="#121766"/><path d="M213.048,2648.623l-28.939-18.278-.183-.119-5.357,1.743-3.281,4.679a2.848,2.848,0,0,1-2.389,1.28,3.315,3.315,0,0,1-3.3-2.592,2.835,2.835,0,0,1,.419-2.152l3.572-5.6a13.512,13.512,0,0,1,11.748-7.347,10.518,10.518,0,0,1,2.367.236l18.977,2.216h.119l12.931-3.883v-2.7l-13.244,3.754-18.267-2.13a14.145,14.145,0,0,0-2.926-.28,16.176,16.176,0,0,0-14.276,8.714l-3.507,5.5a6.02,6.02,0,0,0-.883,4.626,6.148,6.148,0,0,0,11.145,2.141v-.022l2.636-4.034,2.98-1.044s20.913,13.372,27.982,17.665a2.5,2.5,0,0,1,1.367,1.657c.086.387,1.71-1.065,1.71-1.065l5.5-2.615-.022-3.636-6.885,3.27Z" fill="#121766"/><path d="M212.827,2653.216a.559.559,0,0,1-.191-.035l-.273-.088-.114-.34a1.98,1.98,0,0,0-1.1-1.315c-6.655-4.041-25.634-16.163-27.825-17.563l-2.59.908-2.545,3.918a6.648,6.648,0,0,1-12.051-2.319,6.507,6.507,0,0,1,.957-5l3.5-5.49a16.657,16.657,0,0,1,14.7-8.945,14.465,14.465,0,0,1,3.032.292l18.12,2.11,13.784-3.907v3.733l-13.548,4.011-19.035-2.219a10.327,10.327,0,0,0-2.31-.233,13.011,13.011,0,0,0-11.312,7.092l-3.586,5.629a2.336,2.336,0,0,0-.353,1.776,2.814,2.814,0,0,0,2.814,2.2,2.337,2.337,0,0,0,1.973-1.058l3.384-4.826,5.742-1.867.384.249,28.676,18.11,7.36-3.5.028,4.742L214.727,2652C213.565,2653.031,213.084,2653.216,212.827,2653.216Zm-29.375-20.446.205.132c.209.134,20.989,13.418,27.973,17.658a3.173,3.173,0,0,1,1.437,1.483,11.068,11.068,0,0,0,1.047-.837l.118-.078,5.21-2.478-.014-2.532-5.73,2.721.495,1.081-1.411-.875-28.928-18.27-4.971,1.617-3.186,4.543a3.358,3.358,0,0,1-2.8,1.493,4.32,4.32,0,0,1-2.1-.587,4.27,4.27,0,0,1-1.691-2.407,3.327,3.327,0,0,1,.492-2.523l3.568-5.6a13.984,13.984,0,0,1,12.17-7.579,11.045,11.045,0,0,1,2.5.254l18.887,2.2,12.508-3.756v-1.667l-12.7,3.6-.1-.011-18.268-2.13a13.972,13.972,0,0,0-2.868-.277,15.692,15.692,0,0,0-13.84,8.46l-3.521,5.52a5.527,5.527,0,0,0-.816,4.252,5.648,5.648,0,0,0,10.174,2.066l.064-.116,2.729-4.176Z" fill="#121766"/><path d="M187.79,2663.188a6.405,6.405,0,0,0-2.754-4.077,6.284,6.284,0,0,0-3.206-1.054,6.4,6.4,0,0,0-2.679-3.744h-.022a6.387,6.387,0,0,0-3.539-1.065,5.856,5.856,0,0,0-.754.043,6.321,6.321,0,0,0-2.3-2.689,6.456,6.456,0,0,0-3.55-1.077,6.711,6.711,0,0,0-1.743.237,6.3,6.3,0,0,0-1.871-1.9,6.4,6.4,0,0,0-3.55-1.065,5.259,5.259,0,0,0-4.724,2.744l-1.452,2.195a5.657,5.657,0,0,0-1.108,4.486,4.886,4.886,0,0,0,2.486,3.485,6.7,6.7,0,0,0,4.163.646,4.117,4.117,0,0,0,2.27,4.077,5.786,5.786,0,0,0,4.679.419,4.69,4.69,0,0,0,2.3,3.809,6.167,6.167,0,0,0,5.153.269,3.921,3.921,0,0,0,1.474,2.614,6.137,6.137,0,0,0,3.98,1.054,4.827,4.827,0,0,0,4.249-2.538l.044-.044,1.474-2.3a5.7,5.7,0,0,0,1.011-4.508Zm-24.453-9.52-1.356,2.183a3.156,3.156,0,0,1-2.205,1.485,2.045,2.045,0,0,1-1.345-.291,2.721,2.721,0,0,1-.387-3.754l1.355-2.184a3.16,3.16,0,0,1,2.206-1.484,1.989,1.989,0,0,1,1.344.3,2.125,2.125,0,0,1,.926,1.625A3.329,3.329,0,0,1,163.337,2653.668Zm5.755,6.476a4.152,4.152,0,0,1-2.721,1.947,2.279,2.279,0,0,1-1.614-.312c-1.28-.839-1.431-2.926-.312-4.669l1.732-2.776a4.156,4.156,0,0,1,2.722-1.947,2.218,2.218,0,0,1,1.613.312,2.492,2.492,0,0,1,1.055,1.99,4.429,4.429,0,0,1-.743,2.668l-1.732,2.786Zm7.4,4.217a4.171,4.171,0,0,1-2.679,2.044,2.337,2.337,0,0,1-1.635-.258c-1.323-.8-1.539-2.893-.474-4.679l1.646-2.841a4.173,4.173,0,0,1,2.679-2.044,2.289,2.289,0,0,1,1.635.269,2.5,2.5,0,0,1,1.129,1.968,4.484,4.484,0,0,1-.656,2.711l-1.645,2.851Zm7.961,1.571-1.345,2.324a3.3,3.3,0,0,1-2.238,1.635,1.973,1.973,0,0,1-1.387-.247c-1.141-.689-1.355-2.432-.495-3.884l1.345-2.324a3.3,3.3,0,0,1,2.238-1.635,1.966,1.966,0,0,1,1.387.247,2.153,2.153,0,0,1,.99,1.646,3.492,3.492,0,0,1-.506,2.227Z" fill="#121766"/><path d="M180.539,2673.119a6.684,6.684,0,0,1-3.785-1.19,4.519,4.519,0,0,1-1.556-2.365,6.266,6.266,0,0,1-5.007-.475,5.136,5.136,0,0,1-2.491-3.618,5.936,5.936,0,0,1-4.5-.615,4.587,4.587,0,0,1-2.513-3.943,6.885,6.885,0,0,1-3.943-.794,5.385,5.385,0,0,1-2.7-3.8,6.068,6.068,0,0,1,1.182-4.863l1.452-2.194a5.764,5.764,0,0,1,5.139-2.968,6.9,6.9,0,0,1,3.827,1.148,6.791,6.791,0,0,1,1.817,1.753,6.934,6.934,0,0,1,5.346.99,6.819,6.819,0,0,1,2.325,2.577,7.065,7.065,0,0,1,4.143,1.052h0l.148.083a6.924,6.924,0,0,1,2.787,3.688,6.766,6.766,0,0,1,3.1,1.113,6.883,6.883,0,0,1,2.9,4.1l.04.014.058.283a6.156,6.156,0,0,1-1.084,4.881l-1.539,2.383a5.293,5.293,0,0,1-4.586,2.724A4.472,4.472,0,0,1,180.539,2673.119Zm-4.506-4.814.055.569a3.4,3.4,0,0,0,1.283,2.268,5.629,5.629,0,0,0,3.613.953,4.352,4.352,0,0,0,3.894-2.32l.067-.081,1.445-2.257a5.2,5.2,0,0,0,.985-3.906l-.075-.243a5.9,5.9,0,0,0-2.539-3.759,5.792,5.792,0,0,0-2.954-.973l-.369-.017-.092-.357a5.912,5.912,0,0,0-2.362-3.378l-.13-.074a5.892,5.892,0,0,0-3.954-.943l-.366.048-.153-.337a5.829,5.829,0,0,0-2.12-2.477,5.965,5.965,0,0,0-4.89-.777l-.356.1-.2-.313a5.77,5.77,0,0,0-1.723-1.753,5.9,5.9,0,0,0-3.275-.982,4.743,4.743,0,0,0-4.306,2.521l-1.451,2.193a5.1,5.1,0,0,0-1.036,4.112,4.386,4.386,0,0,0,2.272,3.167,6.3,6.3,0,0,0,3.8.571l.609-.109-.022.619A3.639,3.639,0,0,0,163.71,2664a5.12,5.12,0,0,0,4.118.413,2.04,2.04,0,0,1,.242-.059l.543-.07.022.547a4.145,4.145,0,0,0,2.047,3.391,5.481,5.481,0,0,0,4.521.3c.118-.037.21-.065.273-.081Zm4.456,2.12a2.384,2.384,0,0,1-1.267-.356c-1.365-.825-1.663-2.873-.661-4.564l1.341-2.319a3.811,3.811,0,0,1,2.593-1.879,2.458,2.458,0,0,1,1.729.316,2.638,2.638,0,0,1,1.222,2.012,3.9,3.9,0,0,1-.384,2.2l.007.008-.181.343-1.345,2.324a3.814,3.814,0,0,1-2.592,1.879A2.8,2.8,0,0,1,180.489,2670.425Zm2.462-8.157a1.758,1.758,0,0,0-.293.026,2.8,2.8,0,0,0-1.892,1.4l-1.343,2.32c-.726,1.225-.58,2.661.321,3.206a1.455,1.455,0,0,0,1.043.182,2.806,2.806,0,0,0,1.893-1.4l1.15-1.988-.016-.016.2-.335a2.98,2.98,0,0,0,.438-1.9,1.666,1.666,0,0,0-.754-1.283A1.4,1.4,0,0,0,182.951,2662.268Zm-9.625,4.682a2.73,2.73,0,0,1-1.4-.372c-1.563-.941-1.852-3.347-.649-5.367l1.643-2.835a4.681,4.681,0,0,1,3.02-2.284,2.8,2.8,0,0,1,1.989.334,2.984,2.984,0,0,1,1.365,2.346,4.983,4.983,0,0,1-.725,3.016l-2.574,4.46v-.466a4.237,4.237,0,0,1-2.087,1.115A3.33,3.33,0,0,1,173.326,2666.95Zm3.195-9.912a2.281,2.281,0,0,0-.4.038,3.665,3.665,0,0,0-2.338,1.806l-1.642,2.836c-.926,1.553-.79,3.346.3,4a1.849,1.849,0,0,0,1.289.2,3.674,3.674,0,0,0,2.337-1.807l1.643-2.824a3.994,3.994,0,0,0,.59-2.413,2.008,2.008,0,0,0-.891-1.59A1.658,1.658,0,0,0,176.521,2657.038Zm-10.563,5.586a2.69,2.69,0,0,1-1.472-.425c-1.515-.993-1.721-3.4-.462-5.36l1.729-2.769a4.655,4.655,0,0,1,3.067-2.177,2.708,2.708,0,0,1,1.97.39,3,3,0,0,1,1.275,2.37,4.915,4.915,0,0,1-.82,2.973l-1.73,2.786a4.659,4.659,0,0,1-3.066,2.173A3.043,3.043,0,0,1,165.958,2662.624Zm3.363-9.772a2.274,2.274,0,0,0-.342.028,3.653,3.653,0,0,0-2.38,1.723l-1.73,2.771c-.968,1.509-.893,3.294.162,3.987a1.762,1.762,0,0,0,1.261.236,3.652,3.652,0,0,0,2.378-1.72l1.729-2.784a3.92,3.92,0,0,0,.668-2.368,1.991,1.991,0,0,0-.829-1.608A1.62,1.62,0,0,0,169.321,2652.852Zm-9.808,5a2.482,2.482,0,0,1-1.351-.384,3.219,3.219,0,0,1-.54-4.443l1.353-2.18a3.679,3.679,0,0,1,2.573-1.718,2.529,2.529,0,0,1,1.68.383,2.637,2.637,0,0,1,1.145,1.994,3.83,3.83,0,0,1-.613,2.432l-1.354,2.181a3.671,3.671,0,0,1-2.573,1.717A2.91,2.91,0,0,1,159.513,2657.85Zm2.353-7.742c-.067,0-.137,0-.208.011a2.673,2.673,0,0,0-1.84,1.26l-1.349,2.176a2.238,2.238,0,0,0,.236,3.071,1.516,1.516,0,0,0,1.017.212,2.662,2.662,0,0,0,1.841-1.26l1.353-2.18a2.832,2.832,0,0,0,.462-1.8,1.626,1.626,0,0,0-.7-1.257A1.424,1.424,0,0,0,161.866,2650.108Z" fill="#121766"/></g></g></svg>