<svg xmlns="http://www.w3.org/2000/svg" width="67" height="67" viewBox="0 0 67 67"><g transform="translate(-5782 -27)"><circle cx="33.5" cy="33.5" r="33.5" transform="translate(5782 27)" fill="#121766"/><path d="M445,1769.535l2.747.238,4.718-8.171-2.747-.238L445,1769.536Zm34.656,2.255-.974.562a22.151,22.151,0,0,1-6.387,7.986,48.982,48.982,0,0,1-10.522,5.718,2.972,2.972,0,0,1-3.946-2.739,2.878,2.878,0,0,1-1.474-3.175,22.3,22.3,0,0,1-6.127-7.79l-.974-.563a1.172,1.172,0,0,1-.968.38l-5.314-.461v0a1.168,1.168,0,0,1-.909-1.748l5.968-10.338a1.169,1.169,0,0,1,1.151-.652l5.315.461v0a1.168,1.168,0,0,1,.861,1.833,24.213,24.213,0,0,0,3.079.767c.17-.883.744-2.506,1.991-2.082v0l7.645,2.608c.756-.19,1.532-.348,2.292-.5a24.74,24.74,0,0,0,3.187-.789,1.168,1.168,0,0,1,.861-1.833v0l5.314-.461a1.167,1.167,0,0,1,1.151.652l5.968,10.338a1.168,1.168,0,0,1-.909,1.748v0l-5.314.461a1.168,1.168,0,0,1-.967-.38Zm-25.486-8.471-3.733,6.464c.678.391,1.548.751,1.777,1.3h0a19.155,19.155,0,0,0,1.9,3.319,2.851,2.851,0,0,1,.659-2.186l0,0a41.392,41.392,0,0,1,5.938-5.844,5.091,5.091,0,0,1-1.917-1.885,30.118,30.118,0,0,1-4.626-1.167Zm6.563-.247c.306.839.948,1.15,1.761,1.683a5.668,5.668,0,0,1,1.194.864,1.169,1.169,0,0,1-.27,1.632,38.842,38.842,0,0,0-6.779,6.373l0,0c-.325.433,0,.876.321,1.17l3.839-2a1.168,1.168,0,0,1,1.17,2.021,41.643,41.643,0,0,1-4.286,2.208,1.165,1.165,0,0,0,.44,1.17,52.206,52.206,0,0,0,6.568-3.666,1.166,1.166,0,0,1,1.271,1.956c-1.429.925-2.857,1.768-4.121,2.458a33.173,33.173,0,0,1-3.128,1.533.537.537,0,0,0,.216.787,55.151,55.151,0,0,0,9.581-5.672,1.167,1.167,0,0,1,1.391,1.874,58.794,58.794,0,0,1-9.727,5.8c.078.342.338.777.787.61a46.55,46.55,0,0,0,9.946-5.408,19.587,19.587,0,0,0,5.785-7.378h0c.229-.552,1.1-.911,1.777-1.3l-3.732-6.464c-2.236.864-4.426.985-6.335,1.561l-.829-.027-6.855-2.338.014.557Zm20.428,6.7,2.746-.237-4.718-8.172-2.746.238,4.718,8.171Z" transform="translate(5351.101 -1707.679)" fill="#fff"/></g></svg>