<svg xmlns="http://www.w3.org/2000/svg" xmlns:xlink="http://www.w3.org/1999/xlink" width="140" height="140" viewBox="0 0 140 140"><defs><clipPath id="b"><rect width="140" height="140"/></clipPath></defs><g id="a" clip-path="url(#b)"><path d="M1005.1,2629.832a7.76,7.76,0,1,1-5.476,13.246l-.01-.01a7.731,7.731,0,0,1,0-10.952l0,0,0-.006A7.738,7.738,0,0,1,1005.1,2629.832Zm38.509,10.778a2.418,2.418,0,1,1-3.125-3.691l6.41-5.408a2.42,2.42,0,0,1,3.15.022l6.381,5.387a2.418,2.418,0,0,1-3.126,3.691l-2.229-1.883a45.952,45.952,0,1,1-3.671-19.185,2.417,2.417,0,0,1-4.447,1.893,41.2,41.2,0,1,0,3.279,16.958l-2.621,2.211Zm-13.147,8.234a28.575,28.575,0,0,1-2.948,1.711,39.023,39.023,0,0,1-6.817,2.64,39.26,39.26,0,0,1-2.639,6.819,28.923,28.923,0,0,1-1.712,2.948,27.842,27.842,0,0,0,14.116-14.116Zm-15.259,5.606a60.851,60.851,0,0,1-20.208,0,31.65,31.65,0,0,0,1.462,3.386c2.347,4.635,5.412,7.5,8.643,7.5s6.294-2.865,8.642-7.5a32.3,32.3,0,0,0,1.465-3.386Zm-25.7-1.255a39.251,39.251,0,0,1-6.817-2.64,29.214,29.214,0,0,1-2.948-1.711,27.845,27.845,0,0,0,14.116,14.115,28.367,28.367,0,0,1-1.712-2.948,39.588,39.588,0,0,1-2.64-6.815Zm-9.765-26.848a28.564,28.564,0,0,1,2.948-1.712A39.016,39.016,0,0,1,989.5,2622a39.251,39.251,0,0,1,2.639-6.817,28.976,28.976,0,0,1,1.712-2.948,27.841,27.841,0,0,0-14.116,14.116Zm15.259-5.606a60.851,60.851,0,0,1,20.208,0,30.9,30.9,0,0,0-1.465-3.385c-2.347-4.635-5.412-7.5-8.643-7.5s-6.295,2.865-8.643,7.5a31.72,31.72,0,0,0-1.461,3.385Zm25.7,1.255a38.985,38.985,0,0,1,6.817,2.639,29.041,29.041,0,0,1,2.948,1.712,27.851,27.851,0,0,0-14.116-14.116,28.516,28.516,0,0,1,1.712,2.948,39.084,39.084,0,0,1,2.64,6.82Zm4.642,24.238c4.634-2.347,7.5-5.413,7.5-8.643s-2.865-6.3-7.5-8.644a31.991,31.991,0,0,0-3.387-1.464,60.773,60.773,0,0,1,0,20.208,30.916,30.916,0,0,0,3.387-1.465Zm-8.615-20.268a55.707,55.707,0,0,0-23.251,0,55.766,55.766,0,0,0,0,23.251,55.761,55.761,0,0,0,23.251,0,55.717,55.717,0,0,0,0-23.251Zm-28.479,1.518a30.775,30.775,0,0,0-3.387,1.464c-4.634,2.348-7.5,5.413-7.5,8.643s2.864,6.3,7.5,8.643a31.728,31.728,0,0,0,3.387,1.464,60.61,60.61,0,0,1,0-20.207ZM1005.1,2605a32.587,32.587,0,1,1-23.042,9.544A32.477,32.477,0,0,1,1005.1,2605m2.058,30.526a2.908,2.908,0,0,0-4.117,0l-.006-.006a2.915,2.915,0,1,0,4.978,2.064A2.886,2.886,0,0,0,1007.157,2635.529Z" transform="translate(-938.113 -2567.606)" fill="#121766"/></g></svg>