<svg xmlns="http://www.w3.org/2000/svg" width="67" height="67" viewBox="0 0 67 67"><g transform="translate(-5972 -30)"><g transform="translate(5539.5 -1995.679)"><circle cx="33.5" cy="33.5" r="33.5" transform="translate(432.5 2025.679)" fill="#121766"/><path d="M459.876,2069.988a.829.829,0,0,1-.219-.545,1.143,1.143,0,0,1,.218-.6.819.819,0,0,1,.6-.218h10.419a1.145,1.145,0,0,1,.6.218.822.822,0,0,1,.218.6,1.155,1.155,0,0,1-.218.6.823.823,0,0,1-.6.218H460.475a.871.871,0,0,1-.6-.273Zm20.563-25.091a1.954,1.954,0,0,0-1.963-1.963H452.894a1.955,1.955,0,0,0-1.964,1.963v14.237a1.956,1.956,0,0,0,1.964,1.963h25.582a1.955,1.955,0,0,0,1.963-1.963Zm-27.654-.109H478.53v14.4H452.785Zm30.654,29.891a4.031,4.031,0,0,0,3.491-1.964,3.825,3.825,0,0,0-.109-4.09l-2.509-4.855v-19.909a5.133,5.133,0,0,0-5.127-5.182H452.076a3.4,3.4,0,0,0-1.037.164.416.416,0,0,0-.218.054,4.705,4.705,0,0,0-1.746.818A4.812,4.812,0,0,0,447,2043.86v19.91l-2.51,4.909a3.889,3.889,0,0,0,3.273,5.945H483.44Zm-37.254-4.964,2.727-5.454v-20.728a3.088,3.088,0,0,1,1.854-2.618,2.632,2.632,0,0,1,1.31-.382h27.163a3.271,3.271,0,0,1,3.218,3.273v19.309h-30.6a.929.929,0,1,0,0,1.855H482.84l2.345,4.582.054.109a1.9,1.9,0,0,1,.055,2.073,2.108,2.108,0,0,1-1.8.981H447.767a1.976,1.976,0,0,1-1.69-1.037,1.836,1.836,0,0,1,.108-1.963Z" fill="#fff"/></g></g></svg>