<svg xmlns="http://www.w3.org/2000/svg" width="67" height="67" viewBox="0 0 67 67"><g transform="translate(-6067 -30)"><g transform="translate(5143 -1995.679)"><circle cx="33.5" cy="33.5" r="33.5" transform="translate(924 2025.679)" fill="#121766"/><path d="M958.113,2046.474a11.106,11.106,0,0,0-10.5,10.389,10.94,10.94,0,0,0,2.925,8.113,8.552,8.552,0,0,1,1.654,2.548,7.434,7.434,0,0,1,.564,2.283h-.622a.651.651,0,0,0-.649.649v2.594a.651.651,0,0,0,.649.648h.648v1.945a.651.651,0,0,0,.649.649h1.3a3.891,3.891,0,1,0,7.782,0h1.3a.651.651,0,0,0,.648-.649V2073.7h.649a.65.65,0,0,0,.648-.648v-2.594a.651.651,0,0,0-.648-.649h-.617a7.648,7.648,0,0,1,2.108-4.7,11.026,11.026,0,0,0-8.482-18.631Zm.505,32.412a2.593,2.593,0,0,1-2.593-2.594h5.188a2.594,2.594,0,0,1-2.6,2.594m4.54-3.891h-9.079v-1.3h9.079Zm1.3-2.594H952.782v-1.3h11.673Zm-7.782-11.025H955.7a.973.973,0,1,1,.973-.972Zm1.3,1.3h1.3v7.133h-1.3Zm2.594-1.3v-.972a.972.972,0,1,1,.973.972Zm5.091,2.835a8.933,8.933,0,0,0-2.471,5.6h-2.62v-7.133h.972a2.27,2.27,0,1,0-2.269-2.27v.972h-1.3v-.972a2.27,2.27,0,1,0-2.27,2.269h.973v7.133h-2.614a8.869,8.869,0,0,0-.674-2.782,9.862,9.862,0,0,0-1.9-2.931,9.684,9.684,0,0,1-2.581-7.153,9.808,9.808,0,0,1,9.267-9.17,9.731,9.731,0,0,1,7.484,16.439Z" fill="#fff"/><path d="M958.619,2043.219a.651.651,0,0,0,.648-.649v-3.242a.649.649,0,1,0-1.3,0v3.242a.651.651,0,0,0,.649.649" fill="#fff"/><path d="M950.6,2044.892a.651.651,0,1,0,1.128-.649l-1.621-2.808a.651.651,0,1,0-1.129.649Z" fill="#fff"/><path d="M946.024,2049.47l-2.808-1.621a.65.65,0,0,0-.648,1.128l2.808,1.622a.66.66,0,0,0,.324.084.649.649,0,0,0,.324-1.213" fill="#fff"/><path d="M943.7,2056.837h-3.242a.649.649,0,1,0,0,1.3H943.7a.649.649,0,0,0,0-1.3Z" fill="#fff"/><path d="M976.776,2056.837h-3.242a.649.649,0,1,0,0,1.3h3.242a.649.649,0,1,0,0-1.3" fill="#fff"/><path d="M974.909,2048.083a.654.654,0,0,0-.888-.24l-2.808,1.621a.651.651,0,0,0,.648,1.129l2.808-1.622a.654.654,0,0,0,.24-.888" fill="#fff"/><path d="M965.752,2045.132a.658.658,0,0,0,.889-.24l1.621-2.808a.651.651,0,1,0-1.129-.649l-1.621,2.808a.656.656,0,0,0,.24.889" fill="#fff"/></g></g></svg>