<svg xmlns="http://www.w3.org/2000/svg" xmlns:xlink="http://www.w3.org/1999/xlink" width="100" height="100" viewBox="0 0 100 100"><defs><clipPath id="b"><rect width="100" height="100"/></clipPath></defs><g id="a" clip-path="url(#b)"><g transform="translate(-844.454 -942.105)"><path d="M895.084,1033.433c.195,0,.388.1.582.1a1.232,1.232,0,0,0,.581-.1c.387-.1,9.891-2.618,19.3-12.7,8.63-9.116,18.909-26.473,18.909-57.5a2.4,2.4,0,0,0-2.424-2.424,70.57,70.57,0,0,1-35.006-9.309l-.1-.1a2.67,2.67,0,0,0-2.424,0l-.1.1A70.579,70.579,0,0,1,859.4,960.8h-2.522a2.4,2.4,0,0,0-2.424,2.424c0,31.03,10.958,48.485,20.073,57.6,10.085,9.988,20.17,12.509,20.558,12.606Zm.582-77.091a75.384,75.384,0,0,0,33.939,9.309c-.387,22.012-6.4,39.855-17.261,51.588-7.272,7.758-14.545,10.667-16.678,11.346-4.752-1.455-35.394-12.994-36.364-62.933a75.693,75.693,0,0,0,36.364-9.309Z" transform="translate(0 0)" fill="#fff"/><path d="M906.95,1029.658a2.488,2.488,0,0,0,1.745-.679l24.243-24.243a2.343,2.343,0,0,0,0-3.394l-7.273-7.369a2.342,2.342,0,0,0-3.394,0L906.95,1009.2l-5.528-5.528a2.342,2.342,0,0,0-3.394,0l-7.273,7.273a2.343,2.343,0,0,0,0,3.394l14.545,14.545a2.223,2.223,0,0,0,1.649.776Zm-7.272-20.849,5.527,5.528a2.344,2.344,0,0,0,3.394,0l15.225-15.225,3.878,3.878-20.752,20.752L895.8,1012.688Z" transform="translate(-16.132 -19.11)" fill="#fff"/></g></g></svg>