<svg xmlns="http://www.w3.org/2000/svg" width="67" height="67" viewBox="0 0 67 67"><g transform="translate(-5877 -27)"><g transform="translate(4953 -1707.679)"><circle cx="33.5" cy="33.5" r="33.5" transform="translate(924 1734.679)" fill="#121766"/><path d="M957.931,1773.688a5.5,5.5,0,1,1,5.5-5.5A5.481,5.481,0,0,1,957.931,1773.688Zm0-9.478a3.975,3.975,0,1,0,3.974,3.975,3.948,3.948,0,0,0-3.974-3.975Z" fill="#fff"/><path d="M960.224,1783.472h-4.586l-.765-4.968a14.234,14.234,0,0,1-1.91-.765l-4.051,2.981-3.21-3.21,2.9-3.974a8.471,8.471,0,0,1-.917-2.064l-4.739-.688V1766.2l4.663-.688a14.29,14.29,0,0,1,.917-2.293l-2.752-3.745,3.21-3.21,3.593,2.675a9.645,9.645,0,0,1,2.446-.994l.611-4.433h4.586l.611,4.433a13.717,13.717,0,0,1,2.446.994l3.593-2.675,3.21,3.21-2.752,3.745a14.368,14.368,0,0,1,.917,2.293l4.663.688v4.586l-4.815.688a12.258,12.258,0,0,1-.917,2.064l2.9,3.974-3.21,3.21-3.975-3.057a8.311,8.311,0,0,1-1.91.764Zm-3.21-1.529h1.911l.688-4.662.535-.154a15.546,15.546,0,0,0,2.369-.993l.458-.229,3.746,2.828,1.375-1.376-2.751-3.745.306-.458a7.965,7.965,0,0,0,1.146-2.6l.153-.459,4.509-.688V1767.5l-4.356-.611-.076-.535a9.809,9.809,0,0,0-1.07-2.828l-.459-.382,2.6-3.44-1.376-1.375-3.363,2.522-.459-.306a8.122,8.122,0,0,0-2.9-1.223l-.535-.076-.612-4.128h-1.91l-.536,4.128-.535.076a9.757,9.757,0,0,0-2.9,1.223l-.459.306-3.363-2.523-1.376,1.376,2.6,3.439-.23.459a8,8,0,0,0-1.07,2.828l-.076.535-4.356.612v1.91l4.509.688.153.459a8.742,8.742,0,0,0,1.147,2.6l.3.459-2.751,3.745,1.376,1.375,3.745-2.828.229.153a9.646,9.646,0,0,0,2.446.994l.535.153Z" fill="#fff"/><path d="M957.931,1793.56a25.023,25.023,0,0,1-24.152-18.573.75.75,0,1,1,1.451-.382,23.522,23.522,0,0,0,46.241-6.114.764.764,0,1,1,1.529,0,25.084,25.084,0,0,1-25.07,25.069Z" fill="#fff"/><path d="M933.7,1769.255a.722.722,0,0,1-.764-.765,25.045,25.045,0,0,1,48.534-8.713.774.774,0,1,1-1.453.535,23.5,23.5,0,0,0-45.552,8.178.766.766,0,0,1-.765.764Z" fill="#fff"/><path d="M932.938,1779.955h-.229a.831.831,0,0,1-.535-.917l1.146-3.974a1.514,1.514,0,0,1,1.07-1.07,1.346,1.346,0,0,1,1.452.458l2.828,2.981a.757.757,0,0,1-1.07,1.07l-2.828-2.981-1.146,3.975a.773.773,0,0,1-.688.458Z" fill="#fff"/><path d="M980.861,1761.536a1.151,1.151,0,0,1-.841-.306l-3.363-2.293a.774.774,0,0,1,.841-1.3l3.363,2.294.3-4.128a.768.768,0,1,1,1.529.153l-.306,4.127a1.593,1.593,0,0,1-.841,1.223,1.23,1.23,0,0,1-.687.23Z" fill="#fff"/></g></g></svg>