<svg xmlns="http://www.w3.org/2000/svg" xmlns:xlink="http://www.w3.org/1999/xlink" width="237" height="148" viewBox="0 0 237 148"><defs><clipPath id="b"><rect width="237" height="148"/></clipPath></defs><g id="a" clip-path="url(#b)"><g transform="translate(-202.096 -78.226)"><path d="M378.05,153.3c.033,1.018-.028,2.062-.023,3.083v10.257h-3.564v-12.1a5.661,5.661,0,0,0-1.245-3.768,4.281,4.281,0,0,0-3.478-1.492h-5.7v17.356h-3.565v-20.7h10.077a6.967,6.967,0,0,1,6.309,3.5A8.75,8.75,0,0,1,378.05,153.3Z" fill="#18324a"/><path d="M318.168,154.463v12.3H314.6V154.669a5.677,5.677,0,0,0-1.242-3.768,4.276,4.276,0,0,0-3.48-1.492H304.83V166.76h-3.565v-20.7h9.4a7.249,7.249,0,0,1,3.605.868,7.123,7.123,0,0,1,2.564,2.4,7.157,7.157,0,0,1,1.574-1.742,7.463,7.463,0,0,1,1.822-1.074,10.763,10.763,0,0,1,1.864-.581,8.78,8.78,0,0,1,1.742-.165,8,8,0,0,1,3.235.626,7.306,7.306,0,0,1,2.444,1.655,7.424,7.424,0,0,1,1.528,2.61,10.258,10.258,0,0,1,.537,3.48V166.76h-3.544V154.422a6.158,6.158,0,0,0-1.326-3.771,4.278,4.278,0,0,0-3.478-1.489A4.785,4.785,0,0,0,320,150.28a4.866,4.866,0,0,0-1.583,2.291A7.892,7.892,0,0,0,318.168,154.463Z" fill="#18324a"/><path d="M349.119,166.352a10.334,10.334,0,0,1-3.606.621,10.777,10.777,0,0,1-4.223-.83,10.324,10.324,0,0,1-3.356-2.235,10.128,10.128,0,0,1-2.238-3.4,11.755,11.755,0,0,1,0-8.45,10.113,10.113,0,0,1,2.238-3.4,10.371,10.371,0,0,1,3.355-2.238,10.837,10.837,0,0,1,4.224-.828,10.283,10.283,0,0,1,3.605.622A9.094,9.094,0,0,1,352.1,148v-2.073h3.565v20.711H352.1V164.57A9.113,9.113,0,0,1,349.119,166.352Zm-10.48-10.066a8.312,8.312,0,0,0,.5,2.815,6.64,6.64,0,0,0,6.421,4.433,7.863,7.863,0,0,0,3.892-.952,7.235,7.235,0,0,0,2.61-2.36v-7.954a7.235,7.235,0,0,0-2.61-2.36,7.853,7.853,0,0,0-3.892-.952,6.641,6.641,0,0,0-6.421,4.432A8.392,8.392,0,0,0,338.639,156.286Z" fill="#18324a"/><path d="M382.615,145.919v-4.461l3.564-1.782v6.207h6.256l-.789,3.231h-5.469v10.947a3.9,3.9,0,0,0,.662,2.444,2.87,2.87,0,0,0,2.4.868h2.775V166.6h-3.146a6.534,6.534,0,0,1-4.6-1.489,5.807,5.807,0,0,1-1.617-4.476V149.162Z" fill="#18324a"/><path d="M297.487,155.83c-.041-6.548-4.379-10.273-9.74-10.273A10.37,10.37,0,0,0,277.105,156.2a10.789,10.789,0,0,0,19.809,5.769l-2.782-1.922a7.245,7.245,0,0,1-13.466-3.147h16.78A9.776,9.776,0,0,0,297.487,155.83Zm-16.548-1.8c.035-.183.076-.367.117-.54h0a6.725,6.725,0,0,1,6.581-4.822,6.122,6.122,0,0,1,6.26,5.362Z" fill="#18324a"/><path d="M273.423,146.1a14.44,14.44,0,0,0-8.147-7.745,17.189,17.189,0,0,0-6.309-1.125H248.954l-.858,3.526h10.871a12.923,12.923,0,0,1,4.838.871,11.49,11.49,0,0,1,3.727,2.36,10.648,10.648,0,0,1,2.4,3.564,11.934,11.934,0,0,1,0,8.946,10.663,10.663,0,0,1-2.4,3.565,11.48,11.48,0,0,1-3.727,2.36,12.942,12.942,0,0,1-4.838.87l-3.248-.079V143.266H252.17v23.376h6.874a16.964,16.964,0,0,0,6.255-1.12,14.438,14.438,0,0,0,8.165-7.745,15.024,15.024,0,0,0-.041-11.68Z" fill="#18324a"/></g></g></svg>