<svg xmlns="http://www.w3.org/2000/svg" xmlns:xlink="http://www.w3.org/1999/xlink" width="237" height="148" viewBox="0 0 237 148"><defs><clipPath id="b"><rect width="237" height="148"/></clipPath></defs><g id="a" clip-path="url(#b)"><rect width="237" height="148" fill="#fff"/><g transform="translate(-20.372 -150.025)"><path d="M85.132,209.387a14.865,14.865,0,1,1-14.866,14.865,14.865,14.865,0,0,1,14.866-14.865Zm0,1.416a13.45,13.45,0,1,0,13.45,13.45A13.45,13.45,0,0,0,85.132,210.8Z" fill="#d90016" fill-rule="evenodd"/><path d="M105.853,256.593v4.556H104.4v-4.556c-.7,0-1.606,0-1.951-.015l-4.836.012A2.2,2.2,0,0,1,95.3,254.3a1.8,1.8,0,0,1,.028-.3,8.689,8.689,0,0,1,2.955-5.109,2.509,2.509,0,0,1,1.866-.446,2.376,2.376,0,0,1,1.179-1.429,1.8,1.8,0,0,1,.29-.134,10.346,10.346,0,0,1,7.029.006,2.689,2.689,0,0,1,1.435,1.539,2.132,2.132,0,0,1,1.773.381,9.418,9.418,0,0,1,2.037,2.386A8.638,8.638,0,0,1,114.919,254a1.8,1.8,0,0,1,.028.3,2.2,2.2,0,0,1-2.308,2.287l-4.836-.012c-.344.012-1.253.015-1.949.015Zm5.148-6.6a.742.742,0,0,0-1.124.286l-2.45,4.269a.368.368,0,0,0,.339.571l4.92.012a.741.741,0,0,0,.8-.8.275.275,0,0,0,0-.072,7.23,7.23,0,0,0-2.457-4.248l-.024-.018Zm-11.756,0-.024.018a7.227,7.227,0,0,0-2.457,4.248.294.294,0,0,0,0,.072.741.741,0,0,0,.8.8l4.92-.012a.368.368,0,0,0,.339-.571l-2.45-4.269a.742.742,0,0,0-1.124-.286Zm8.937-1.717-.034-.014a8.89,8.89,0,0,0-6.035,0,.338.338,0,0,0-.079.039.912.912,0,0,0-.36,1.345l3.039,5.232a.453.453,0,0,0,.816.01l3.04-5.234a.912.912,0,0,0-.386-1.373Z" transform="translate(-19.992 -29.458)" fill="#d90016" fill-rule="evenodd"/><path d="M260.307,244.551l3.63,7.433,3.63-7.433h5.489v14.866h-5.489v-7.433l-3.63,7.433-3.63-7.433v7.433h-5.489V244.551Z" transform="translate(-147.387 -28.083)" fill="#d90016" fill-rule="evenodd"/><path d="M363.254,246.777l-2.229,7.76h4.458l-2.229-7.76Zm-9.119,12.64,4.27-14.866h9.7l4.269,14.866h-5.489l-.7-2.44h-5.859l-.7,2.44Z" transform="translate(-226.704 -28.083)" fill="#d90016" fill-rule="evenodd"/><path d="M460.168,246.287c1.237,0,2.44.662,2.44,2.009a2.419,2.419,0,0,1-2.44,2.439h-1.191v-4.448Zm3.5-1.7H453.4v14.859h5.488v-6.192h4.785a4.334,4.334,0,0,0,0-8.667Z" transform="translate(-305.976 -28.11)" fill="#d90016" fill-rule="evenodd"/><path d="M535.383,244.551h14.594v2.44h-9.105v3.78h9.105v2.44h-9.105v6.206h-5.489Z" transform="translate(-371.453 -28.083)" fill="#d90016" fill-rule="evenodd"/><path d="M705.637,256.976h9.106v2.44h-14.6V244.549h14.6v2.44h-9.106v3.78h9.106v2.44h-9.106Z" transform="translate(-503.038 -28.081)" fill="#d90016" fill-rule="evenodd"/><path d="M624.159,246.281a2.181,2.181,0,0,1,2.44,2.009,2.439,2.439,0,0,1-2.44,2.439h-1.19v-4.447Zm7.834,9.317v.122c0-.041,0-.081,0-.122Zm0,.122c0-.041,0-.081,0-.122A3.717,3.717,0,0,0,628.279,252a3.715,3.715,0,0,0,0-7.431h-10.89v14.861h5.581v-6.154h1.19a2.44,2.44,0,0,1,2.44,2.439c0,.04,0,.08,0,.12v3.6h5.4Z" transform="translate(-436.945 -28.101)" fill="#d90016" fill-rule="evenodd"/></g></g></svg>