<svg xmlns="http://www.w3.org/2000/svg" xmlns:xlink="http://www.w3.org/1999/xlink" width="237" height="148" viewBox="0 0 237 148"><defs><clipPath id="a"><path d="M8.685,20.038H174.325V-24.13H8.685Z" transform="translate(-8.685 24.13)"/></clipPath><clipPath id="c"><rect width="237" height="148"/></clipPath></defs><g id="b" clip-path="url(#c)"><rect width="237" height="148" fill="#fff"/><g transform="translate(38 52.085)"><g transform="translate(0 0)" clip-path="url(#a)"><g transform="translate(54.511 11.77)"><path d="M59.768,8.17a2.3,2.3,0,0,1,.193-.9,2.709,2.709,0,0,1,.562-.842,2.927,2.927,0,0,1,.932-.636,3.143,3.143,0,0,1,1.3-.252,2.953,2.953,0,0,1,1.271.252,2.847,2.847,0,0,1,.887.636,2.648,2.648,0,0,1,.531.842,2.471,2.471,0,0,1,.177.9Zm7.836,4.2a9.312,9.312,0,0,1-1.508.843A6.359,6.359,0,0,1,63.4,13.7a3.875,3.875,0,0,1-2.646-.843,2.645,2.645,0,0,1-.991-1.966h9.874v-.709A11,11,0,0,0,69.2,6.973a7.1,7.1,0,0,0-1.315-2.514,6.089,6.089,0,0,0-2.144-1.64,6.932,6.932,0,0,0-2.956-.591,7.2,7.2,0,0,0-3.016.606,6.846,6.846,0,0,0-2.247,1.61,6.993,6.993,0,0,0-1.4,2.351,8.146,8.146,0,0,0-.488,2.793,8.544,8.544,0,0,0,.517,3.031,6.432,6.432,0,0,0,1.508,2.35,6.934,6.934,0,0,0,2.409,1.523,8.829,8.829,0,0,0,3.193.547,10.094,10.094,0,0,0,2.364-.252,11.279,11.279,0,0,0,1.79-.576,6.528,6.528,0,0,0,1.226-.665c.317-.227.553-.389.71-.488Zm-47.123.5a5.571,5.571,0,0,1-.886.517,2.631,2.631,0,0,1-1.123.222,1.448,1.448,0,0,1-1.256-.548,2.593,2.593,0,0,1-.4-1.551V6.041h3.578V2.7H16.815V-1.015H12.559V2.7H10.364V6.041h2.195v5.233a9.783,9.783,0,0,0,.266,2.366,4.559,4.559,0,0,0,.887,1.818,4.186,4.186,0,0,0,1.625,1.182,6.364,6.364,0,0,0,2.484.429,6.891,6.891,0,0,0,4.376-1.6ZM57.338-2.236a5.57,5.57,0,0,0-2.1-1.123,8.373,8.373,0,0,0-2.278-.326,6.543,6.543,0,0,0-2.084.34A5.313,5.313,0,0,0,49.06-2.31,5.1,5.1,0,0,0,47.775-.551a6.054,6.054,0,0,0-.489,2.542V2.7H45.04V6.041h2.246V16.567h4.227V6.041H54.8V2.7H51.513V1.932a2.23,2.23,0,0,1,.533-1.6,1.865,1.865,0,0,1,1.419-.562,3.446,3.446,0,0,1,1.094.177,3.567,3.567,0,0,1,.976.5Zm-18.71,18.8h4.257V2.7H38.628Zm-14.838,0H36.761V12.915H28.255V-3.153H23.79ZM-.529,8.17a2.321,2.321,0,0,1,.192-.9,2.749,2.749,0,0,1,.562-.842,2.94,2.94,0,0,1,.932-.636,3.151,3.151,0,0,1,1.3-.252,2.946,2.946,0,0,1,1.271.252,2.834,2.834,0,0,1,.887.636,2.652,2.652,0,0,1,.532.842,2.5,2.5,0,0,1,.177.9Zm7.835,4.2a9.212,9.212,0,0,1-1.508.843,6.355,6.355,0,0,1-2.691.488,3.874,3.874,0,0,1-2.645-.843A2.641,2.641,0,0,1-.529,10.89H9.345v-.709A11.04,11.04,0,0,0,8.9,6.973,7.123,7.123,0,0,0,7.586,4.459a6.078,6.078,0,0,0-2.144-1.64,6.928,6.928,0,0,0-2.956-.591,7.2,7.2,0,0,0-3.015.606,6.834,6.834,0,0,0-2.247,1.61A6.956,6.956,0,0,0-4.18,6.8a8.119,8.119,0,0,0-.488,2.793,8.519,8.519,0,0,0,.517,3.031,6.415,6.415,0,0,0,1.507,2.35A6.945,6.945,0,0,0-.234,16.493a8.833,8.833,0,0,0,3.193.547,10.1,10.1,0,0,0,2.365-.252,11.317,11.317,0,0,0,1.79-.576,6.565,6.565,0,0,0,1.226-.665q.473-.34.71-.488Zm-34.266,4.2H-22.7l.5-12.8,4.317,7.6h2.306l4.08-7.687.562,12.891h4.464l-.917-19.72h-4.258L-16.672,6.1l-5.144-9.253h-4.228ZM40.756,1.115a2.413,2.413,0,0,1-2.4-2.4,2.413,2.413,0,0,1,2.4-2.4,2.372,2.372,0,0,1,2.4,2.4,2.413,2.413,0,0,1-2.4,2.4" transform="translate(26.961 3.685)" fill="#231f20"/></g><g transform="translate(28.266 6.964)"><path d="M0,6.671A26.363,26.363,0,0,1,5.336,22.616,26.59,26.59,0,0,1,5,26.862h9.7a1.529,1.529,0,0,0,1.526-1.531V-1.475a1.525,1.525,0,0,0-1.9-1.483A26.412,26.412,0,0,0,0,6.671" transform="translate(0 3.009)" fill="#99d538"/></g><g transform="translate(12.048 6.965)"><path d="M7.734,20.584a26.7,26.7,0,0,1-.34-4.245A26.373,26.373,0,0,1,12.729.393,26.4,26.4,0,0,0-1.584-9.235a1.524,1.524,0,0,0-1.9,1.482V19.054a1.529,1.529,0,0,0,1.527,1.53Z" transform="translate(3.489 9.285)" fill="#239de0"/></g><g transform="translate(22.93 16.644)"><path d="M3.677,0a26.522,26.522,0,0,0-5,20.191H8.673a26.59,26.59,0,0,0,.34-4.245A26.363,26.363,0,0,0,3.677,0" transform="translate(1.659)" fill="#1563a9"/></g></g></g></g></svg>