<svg xmlns="http://www.w3.org/2000/svg" xmlns:xlink="http://www.w3.org/1999/xlink" width="237" height="148" viewBox="0 0 237 148"><defs><clipPath id="b"><rect width="237" height="148"/></clipPath></defs><g id="a" clip-path="url(#b)"><rect width="237" height="148" fill="#fff"/><g transform="translate(-31.825 -59.933)"><g transform="translate(80.825 107.933)"><path d="M486.2,302.033c0-1.452.259-1.97-1.365-2.835h0l-1.123-.553v-1h11.2v1l-1.14.45h0c-1.694.691-1.694.881-1.659,2.938h0l.017,8.277-.415.4h0a45,45,0,0,1-10.627,1.745c-9.435,0-14.083-4.89-14.083-15.466,0-11.371,6.567-16.3,15.189-16.3,2.316,0,6.515,0,9.435,2.471a2.706,2.706,0,0,1,1.054,2.091,1.787,1.787,0,0,1-.276,1.106h0l-2.091,4.061h-.778a8.3,8.3,0,0,0-8.4-7.344c-7.033,0-7.379,4.908-7.379,13.2,0,7.258.76,13.79,9.159,13.79,2.713,0,3.214-1.434,3.283-3.041v-4.994Z" transform="translate(-423.614 -276.907)" fill="#003676"/><path d="M659.3,314.03l2-.812h0c1.642-.639,1.642-1.832,1.642-4.476h0V289.681h0a3.066,3.066,0,0,0-1.555-2.972h0l-1.832-1.227v-1h8.312l.5.311h0c.916,1.227,2.817,4.527,5.374,7.984h0l8.813,11.993h0c.363.5.553.726.726.726.363,0,.363-.449.363-1.279h0v-14.5h0c0-2.091-.035-2.506-1.815-3.231h0l-2.609-1v-1h10.455v1l-1.331.5h0c-1.952.778-2.333,1.227-2.333,4.234h0v17.972h0c0,2.747.052,5.529.052,6.48h0l-.311.363H683.2l-.5-.363h0c-.415-.5-2.782-3.836-5.2-7.068h0L666.82,293.328h0c-.588-.778-.864-1.192-1.089-1.192-.415,0-.415.466-.415,1.106h0v16.313h0c0,2.194,0,2.886,1.918,3.525h0l2.7.95v1H659.3v-1Z" transform="translate(-585.204 -280.091)" fill="#003676"/><path d="M866.32,314.03l2-.674h0c1.5-.5,1.555-1.331,1.555-4.2h0V289.44h0c0-2.177,0-2.73-1.555-3.231h0l-2-.726v-1h15.12c5.288,0,10.472,1.14,10.472,8.07,0,6.342-4.735,10.265-12.131,10.265-.311,0-.725-.052-1-.052h0l-.674-1.642.363-.363h0c3.318-.086,7.344-1.452,6.774-7.863-.449-4.994-1.9-5.927-6-5.927-2.782,0-2.973.415-2.973,1.555h0v20.633h0c0,3.059-.051,3.7,1.78,4.2h0l2.368.674v1h-14.1v-1Z" transform="translate(-759.163 -280.091)" fill="#003676"/><path d="M563.111,502.092H467.006v-.639h96.105v.639Z" transform="translate(-423.614 -462.416)" fill="#003676"/><path d="M295.741,352.342a5.106,5.106,0,1,1-5.115-5.1,5.1,5.1,0,0,1,5.115,5.1Z" transform="translate(-271.116 -332.832)" fill="#ee6f16"/><path d="M206.3,267.982H195.276l2.229,6.826H203v-.017h0A10.1,10.1,0,0,0,213.092,264.7h0v-5.478l-6.791-2.229v10.99Z" transform="translate(-195.276 -256.992)" fill="#ee6f16"/><path d="M206.267,396.672v11.008l6.826-2.212v-5.5h-.018a10.1,10.1,0,0,0-10.092-10.092h-5.478l-2.229,6.792Z" transform="translate(-195.276 -368.66)" fill="#ee6f16"/><path d="M334.956,396.689h11.025l-2.247-6.809h-5.5a10.1,10.1,0,0,0-10.074,10.092h0v5.478l6.791,2.229v-10.99Z" transform="translate(-306.944 -368.66)" fill="#ee6f16"/><path d="M334.974,268.11V257.1l-6.809,2.212v5.5h0A10.126,10.126,0,0,0,338.257,274.9h5.478l2.247-6.791Z" transform="translate(-306.944 -257.084)" fill="#ee6f16"/><path d="M1039.642,284.981a2.061,2.061,0,0,1,0,4.113v.484a2.549,2.549,0,0,0,0-5.1v.5Zm0,2.436v-.6h.017c.328,0,.587-.052.587-.432,0-.346-.311-.4-.571-.4h-.034v-.415h.086c.691,0,1.071.242,1.071.847a.721.721,0,0,1-.76.778h0l.778,1.279h-.553Zm0,1.676a2.06,2.06,0,0,1,0-4.113h0v-.5h0a2.549,2.549,0,1,0,0,5.1h0v-.484Zm0-3.525v.415h-.45v.829h.45v.6l-.121-.19h-.328v1.244h-.536v-2.9Z" transform="translate(-902.658 -280.091)" fill="#003676"/><g transform="translate(43.337 44.449)"><path d="M469.037,543.468a4.074,4.074,0,0,1-2-.446,3.8,3.8,0,0,1-.376-1.9.29.29,0,0,1,.446-.035c.235.763,1.021,1.843,2.019,1.843a1.168,1.168,0,0,0,1.268-1.186c0-.951-.892-1.514-1.6-1.867a2.7,2.7,0,0,1-1.773-2.29c-.012-1.326,1.022-2.242,2.724-2.242a4.758,4.758,0,0,1,1.338.188,2.74,2.74,0,0,0,.4.094,5.717,5.717,0,0,1,.211,1.679c-.059.141-.352.153-.458.036-.2-.6-.7-1.456-1.55-1.456a1.091,1.091,0,0,0-1.2,1.092,1.719,1.719,0,0,0,1.068,1.338l.775.411a2.678,2.678,0,0,1,1.655,2.36C472,542.529,470.81,543.468,469.037,543.468Z" transform="translate(-466.666 -535.344)" fill="#003676"/><path d="M544.778,539.387c0,.329.012.352.329.352h.81c.61,0,.751-.082.869-.646l.059-.293c.082-.094.376-.094.435.012-.023.376-.035.8-.035,1.244s.012.869.035,1.244a.336.336,0,0,1-.435.011l-.059-.293c-.117-.564-.258-.658-.869-.658h-.81c-.317,0-.329.012-.329.364v1.4a2.127,2.127,0,0,0,.188,1.115c.153.211.376.305,1.233.305,1.021,0,1.42-.035,2.066-1.362a.285.285,0,0,1,.435.059,6.665,6.665,0,0,1-.493,1.879c-.622-.024-1.749-.036-2.712-.036h-1.526c-.564,0-1.139.012-2.019.036a.336.336,0,0,1,0-.411l.552-.082c.528-.082.6-.152.6-1.233v-4.379c0-1.068-.07-1.139-.6-1.244l-.294-.059a.3.3,0,0,1,.024-.411c.552.024,1.127.035,1.691.035h2.489c.751,0,1.421-.012,1.573-.035.012.188.094,1.033.153,1.82-.047.129-.317.153-.434.047a2.716,2.716,0,0,0-.446-.927,1.541,1.541,0,0,0-1.15-.364h-.939c-.388,0-.388.023-.388.458Z" transform="translate(-529.868 -536.146)" fill="#003676"/><path d="M633.96,541.954c0,.493.023.728.246.775.047.047.035.246-.035.282a5.246,5.246,0,0,0-.821.176,9.072,9.072,0,0,1-2.078.282,5.85,5.85,0,0,1-2.313-.411,3.7,3.7,0,0,1-2.313-3.545,3.89,3.89,0,0,1,2.066-3.546,5.739,5.739,0,0,1,2.747-.622,14.991,14.991,0,0,1,2.325.281c.035.352.047,1.174.164,1.89-.047.129-.364.141-.446.024a2.178,2.178,0,0,0-2.207-1.655c-1.867,0-2.771,1.549-2.771,3.4a3.6,3.6,0,0,0,1.338,3.193,2.87,2.87,0,0,0,1.609.446c.669,0,.81-.129.81-.892V541.3c0-.634-.07-.7-.634-.787l-.517-.07a.267.267,0,0,1,0-.411c.834.024,1.409.036,1.984.036s1.139-.012,1.538-.036a.334.334,0,0,1,0,.411l-.27.047c-.352.059-.423.176-.423.81Z" transform="translate(-601.099 -535.344)" fill="#003676"/><path d="M719.576,538.025c0-1.092-.07-1.162-.6-1.268l-.294-.059a.281.281,0,0,1,.024-.4c.563.024,1.151.035,1.714.035s1.151-.012,1.714-.035a.318.318,0,0,1,0,.4l-.282.047c-.528.094-.6.188-.6,1.28v2.712c0,1.373.152,2.888,1.937,2.888,1.5,0,1.961-1.315,1.961-2.923v-1.421a8.166,8.166,0,0,0-.176-2.148c-.106-.246-.364-.317-.681-.376l-.317-.059a.354.354,0,0,1,0-.4c.634.024,1.092.035,1.573.035.435,0,.869-.012,1.315-.035a.355.355,0,0,1,0,.4l-.212.047c-.3.07-.528.141-.634.387a8.154,8.154,0,0,0-.176,2.148V540.6a4.074,4.074,0,0,1-.752,2.83,3.17,3.17,0,0,1-2.324.845,3.531,3.531,0,0,1-2.324-.657,3.256,3.256,0,0,1-.869-2.654Z" transform="translate(-678.38 -536.146)" fill="#003676"/><path d="M813.2,538.236c0-1.174-.024-1.3-.517-1.374l-.317-.047a.267.267,0,0,1,.023-.411c.88-.059,1.8-.106,2.912-.106a4.941,4.941,0,0,1,2.3.423,1.923,1.923,0,0,1,1.033,1.737,1.894,1.894,0,0,1-1.245,1.761c-.117.059-.117.129-.059.258a9.632,9.632,0,0,0,1.82,2.935,1.438,1.438,0,0,0,.787.329.225.225,0,0,1,.047.305,2.835,2.835,0,0,1-.928.106,2.4,2.4,0,0,1-2.278-1.233,14.67,14.67,0,0,1-.915-1.82.6.6,0,0,0-.622-.411c-.411,0-.434.023-.434.258v1.444c0,1.08.07,1.162.6,1.256l.317.059a.373.373,0,0,1,0,.411c-.622-.024-1.162-.036-1.726-.036-.587,0-1.1.012-1.714.036a.335.335,0,0,1,0-.411l.317-.059c.528-.094.6-.176.6-1.256Zm1.608,1.491c0,.411.035.446.728.446a1.127,1.127,0,0,0,.892-.329,1.708,1.708,0,0,0,.423-1.268,1.552,1.552,0,0,0-1.538-1.738c-.481,0-.5.035-.5.6Z" transform="translate(-757.035 -536.146)" fill="#003676"/><path d="M906.839,539.371a3.9,3.9,0,0,1-4.238,4.1,3.833,3.833,0,0,1-4.074-4,4.042,4.042,0,0,1,4.191-4.121A3.883,3.883,0,0,1,906.839,539.371Zm-4.215-3.487c-1.444,0-2.219,1.35-2.219,3.311,0,1.433.5,3.733,2.418,3.733,1.538,0,2.137-1.5,2.137-3.4C904.961,537.516,904.08,535.884,902.624,535.884Z" transform="translate(-829.564 -535.344)" fill="#003676"/><path d="M996.549,543.468a4.075,4.075,0,0,1-2-.446,3.8,3.8,0,0,1-.376-1.9.29.29,0,0,1,.446-.035c.235.763,1.021,1.843,2.019,1.843a1.168,1.168,0,0,0,1.268-1.186c0-.951-.892-1.514-1.6-1.867a2.7,2.7,0,0,1-1.773-2.29c-.011-1.326,1.021-2.242,2.724-2.242a4.758,4.758,0,0,1,1.339.188,2.735,2.735,0,0,0,.4.094,5.71,5.71,0,0,1,.212,1.679c-.059.141-.352.153-.458.036-.2-.6-.7-1.456-1.55-1.456a1.091,1.091,0,0,0-1.2,1.092,1.719,1.719,0,0,0,1.068,1.338l.775.411a2.678,2.678,0,0,1,1.656,2.36C999.508,542.529,998.322,543.468,996.549,543.468Z" transform="translate(-909.941 -535.344)" fill="#003676"/></g></g></g></g></svg>