<svg xmlns="http://www.w3.org/2000/svg" width="238" height="95.583" viewBox="0 0 238 95.583"><path d="M146.229,2415.336a1.01,1.01,0,0,0-1.089-.35c-2.228.221-4.409-.3-6.612-.438a7.148,7.148,0,0,1-2.929-.738,3.338,3.338,0,0,1-1.85-2.968c-.2-3.054,1.434-5.077,3.675-6.866,2.612-2.085,5.657-3.357,8.594-4.83a38.186,38.186,0,0,1,4.649-1.893,2.994,2.994,0,0,1,2.838.444,9.2,9.2,0,0,1,3.395,4.429,3.328,3.328,0,0,1-.09,2.44,20.173,20.173,0,0,0-1.176,4.153c-.219,1.226.613,1.865,1.839,1.592,1.362-.3,2.745-.484,4.1-.854a50.479,50.479,0,0,0,5.329-1.871,76.6,76.6,0,0,0,10.244-5.433,43.368,43.368,0,0,1,8.768-4.13,6.418,6.418,0,0,1,4.131-.364c2.2.782,2.859,3,1.7,5.475a16.552,16.552,0,0,1-3.769,4.886,10.382,10.382,0,0,0-.833.819.8.8,0,0,0-.074,1.075c.254.311.594.166.909.031a46.333,46.333,0,0,0,5.606-3.046,40.914,40.914,0,0,1,8.151-4.162c2.022-.667,3.48-.013,3.549,2.455.051,1.87-.757,3.548-1.223,5.3-.038.144-.122.276-.158.421-.454,1.824.033,2.387,1.888,2.468a24.018,24.018,0,0,0,9.593-1.908,2.178,2.178,0,0,0,1.5-1.839,6.877,6.877,0,0,1,1.492-3.032c.684-.906,1.539-1.7,2.188-2.6a24.22,24.22,0,0,1,3.8-4.06,59.951,59.951,0,0,1,5.443-4.775,8.789,8.789,0,0,0,1.327-1.342c.155-.166.413-.327.263-.6-.131-.243-.41-.235-.646-.224a18.869,18.869,0,0,1-3.672,0c-.437-.066-.955.046-1.157-.488a1.281,1.281,0,0,1,.335-1.409,3.8,3.8,0,0,1,1.9-1.271,12.932,12.932,0,0,1,3.506-.608c1.094.063,2.1-.455,3.189-.447a.884.884,0,0,0,.619-.328,21.775,21.775,0,0,1,3.275-2.906c1.966-1.787,4.07-3.421,6.1-5.141,1.942-1.647,3.846-3.339,5.791-4.982a64.678,64.678,0,0,1,6.383-5.1,10.1,10.1,0,0,1,3.086-1.174c.592-.151,1,.489.755,1.158a9.815,9.815,0,0,1-2.688,3.661c-.63.588-1.313,1.123-1.92,1.749-2.675,2.755-5.652,5.191-8.359,7.92-1.427,1.438-3.1,2.644-4.47,4.164-.212.235-.691.486-.368.885.26.321.662.128,1-.013a1.171,1.171,0,0,1,.514-.142,20.046,20.046,0,0,0,4.536-.468,18.717,18.717,0,0,0,4.418-.576.6.6,0,0,1,.265-.044,22.626,22.626,0,0,0,5.254-.475c1.648-.224,3.36.038,4.957-.568a.62.62,0,0,1,.266-.04,29.634,29.634,0,0,0,6.153-.477c2.1-.248,4.257.083,6.31-.584a1.336,1.336,0,0,1,.447-.033,100.214,100.214,0,0,0,10.125-.452c8.7-.569,17.393-.17,26.087-.2a60.772,60.772,0,0,1,6.882.357c2.069.229,4.165.284,6.206.692a13.127,13.127,0,0,1,3.709.958c.371.2.86.338.8.849-.068.588-.622.406-1.009.494-3.058.695-6.163.38-9.235.3-3.13-.083-6.269-.171-9.394-.363-2.742-.169-5.479-.371-8.222-.29-3.491.1-6.977.354-10.467.486-2.591.1-5.188.2-7.77.373-1.514.1-3.039.139-4.555.267-2.26.191-4.545.162-6.787.466-2.076.281-4.174.054-6.241.483-1.192.248-2.456,0-3.675.217-1.881.336-3.807.135-5.691.513-1.024.206-2.091.059-3.14.182-2.927.344-5.869.521-8.8.878a26.332,26.332,0,0,1-4.279.443,2.623,2.623,0,0,0-1.83.628c-1.62,1.33-3.271,2.622-4.851,4a69.419,69.419,0,0,0-7.165,6.8c-1.847,2.14-3.879,4.184-4.914,6.916a5.935,5.935,0,0,0-.472,2.189,3.53,3.53,0,0,0,2.906,3.1c3.249.6,6.173-.5,9.073-1.655a46.987,46.987,0,0,0,8.168-4.154c.246-.159.513-.41.815-.188a.72.72,0,0,1,.137.913,5.433,5.433,0,0,1-1.823,2.507,32.175,32.175,0,0,1-10.1,4.786,25.974,25.974,0,0,1-9.429.76c-1.7-.185-3.511-.457-4.79-1.956a3.213,3.213,0,0,1-.981-2.133c0-.724-.256-.878-.947-.534a36.87,36.87,0,0,1-6.642,2.736,22.376,22.376,0,0,1-5.326.835,6.729,6.729,0,0,1-5.723-2.975,3.216,3.216,0,0,1-.4-2.7c.426-1.92-.938-2.162-2.263-1.685a10.962,10.962,0,0,0-2.986,1.987,46.283,46.283,0,0,1-7.265,4.785,11.555,11.555,0,0,1-6.035,1.336,2.568,2.568,0,0,1-2.177-2.812,6.659,6.659,0,0,1,1.576-2.883,28.612,28.612,0,0,1,4.9-3.934c1.331-.912,2.342-2.066,2.116-3.882-.108-.877-.412-1.258-1.311-1.249a9.065,9.065,0,0,0-4.507,1.641c-1.464.871-2.938,1.731-4.381,2.643a48.136,48.136,0,0,1-5.662,3.285,23.644,23.644,0,0,1-5.79,1.81,33.778,33.778,0,0,0-7.62,2.309,41.731,41.731,0,0,0-8.736,5.129,26.791,26.791,0,0,0-5.044,5.407c-1.061,1.4-2.214,2.739-3.313,4.115-1.231,1.541-2.437,3.1-3.674,4.639-.768.956-1.642,1.833-2.344,2.833-.77,1.1-1.838,1.947-2.508,3.118a.8.8,0,0,1-.156.219,33.067,33.067,0,0,0-2.755,3.167c-2.291,2.394-4.292,5.05-6.663,7.374-2.122,2.081-4.1,4.325-6.337,6.268-2.968,2.576-5.874,5.329-9.694,6.653a6.026,6.026,0,0,1-4.273.382c-.771-.288-1.69-.215-2.54-.434a6.17,6.17,0,0,1-4.586-4.038,6.617,6.617,0,0,1-.323-3.295c.681-4.307,3.127-7.541,5.792-10.749a47.461,47.461,0,0,1,6.455-6.241,139.5,139.5,0,0,1,12.866-9.182c5.645-3.661,11.508-6.927,17.412-10.129,2.189-1.187,4.437-2.266,6.682-3.345C143.547,2416.427,144.854,2415.924,146.229,2415.336ZM97.343,2458c0,.184-.02.516,0,.845a2.917,2.917,0,0,0,2.914,2.73,8.154,8.154,0,0,0,2.826-.862,32.373,32.373,0,0,0,7.129-5.263c4.174-3.839,8.054-7.976,11.884-12.158.1-.11.183-.238.279-.353,1.8-2.128,3.6-4.247,5.385-6.384q2.271-2.721,4.5-5.475,1.866-2.293,3.693-4.617c1.068-1.365,2.107-2.751,3.142-4.141.143-.192.465-.419.214-.7s-.559-.086-.828.046c-1.1.543-2.231,1.044-3.3,1.644-2.823,1.579-5.619,3.2-8.325,4.98-2.529,1.66-5.043,3.337-7.47,5.147-1.579,1.177-3.142,2.375-4.719,3.553a53.663,53.663,0,0,0-4.84,3.954,74.092,74.092,0,0,0-6.426,6.273,46.94,46.94,0,0,0-4.191,5.385C98.247,2454.2,97.195,2455.83,97.343,2458Zm54.427-52.94a5.324,5.324,0,0,0-.011-1.074c-.317-1.626-1.185-2.847-3-2.093a34.725,34.725,0,0,0-3.784,1.623,9.287,9.287,0,0,0-4.113,4c-.61,1.273-.42,3.2.577,3.961a5.453,5.453,0,0,0,4.532.928C149.008,2411.89,152.117,2408.055,151.77,2405.056Z" transform="translate(-93 -2369.122)" fill="#121766"/></svg>