<svg xmlns="http://www.w3.org/2000/svg" xmlns:xlink="http://www.w3.org/1999/xlink" width="237" height="148" viewBox="0 0 237 148"><defs><clipPath id="b"><rect width="237" height="148"/></clipPath></defs><g id="a" clip-path="url(#b)"><g transform="translate(56.562 22.898)"><path d="M60.039,26.582l-2.1,3.74a.547.547,0,1,0,.955.535l2.1-3.74a.547.547,0,1,0-.955-.535" transform="translate(16.67 0.443)" fill="#003b87"/><path d="M59.073,25.891l-2.1,3.741a.547.547,0,1,0,.954.535l2.1-3.74a.547.547,0,1,0-.954-.536" transform="translate(16.36 0.222)" fill="#003b87"/><path d="M61.145,27.134l-2.1,3.741a.548.548,0,0,0,.955.536l2.1-3.741a.548.548,0,1,0-.955-.536" transform="translate(17.025 0.62)" fill="#003b87"/><path d="M58.1,25.2l-2.1,3.74a.548.548,0,1,0,.955.536l2.1-3.741A.547.547,0,1,0,58.1,25.2" transform="translate(16.05 0)" fill="#003b87"/><path d="M62.289,27.746l-2.1,3.74a.548.548,0,0,0,.956.536l2.1-3.74a.547.547,0,1,0-.954-.536" transform="translate(17.391 0.816)" fill="#003b87"/><path d="M54.265,28.823a1.093,1.093,0,0,0,.2,1.535,35.5,35.5,0,0,0,43.372.024A1.1,1.1,0,0,0,96.5,28.648a33.308,33.308,0,0,1-40.7-.021,1.1,1.1,0,0,0-1.536.2" transform="translate(15.44 1.115)" fill="#003b87"/><path d="M22.042,62.182H17.82V60.224h-.061A5.766,5.766,0,0,1,13.2,62.55c-4.406,0-7.313-3.183-7.313-7.681,0-4.131,2.571-7.924,6.794-7.924A5.536,5.536,0,0,1,17.39,48.9h.062V39.05h4.589Zm-7.894-11.2a3.478,3.478,0,0,0-3.673,3.764,3.478,3.478,0,0,0,3.673,3.763,3.478,3.478,0,0,0,3.671-3.763,3.478,3.478,0,0,0-3.671-3.764" transform="translate(0 4.531)" fill="#003b87"/><path d="M34.051,57.695a8.08,8.08,0,0,1-6.272,2.939c-4.591,0-8.261-3.06-8.261-7.8s3.67-7.8,8.261-7.8c4.284,0,6.976,3.06,6.976,7.8v1.437H24.106a3.431,3.431,0,0,0,3.459,2.876,3.913,3.913,0,0,0,3.273-1.8Zm-3.885-6.548a2.751,2.751,0,0,0-2.814-2.814,3.064,3.064,0,0,0-3.245,2.814Z" transform="translate(4.371 6.448)" fill="#003b87"/><path d="M32.584,45.4h4.407v2.018h.061A4.823,4.823,0,0,1,41.4,45.028c4.651,0,5.509,3.06,5.509,7.037v8.2H42.313V52.982c0-1.713-.03-3.916-2.386-3.916-2.386,0-2.752,1.866-2.752,3.794v7.405H32.584Z" transform="translate(8.561 6.448)" fill="#003b87"/><path d="M55.78,50.048h-4.04V55c0,1.591.185,2.754,2.173,2.754a3.3,3.3,0,0,0,1.867-.429v3.826a9.511,9.511,0,0,1-3.212.46c-3.06,0-5.416-1.255-5.416-4.5V50.048H44.214V46.376h2.938V41.969h4.588v4.407h4.04Z" transform="translate(12.291 5.467)" fill="#003b87"/><path d="M64.118,58.4h-.059a5.367,5.367,0,0,1-4.713,2.235c-2.784,0-5.293-1.593-5.293-4.591,0-5.14,6.242-5.233,10.066-5.233a2.733,2.733,0,0,0-2.936-2.661,4.906,4.906,0,0,0-3.735,1.774L55,47.413a9.6,9.6,0,0,1,6.548-2.385c5.354,0,6.792,2.723,6.792,7.678v7.558H64.118Zm-1.132-4.651c-1.408,0-4.529.123-4.529,2.143,0,1.1,1.164,1.62,2.173,1.62,1.805,0,3.488-.948,3.488-2.784v-.98Z" transform="translate(15.446 6.448)" fill="#75bce3"/><rect width="4.589" height="21.029" transform="translate(85.959 45.684)" fill="#75bce3"/><path d="M74.344,39.745a2.662,2.662,0,1,1-2.662,2.662,2.665,2.665,0,0,1,2.662-2.662M72.05,47.089H76.64V61.96H72.05Z" transform="translate(21.099 4.754)" fill="#75bce3"/><path d="M86.87,58.4h-.061A5.364,5.364,0,0,1,82.1,60.633c-2.785,0-5.295-1.593-5.295-4.591,0-5.14,6.243-5.233,10.068-5.233a2.733,2.733,0,0,0-2.937-2.661A4.906,4.906,0,0,0,80.2,49.922l-2.447-2.509A9.6,9.6,0,0,1,84.3,45.028c5.354,0,6.792,2.723,6.792,7.678v7.558H86.87Zm-1.132-4.651c-1.408,0-4.529.123-4.529,2.143,0,1.1,1.162,1.62,2.173,1.62,1.8,0,3.488-.948,3.488-2.784v-.98Z" transform="translate(22.741 6.448)" fill="#75bce3"/><path d="M36.187,65.53h-.644V63.412h-.013a1.419,1.419,0,0,1-1.181.572,1.782,1.782,0,0,1,0-3.562A1.447,1.447,0,0,1,35.529,61h.013v-.487h.644ZM33.312,62.2a1.117,1.117,0,1,0,1.115-1.181A1.087,1.087,0,0,0,33.312,62.2" transform="translate(8.574 11.385)" fill="#003b87"/><path d="M38.983,63.877h-.644v-.522h-.015a1.191,1.191,0,0,1-1.115.608,1.17,1.17,0,0,1-1.231-1.294V60.487h.643v2c0,.637.365.872.773.872.538,0,.944-.342.944-1.129V60.487h.644Z" transform="translate(9.65 11.405)" fill="#003b87"/><path d="M39.444,62.439a1.064,1.064,0,0,0,1.144.987,1.172,1.172,0,0,0,.931-.506l.486.37a1.774,1.774,0,0,1-1.5.695,1.683,1.683,0,0,1-1.745-1.78,1.717,1.717,0,0,1,1.751-1.782,1.618,1.618,0,0,1,1.653,1.788v.228Zm2.031-.515a.918.918,0,0,0-.98-.987,1.045,1.045,0,0,0-1.051.987Z" transform="translate(10.541 11.385)" fill="#003b87"/><path d="M41.839,60.508h.643v.523H42.5a1.145,1.145,0,0,1,1.016-.609.911.911,0,0,1,.287.044l-.029.693a1.226,1.226,0,0,0-.314-.05c-.629,0-.973.343-.973,1.087v1.7h-.643Z" transform="translate(11.529 11.385)" fill="#003b87"/><path d="M44.2,62.439a1.065,1.065,0,0,0,1.146.987,1.168,1.168,0,0,0,.928-.506l.487.37a1.774,1.774,0,0,1-1.5.695,1.683,1.683,0,0,1-1.745-1.78,1.717,1.717,0,0,1,1.751-1.782,1.618,1.618,0,0,1,1.653,1.788v.228Zm2.033-.515a.918.918,0,0,0-.98-.987,1.046,1.046,0,0,0-1.053.987Z" transform="translate(12.066 11.385)" fill="#003b87"/><path d="M46.6,60.508h.6v.528h.015a1.206,1.206,0,0,1,1.087-.614,1.1,1.1,0,0,1,1.059.629,1.224,1.224,0,0,1,1.072-.629c1.045,0,1.288.745,1.288,1.5V63.9h-.643V62.009c0-.514-.108-.987-.73-.987s-.865.421-.865,1.024V63.9h-.644V62.124c0-.643-.092-1.1-.714-1.1-.465,0-.881.35-.881,1.116V63.9H46.6Z" transform="translate(13.055 11.385)" fill="#003b87"/><path d="M52.808,60.422A1.781,1.781,0,1,1,51,62.2a1.781,1.781,0,0,1,1.8-1.782m0,2.961A1.183,1.183,0,1,0,51.692,62.2a1.087,1.087,0,0,0,1.116,1.179" transform="translate(14.468 11.385)" fill="#003b87"/><path d="M56.138,61.358a.863.863,0,0,0-.693-.335c-.3,0-.567.136-.567.379,0,.408.581.465.866.53.557.136.988.35.988.988,0,.765-.7,1.066-1.373,1.066a1.459,1.459,0,0,1-1.31-.6l.487-.4a1.119,1.119,0,0,0,.823.4c.329,0,.687-.137.687-.429,0-.387-.538-.458-.816-.523-.551-.136-1.037-.314-1.037-.967,0-.707.651-1.043,1.286-1.043a1.308,1.308,0,0,1,1.16.557Z" transform="translate(15.445 11.385)" fill="#003b87"/><path d="M57.706,60.487h.744l1.016,2.6.973-2.6h.687l-1.331,3.391h-.708Z" transform="translate(16.617 11.405)" fill="#003b87"/><path d="M61.177,62.439a1.065,1.065,0,0,0,1.145.987,1.17,1.17,0,0,0,.93-.506l.486.37a1.771,1.771,0,0,1-1.5.695A1.684,1.684,0,0,1,60.49,62.2a1.718,1.718,0,0,1,1.753-1.782,1.617,1.617,0,0,1,1.652,1.788v.228Zm2.031-.515a.918.918,0,0,0-.979-.987,1.046,1.046,0,0,0-1.053.987Z" transform="translate(17.51 11.385)" fill="#003b87"/><path d="M63.572,60.508h.643v.523h.015a1.145,1.145,0,0,1,1.016-.609.914.914,0,0,1,.288.044l-.029.693a1.244,1.244,0,0,0-.314-.05c-.63,0-.975.343-.975,1.087v1.7h-.643Z" transform="translate(18.498 11.385)" fill="#003b87"/><path d="M67.432,61.277h-.923v1.539c0,.378,0,.778.487.778a.927.927,0,0,0,.458-.1v.586a1.476,1.476,0,0,1-.581.115c-.993,0-1.008-.609-1.008-1.152V61.277h-.745v-.559h.745v-.952h.643v.952h.923Z" transform="translate(18.995 11.174)" fill="#003b87"/><path d="M67.954,62.439a1.065,1.065,0,0,0,1.144.987,1.166,1.166,0,0,0,.93-.506l.487.37a1.774,1.774,0,0,1-1.5.695,1.685,1.685,0,0,1-1.746-1.78,1.718,1.718,0,0,1,1.754-1.782,1.618,1.618,0,0,1,1.652,1.788v.228Zm2.031-.515a.918.918,0,0,0-.98-.987,1.046,1.046,0,0,0-1.051.987Z" transform="translate(19.683 11.385)" fill="#003b87"/><path d="M73.646,61.358a.866.866,0,0,0-.695-.335c-.3,0-.565.136-.565.379,0,.408.58.465.865.53.559.136.988.35.988.988,0,.765-.7,1.066-1.374,1.066a1.458,1.458,0,0,1-1.309-.6l.486-.4a1.121,1.121,0,0,0,.823.4c.329,0,.687-.137.687-.429,0-.387-.536-.458-.816-.523-.551-.136-1.037-.314-1.037-.967,0-.707.651-1.043,1.288-1.043a1.309,1.309,0,0,1,1.16.557Z" transform="translate(21.059 11.385)" fill="#003b87"/><path d="M75.776,60.422a1.781,1.781,0,1,1-1.8,1.782,1.781,1.781,0,0,1,1.8-1.782m0,2.961A1.183,1.183,0,1,0,74.66,62.2a1.088,1.088,0,0,0,1.116,1.179" transform="translate(21.834 11.385)" fill="#003b87"/><path d="M77.233,60.508h.644v.523h.015a1.191,1.191,0,0,1,1.116-.609,1.17,1.17,0,0,1,1.231,1.294V63.9h-.644v-2c0-.637-.365-.873-.773-.873-.536,0-.944.343-.944,1.129V63.9h-.644Z" transform="translate(22.879 11.385)" fill="#003b87"/><path d="M80.164,60.508h.643v.523h.016a1.142,1.142,0,0,1,1.016-.609.917.917,0,0,1,.287.044l-.03.693a1.226,1.226,0,0,0-.314-.05c-.629,0-.973.343-.973,1.087v1.7h-.643Z" transform="translate(23.819 11.385)" fill="#003b87"/><path d="M82.526,62.439a1.065,1.065,0,0,0,1.144.987,1.172,1.172,0,0,0,.931-.506l.486.37a1.773,1.773,0,0,1-1.5.695,1.684,1.684,0,0,1-1.746-1.78,1.717,1.717,0,0,1,1.753-1.782,1.618,1.618,0,0,1,1.652,1.788v.228Zm2.031-.515a.917.917,0,0,0-.98-.987,1.046,1.046,0,0,0-1.051.987Z" transform="translate(24.356 11.385)" fill="#003b87"/><rect width="0.644" height="3.391" transform="translate(110.315 71.892)" fill="#003b87"/><path d="M86.14,60.508h.643v.523H86.8a1.145,1.145,0,0,1,1.016-.609.905.905,0,0,1,.287.044l-.029.693a1.226,1.226,0,0,0-.314-.05c-.63,0-.973.343-.973,1.087v1.7H86.14Z" transform="translate(25.735 11.385)" fill="#003b87"/><path d="M85.069,60.343l.552-.943h.6l-.8.943Z" transform="translate(25.392 11.057)" fill="#003b87"/><path d="M90.334,54.957a1.15,1.15,0,1,1-1.15,1.15,1.152,1.152,0,0,1,1.15-1.15m0,2.1a.946.946,0,1,0-.947-.946.946.946,0,0,0,.947.946m-.442-1.61H90.4c.316,0,.464.143.464.395a.335.335,0,0,1-.314.363l.342.556h-.254l-.328-.539h-.176v.539h-.242Zm.242.571h.176c.149,0,.313-.009.313-.185s-.164-.185-.313-.182h-.176Z" transform="translate(26.711 9.632)" fill="#003b87"/><path d="M90.334,61.711a1.15,1.15,0,1,1-1.15,1.15,1.153,1.153,0,0,1,1.15-1.15m0,2.1a.946.946,0,1,0-.947-.947.946.946,0,0,0,.947.947M89.892,62.2H90.4c.316,0,.464.143.464.4a.332.332,0,0,1-.314.362l.342.556h-.254l-.328-.538h-.176v.538h-.242Zm.242.572h.176c.149,0,.313-.009.313-.185s-.164-.185-.313-.182h-.176Z" transform="translate(26.711 11.798)" fill="#003b87"/></g></g></svg>