<svg xmlns="http://www.w3.org/2000/svg" xmlns:xlink="http://www.w3.org/1999/xlink" width="237" height="148" viewBox="0 0 237 148"><defs><clipPath id="b"><rect width="237" height="148"/></clipPath></defs><g id="a" clip-path="url(#b)"><g transform="translate(-648.785 -92.689)"><g transform="translate(690.484 146.925)"><path d="M726.763,159.226h0c-1.94-.727-2.263-1.212-2.263-2.019v-.041a1.614,1.614,0,0,1,1.82-1.494,3.2,3.2,0,0,1,1.94.646l1.172-.606a4.269,4.269,0,0,0-3.073-1.132,2.807,2.807,0,0,0-3.072,2.706v.039c0,1.414.768,2.222,2.992,3.03,1.819.646,2.142,1.171,2.142,1.938,0,.969-.809,1.616-1.94,1.616a3.569,3.569,0,0,1-2.385-.929l-1.132.606a5.064,5.064,0,0,0,3.517,1.455,2.959,2.959,0,0,0,3.194-2.827v-.041c-.08-1.332-.888-2.22-2.911-2.948" transform="translate(-680.469 -144.564)" fill="#040506"/><path d="M735.787,163.094h0a3.188,3.188,0,0,1-2.1.807c-1.859,0-3.194-1.738-3.194-4.039v-.081c0-2.3,1.335-4.039,3.194-4.039a3.254,3.254,0,0,1,1.982.727l1.132-.606a4.421,4.421,0,0,0-3.073-1.252c-2.588,0-4.488,2.222-4.488,5.169v.122c0,3.029,1.859,5.169,4.366,5.169a4.334,4.334,0,0,0,3.236-1.413Z" transform="translate(-678.534 -144.555)" fill="#040506"/><path d="M718.707,154.7h-1.213v10.138h5.822v-1.132h-4.609Z" transform="translate(-682.155 -144.526)" fill="#040506"/><path d="M730.978,170.429h0c0,2.384-1.294,4.039-3.153,4.039-1.82,0-3.114-1.7-3.114-4.039v-.08c0-2.383,1.294-4.039,3.114-4.039,1.859,0,3.153,1.7,3.153,4.039Zm-3.153-5.291h0c-2.507,0-4.367,2.222-4.367,5.211v.08c0,3.029,1.779,5.171,4.367,5.171,2.546,0,4.366-2.181,4.366-5.171v-.08c0-3.069-1.82-5.211-4.366-5.211" transform="translate(-680.316 -141.309)" fill="#040506"/><path d="M735.924,170.543h0l-3.033-5.25h-1.213v10.1h1.172v-7.875l2.952,5.129v.081h.162l2.992-5.21v7.875h1.172v-10.1h-1.172Z" transform="translate(-677.781 -141.261)" fill="#040506"/><path d="M744.361,170.543h0l-2.992-5.25h-1.253v10.1h1.172v-7.875l2.992,5.129.041.081h.122l2.95-5.21v7.875h1.253v-10.1h-1.253Z" transform="translate(-675.18 -141.261)" fill="#040506"/><path d="M754.635,171.633h0c0,1.778-.89,2.787-2.426,2.787-1.578,0-2.507-1.009-2.507-2.867v-6.26H748.49v6.34c0,2.424,1.374,3.959,3.639,3.959,2.345,0,3.679-1.5,3.679-4.039v-6.26h-1.253v6.34Z" transform="translate(-672.597 -141.261)" fill="#040506"/><path d="M723.333,173.641h0a3.287,3.287,0,0,1-2.1.807c-1.859,0-3.194-1.7-3.194-4.039v-.039c0-2.3,1.334-4.039,3.194-4.039a3.192,3.192,0,0,1,1.982.687l1.132-.565a4.249,4.249,0,0,0-3.073-1.252c-2.588,0-4.488,2.181-4.488,5.169v.122c0,2.988,1.859,5.129,4.366,5.129a4.292,4.292,0,0,0,3.236-1.372Z" transform="translate(-682.375 -141.289)" fill="#040506"/><path d="M762.256,172.967h0l-5.054-7.674H756.03v10.1H757.2v-7.916l5.256,7.916h1.052v-10.1h-1.253Z" transform="translate(-670.272 -141.261)" fill="#040506"/><path d="M786.13,165.293h1.253v10.1H786.13Z" transform="translate(-660.991 -141.261)" fill="#040506"/><path d="M796.237,170.429h0c0,2.384-1.294,4.039-3.154,4.039-1.82,0-3.113-1.7-3.113-4.039v-.08c0-2.383,1.293-4.039,3.113-4.039,1.86,0,3.154,1.7,3.154,4.039Zm-3.154-5.291h0c-2.507,0-4.327,2.222-4.327,5.211v.08c0,3.029,1.739,5.171,4.327,5.171,2.547,0,4.367-2.181,4.367-5.171v-.08c0-3.069-1.779-5.211-4.367-5.211" transform="translate(-660.181 -141.309)" fill="#040506"/><path d="M807.894,169.784h0c-1.94-.687-2.264-1.172-2.264-1.98v-.039a1.656,1.656,0,0,1,1.859-1.535,3.487,3.487,0,0,1,1.942.646l1.172-.567a4.446,4.446,0,0,0-3.073-1.171,2.83,2.83,0,0,0-3.072,2.706v.081c0,1.374.768,2.181,2.911,2.988,1.819.646,2.142,1.212,2.142,1.939,0,.969-.808,1.616-1.94,1.616a3.354,3.354,0,0,1-2.345-.888l-1.172.565a5.063,5.063,0,0,0,3.517,1.454,2.905,2.905,0,0,0,3.194-2.787v-.039c-.041-1.374-.808-2.222-2.87-2.988" transform="translate(-655.464 -141.309)" fill="#040506"/><path d="M803.213,172.967h0l-5.135-7.674h-1.132v10.1h1.172v-7.916l5.256,7.916h1.011v-10.1h-1.172Z" transform="translate(-657.656 -141.261)" fill="#040506"/><path d="M763.725,165.293h1.253v10.1h-1.253Z" transform="translate(-667.9 -141.261)" fill="#040506"/><path d="M779.547,166.423h2.791v8.966h1.213v-8.966h2.789v-1.13h-6.793Z" transform="translate(-663.021 -141.261)" fill="#040506"/><path d="M772.83,173.641h0a2.835,2.835,0,0,1-2.062.807c-1.859,0-3.194-1.7-3.194-4.039v-.039c0-2.3,1.335-4.039,3.194-4.039a3.188,3.188,0,0,1,1.981.687l1.133-.565a4.249,4.249,0,0,0-3.073-1.252c-2.588,0-4.488,2.181-4.488,5.169v.122c0,2.988,1.859,5.129,4.366,5.129a4.291,4.291,0,0,0,3.235-1.372Z" transform="translate(-667.099 -141.289)" fill="#040506"/><path d="M775.367,171.693h0l1.779-4.765,1.779,4.765Zm2.426-6.462h-1.132l-3.882,10.218h1.253l.971-2.625h4.408l.969,2.625h1.294Z" transform="translate(-665.108 -141.28)" fill="#040506"/><path d="M719.192,167.282h0a13.754,13.754,0,0,1-4.044,9.046,13.558,13.558,0,0,1-8.975,4h-.081v-6.059h.081a7.53,7.53,0,0,0,5.9-3.474l-1.052-.565a6.532,6.532,0,0,1-4.851,2.868h-.122V167.16h13.141Zm-14.313-8.4H704.8a7.754,7.754,0,0,0-6.954,6.987v.081H691.7v-.081a13.754,13.754,0,0,1,4.044-9.047,14.184,14.184,0,0,1,9.056-4.039h.081Zm0,7.108H699.1v-.122a6.524,6.524,0,0,1,5.7-5.735h.122v5.856Zm0,7.068h-.122a6.687,6.687,0,0,1-5.7-5.775v-.122H704.8v5.9Zm15.567-7.068H706.091v-5.937h.122a6.679,6.679,0,0,1,4.851,2.868l1.091-.526a7.6,7.6,0,0,0-5.943-3.513h-.041v-6.018h.041a13.54,13.54,0,0,1,11.2,6.826l1.091-.525a15.053,15.053,0,0,0-12.331-7.553h-.081v-4.685h-1.213v4.685H704.8a14.987,14.987,0,0,0-14.313,14.985v.565h7.36v.081a7.682,7.682,0,0,0,6.954,6.987h.081v6.018H704.8a13.619,13.619,0,0,1-11.24-6.785l-1.091.565a15.015,15.015,0,0,0,12.331,7.513h.081v5.816h6.631v-1.212h-5.418v-4.6h.081a15.06,15.06,0,0,0,10.108-4.565,14.732,14.732,0,0,0,4.164-10.339Z" transform="translate(-690.484 -146.925)" fill="#040506"/></g></g></g></svg>