<svg xmlns="http://www.w3.org/2000/svg" xmlns:xlink="http://www.w3.org/1999/xlink" width="227" height="148" viewBox="0 0 227 148"><defs><clipPath id="b"><rect width="227" height="148"/></clipPath></defs><g id="a" clip-path="url(#b)"><rect width="227" height="148" fill="#fff"/><g transform="translate(-225.549 -292.876)"><g transform="translate(265.125 359.162)"><g transform="translate(0 0)"><path d="M410.173,372.241H393.68v-3.927h16.493ZM393.68,361.874h16.493v3.815H393.68Zm15.259,13.037c2.917,0,4.264-1.212,4.264-3.3v-1.84a1.379,1.379,0,0,0-.628-1.212l-1.885-1.616,1.885-1.616a1.38,1.38,0,0,0,.628-1.212V362.5c0-2.087-1.346-3.3-4.264-3.3H390.718v15.708Zm-30.63-2.67H361.816v-3.927h16.493Zm-16.493-10.367h16.493v3.815H361.816Zm15.259,13.037c2.917,0,4.264-1.212,4.264-3.3v-1.84a1.379,1.379,0,0,0-.628-1.212l-1.885-1.616,1.885-1.616a1.379,1.379,0,0,0,.628-1.212V362.5c0-2.087-1.346-3.3-4.264-3.3H358.854v15.708ZM345.683,359.2v12.9h-15.6V359.2h-2.962v12.117c0,2.222,1.346,3.59,4.017,3.59h13.486c2.67,0,4.017-1.369,4.017-3.59V359.2Zm-47.549,6.418V359.2h-2.962v15.708h2.962v-6.53h15.82v6.53h2.962V359.2h-2.962v6.418Zm-11.6-3.613V359.2H269.142c-2.67,0-4.017,1.369-4.017,3.59v8.527c0,2.222,1.346,3.59,4.017,3.59h17.391v-2.805H268.154v-10.1Z" transform="translate(-265.125 -359.204)" fill="#161615"/></g></g><g transform="translate(416.275 359.15)"><path d="M976.255,359.314a2.073,2.073,0,0,1,.679.455,2.126,2.126,0,0,1,.452.682,2.243,2.243,0,0,1,0,1.684,2.077,2.077,0,0,1-1.131,1.128,2.263,2.263,0,0,1-1.692,0,2.077,2.077,0,0,1-1.131-1.128,2.179,2.179,0,0,1,.452-2.366,2.072,2.072,0,0,1,.679-.455,2.265,2.265,0,0,1,1.692,0Zm-1.568.285a1.761,1.761,0,0,0-.95.973,1.98,1.98,0,0,0,0,1.439,1.773,1.773,0,0,0,.377.581,1.816,1.816,0,0,0,2.584,0,1.812,1.812,0,0,0,.38-.581,1.942,1.942,0,0,0,0-1.439,1.813,1.813,0,0,0-.38-.581,1.841,1.841,0,0,0-2.011-.391Zm-.055,2.93v-2.475h.95a.893.893,0,0,1,.613.175.654.654,0,0,1,.193.509.743.743,0,0,1-.049.282.584.584,0,0,1-.135.2.665.665,0,0,1-.2.132,1.079,1.079,0,0,1-.239.072l.737,1.1h-.357l-.7-1.1h-.512v1.1Zm.981-1.367a.805.805,0,0,0,.239-.049.359.359,0,0,0,.167-.13.415.415,0,0,0,.063-.245.408.408,0,0,0-.049-.213.372.372,0,0,0-.132-.129.547.547,0,0,0-.187-.066,1.334,1.334,0,0,0-.219-.017h-.558v.858h.4C975.431,361.17,975.523,361.167,975.613,361.162Z" transform="translate(-973.267 -359.15)" fill="#161615"/></g></g></g></svg>