<svg xmlns="http://www.w3.org/2000/svg" xmlns:xlink="http://www.w3.org/1999/xlink" width="237" height="148" viewBox="0 0 237 148"><defs><clipPath id="b"><rect width="237" height="148"/></clipPath></defs><g id="a" clip-path="url(#b)"><rect width="237" height="148" fill="#fff"/><g transform="translate(77 29.128)"><rect width="85.51" height="85.51" transform="translate(0.001 0.001)" fill="#00008f"/><path d="M44.836,42.229h4.911L82.268,0h-4.8Z" transform="translate(3.243)" fill="#ff1721"/><path d="M65.339,58.029C66.83,62.2,69.9,73.05,71.121,73.914H63.058a13.4,13.4,0,0,0-.379-2.845c-.347-1.241-3.264-10.624-3.264-10.624H46.609L44.595,63.3s2.419,7.571,2.569,7.943c.261.668,1.415,2.671,1.415,2.671H40.852s-.2-1.156-.276-1.637c-.06-.389-.732-2.519-.732-2.519a22.921,22.921,0,0,0-2.228,2.81c-.481.888-.695,1.347-.695,1.347H30.876s-.2-1.156-.277-1.637c-.059-.389-.8-2.689-.8-2.689a30.637,30.637,0,0,0-2.175,2.942c-.478.89-.684,1.384-.684,1.384H20.963s1.69-1.608,2.28-2.3c1-1.171,4.706-6.02,4.706-6.02l-1.487-5.149H13.752S6.5,69.968,6.218,70.263A29.064,29.064,0,0,0,3.77,73.914H0v-2.4c.047-.05.1-.1.149-.145.116-.085,5.494-6.76,10.434-13.343,4.439-5.74,8.605-11.323,8.971-11.855a37.309,37.309,0,0,0,2.161-4.062h6.57a29.537,29.537,0,0,0,.395,3.174c.172.548,4.175,13.684,4.269,13.826l2.214-2.831L31.378,44.632a20.754,20.754,0,0,0-1.175-2.52h7.676a6.658,6.658,0,0,0,.25,2.087c.312.961,1.958,6.9,1.958,6.9s5.234-6.563,5.541-7.033a4.248,4.248,0,0,0,.647-1.952h6.4a19.928,19.928,0,0,0-3.222,3.451C48.758,46.437,42,55.02,42,55.02s.589,2.008.876,3.009c.078.287.133.481.133.5s.149-.174.405-.5c1.743-2.208,9.668-12.6,10.149-13.491a19.671,19.671,0,0,0,1.291-2.426H61.1a16.119,16.119,0,0,0,.335,2.378Zm-9.5-9.838c-.916,1.971-6.309,8.536-6.309,8.536h8.54s-1.656-5.1-1.944-6.247a9.12,9.12,0,0,1-.167-2.233C55.964,48.142,55.944,47.972,55.844,48.191Zm-32.812,0c-.917,1.971-6.31,8.536-6.31,8.536h8.541s-1.655-5.1-1.943-6.247a9.121,9.121,0,0,1-.168-2.233C23.152,48.142,23.131,47.972,23.031,48.191ZM35.889,68.1l2.351-3.229c-.217-.233-1.541-4.249-1.541-4.249l-2.272,2.949Z" transform="translate(0 3.046)" fill="#fff"/></g></g></svg>