<svg xmlns="http://www.w3.org/2000/svg" xmlns:xlink="http://www.w3.org/1999/xlink" width="237" height="148" viewBox="0 0 237 148"><defs><clipPath id="b"><rect width="237" height="148"/></clipPath></defs><g id="a" clip-path="url(#b)"><rect width="237" height="148" fill="#fff"/><g transform="translate(66 37.532)"><path d="M71.946,55.125a3.708,3.708,0,0,0-1.4-.4,1.5,1.5,0,0,0-1.6,1.5c0,.9.5,1.1,1.2,1.3.3.1.7.2.7.5a.56.56,0,0,1-.6.5,1.389,1.389,0,0,1-1-.5l-.5,1a3.022,3.022,0,0,0,1.6.5,2.01,2.01,0,0,0,1.3-.4,1.457,1.457,0,0,0,.5-1.2,1.2,1.2,0,0,0-1.1-1.2l-.3-.1c-.2-.1-.5-.2-.5-.4,0-.3.3-.4.5-.4a1.135,1.135,0,0,1,.8.3Z" fill="#0f3d5c"/><path d="M76.746,55.825v-1h-2.6v4.6h2.6v-1h-1.4v-.8h1.3v-1h-1.3v-.8Z" fill="#0f3d5c"/><path d="M81.146,56.825v.9h1a.908.908,0,0,1-1,.8,1.417,1.417,0,0,1,0-2.8,1.087,1.087,0,0,1,1,.7l1.1-.5a2.083,2.083,0,0,0-2.1-1.3,2.362,2.362,0,0,0-2.5,2.5,2.418,2.418,0,0,0,4.3,1.5,2.9,2.9,0,0,0,.5-1.8Z" fill="#0f3d5c"/><path d="M88.246,54.825v2.4c0,.6,0,1.2-.8,1.2s-.8-.6-.8-1.2v-2.4h-1.2v2.6a1.845,1.845,0,0,0,.5,1.6,2.5,2.5,0,0,0,3,0,1.845,1.845,0,0,0,.5-1.6v-2.6Z" fill="#0f3d5c"/><path d="M94.046,57.525a1.3,1.3,0,0,0,1-1.3c0-1-.7-1.4-1.6-1.4h-1.8v4.6h1.2v-1.7h0l1.1,1.7h1.5Zm-1.2-1.8h0c.5,0,.9.1.9.6s-.4.6-.8.6h-.1Z" fill="#0f3d5c"/><path d="M99.546,54.725a2.4,2.4,0,1,0,2.5,2.3,2.372,2.372,0,0,0-2.5-2.3Zm0,1.1a1.3,1.3,0,1,1-1.3,1.2,1.309,1.309,0,0,1,1.3-1.2Z" fill="#0f3d5c"/><path d="M107.046,55.125a3.708,3.708,0,0,0-1.4-.4,1.5,1.5,0,0,0-1.6,1.5c0,.9.5,1.1,1.2,1.3.3.1.7.2.7.5a.56.56,0,0,1-.6.5,1.606,1.606,0,0,1-1.1-.5l-.5,1a3.022,3.022,0,0,0,1.6.5,2.01,2.01,0,0,0,1.3-.4,1.457,1.457,0,0,0,.5-1.2,1.2,1.2,0,0,0-1.1-1.2l-.3-.1c-.2-.1-.5-.2-.5-.4,0-.3.3-.4.5-.4a1.135,1.135,0,0,1,.8.3Z" fill="#0f3d5c"/><path d="M12.146.125a10.519,10.519,0,0,0-10.5,4.7c-4.4,7.1.7,15.9,7.3,16.7a10.731,10.731,0,0,0,12.1-10.2,10.323,10.323,0,0,0-8.9-11.2Z" fill="#0f3d5c"/><path d="M72.046,67.025c-.2-1.4-1.7-1.9-2.7-2.4-8.2-4.3-18-6.9-27.3-10-7.8-2.7-15.7-5.5-22.5-9.5-1.8-1.1-5.4-3.1-5.3-5.5.1-2,3.6-2.7,5.5-3.2,11.5-2.7,26.7-2,40.1-2.7,5.5-.3,10.9-.2,14.9-2.3-1-1.8-3.5-1.9-5.5-2.3-6.4-1.1-14.3-1-21.8-1.4a125.038,125.038,0,0,0-23.9,1.3c-7.8,1.1-14.3,2.4-19.2,5.8-1.7,1.2-4.1,3.2-3.7,6.3.3,2.8,3.7,5,5.9,6.5,7.6,4.9,17.1,7.8,26,10.9a207.525,207.525,0,0,0,29.2,7.6C65.046,66.925,68.546,68.125,72.046,67.025Z" fill="#0f3d5c"/><path d="M63.546,48.025h-2.4v-3.6h8.5v1.1a8.751,8.751,0,0,1-.3,2.4,8.39,8.39,0,0,1-.7,1.9,8.613,8.613,0,0,1-3,3,8.165,8.165,0,0,1-4.2,1,8.291,8.291,0,0,1-3.2-.6,7.821,7.821,0,0,1-2.6-1.7,7.323,7.323,0,0,1-1.7-2.6,8.833,8.833,0,0,1,0-6.4,7.582,7.582,0,0,1,4.3-4.3,8.662,8.662,0,0,1,3.2-.6,8.165,8.165,0,0,1,4.2,1,8.613,8.613,0,0,1,3,3l-4.9,1.8a4.5,4.5,0,0,0-.9-1,2.663,2.663,0,0,0-1.2-.3,2.518,2.518,0,0,0-2,.9,3.9,3.9,0,0,0-.7,2.5,3.727,3.727,0,0,0,.7,2.5,2.583,2.583,0,0,0,2.1.9,2.5,2.5,0,0,0,1.3-.3C63.246,48.725,63.446,48.425,63.546,48.025Z" fill="#0f3d5c"/><path d="M85.046,53.525l-.7-6.1c0-.5-.1-.9-.1-1.4s-.1-.9-.1-1.4c-.1.4-.2.9-.3,1.4s-.3,1-.4,1.6l-1.8,5.9h-3.3l-1.8-5.9a12.435,12.435,0,0,1-.4-1.6c-.1-.5-.2-1-.3-1.4,0,.5-.1,1-.1,1.4,0,.5-.1.9-.1,1.4l-.7,6.1h-5.4l2.6-15.4h5.7l1.1,3.8a1.69,1.69,0,0,0,.2.5,30.352,30.352,0,0,1,.9,4h.1a19.134,19.134,0,0,1,.4-2.1c.2-.7.4-1.6.7-2.5l1.1-3.7h5.7l2.4,15.4Z" fill="#0f3d5c"/><path d="M98.446,50.025a4.116,4.116,0,0,1-.3-.8,1.087,1.087,0,0,1-.1-.5,4.329,4.329,0,0,0-.1.5l-.4.8-1.7,3.5h-6.3l5.5-8.2-4.8-7.2h6.3l1.1,2.5a.1.1,0,0,0,.1.1c.2.5.3.8.4,1.1a.764.764,0,0,1,.2-.5,4.876,4.876,0,0,0,.3-.7l1.2-2.5h6.3l-4.8,7.2,5.5,8.2h-6.3Z" fill="#0f3d5c"/></g></g></svg>