<svg xmlns="http://www.w3.org/2000/svg" xmlns:xlink="http://www.w3.org/1999/xlink" width="237" height="148" viewBox="0 0 237 148"><defs><clipPath id="b"><rect width="237" height="148"/></clipPath></defs><g id="a" clip-path="url(#b)"><rect width="237" height="148" fill="#fff"/><g transform="translate(-30.91 -44.287)"><path d="M653.7,167.317l6.245-6.168-5.532-5.384h2.018l4.8,4.717,4.9-4.717H668.1l-5.508,5.384,6.26,6.168h-2.042l-5.524-5.516-5.516,5.516Z" transform="translate(-455.456 -43.103)" fill="#002773" fill-rule="evenodd"/><path d="M594.4,167.3V155.744h11.374v1.287h-9.971v3.625h9.552v1.287h-9.552v4.065h9.971V167.3Z" transform="translate(-408.309 -43.086)" fill="#002773" fill-rule="evenodd"/><path d="M497.42,167.3h-1.4V155.744h2.071l6.936,10.04,6.944-10.04h2.135V167.3h-1.4V157.124L505.605,167.3h-1.078l-7.108-10.172Z" transform="translate(-330.092 -43.086)" fill="#002773" fill-rule="evenodd"/><rect width="1.435" height="11.552" transform="translate(161.899 112.658)" fill="#002773"/><path d="M410.412,167.3V155.744h10.916v1.287h-9.465v3.686h9.1v1.258h-9.1v5.32Z" transform="translate(-262.025 -43.086)" fill="#002773" fill-rule="evenodd"/><path d="M335.956,166.891a14.8,14.8,0,0,1-2.738-.183,3.361,3.361,0,0,1-1.443-.625,2.758,2.758,0,0,1-.9-1.3,6.774,6.774,0,0,1-.275-2.127V159.5a7.757,7.757,0,0,1,.273-2.3,2.7,2.7,0,0,1,.884-1.34,3.418,3.418,0,0,1,1.454-.622,14.649,14.649,0,0,1,2.728-.185H339.8a14.665,14.665,0,0,1,2.73.185,3.418,3.418,0,0,1,1.454.622,2.694,2.694,0,0,1,.877,1.313,7.033,7.033,0,0,1,.281,2.185v3.221a7.017,7.017,0,0,1-.281,2.187,2.7,2.7,0,0,1-.877,1.311,3.3,3.3,0,0,1-1.433.625,14.861,14.861,0,0,1-2.752.183Zm4.526-10.561h-5.225a5.9,5.9,0,0,0-1.721.193,1.867,1.867,0,0,0-.948.644,2.005,2.005,0,0,0-.35.773,7.667,7.667,0,0,0-.1,1.486v3.035a7.667,7.667,0,0,0,.1,1.486,2.008,2.008,0,0,0,.35.773,1.869,1.869,0,0,0,.948.644,5.9,5.9,0,0,0,1.721.193h5.225a5.909,5.909,0,0,0,1.724-.193,1.868,1.868,0,0,0,.948-.644,2.047,2.047,0,0,0,.334-.742,6.518,6.518,0,0,0,.1-1.34v-3.39a6.475,6.475,0,0,0-.1-1.343,2.031,2.031,0,0,0-.334-.739,1.867,1.867,0,0,0-.948-.644A5.907,5.907,0,0,0,340.482,156.33Z" transform="translate(-198.572 -42.542)" fill="#002773" fill-rule="evenodd"/><path d="M91.3,103.187l-2.168,0-6.741,6.741v2.254l-1.551,1.551v9.531l1.591,1.591,0,2.264,6.741,6.741,2.354,0,1.46,1.463h9.531l1.546-1.55,2.242,0,6.741-6.741,0-2.251,1.566-1.563v-9.531l-1.6-1.592,0-2.146-6.741-6.741h-2.151l-1.654-1.654H92.938L91.3,103.187Zm-6.04,23.082h6.589l4.521-4.523,0,5.488-3.831,3.836v-2.687h-2.6l0,2.566-4.677-4.681Zm24.816-15.588-6.309-.005-4.806,4.8,0-5.541,3.945-3.955v2.5H105.5l.008-2.378,4.567,4.575Zm-7.149,20.337-1.843-1.839-1.834,1.834,1.7,1.7H94.558l4.4-4.4,0-6.729,3.963,3.961,0,5.471Zm-2.055-11.19,5.555,0,3.832,3.831h-2.585v2.6l2.463,0-4.62,4.616.005-6.4-4.649-4.651ZM83.44,115.221l4.606,4.612,6.566,0-3.843,3.841-5.522,0L87.02,121.9l-1.834-1.834-1.751,1.743,0-6.587Zm9.084-9.271,1.821,1.825,1.84-1.84-1.79-1.79,6.686,0-4.714,4.709,0,6.462-3.84-3.842,0-5.529Zm2.084,11.286-5.48,0-3.955-3.945h2.6V110.7l-2.47-.009,4.626-4.626v6.5l4.678,4.676Zm17.4,4.509-4.5-4.5-6.626,0,3.961-3.963,5.477,0-1.891,1.887,1.834,1.834,1.75-1.738Z" fill="#002773" fill-rule="evenodd"/><path d="M738.334,189.842h.533a.864.864,0,0,0,.522-.113.369.369,0,0,0,.14-.3.363.363,0,0,0-.068-.215.392.392,0,0,0-.185-.142,1.4,1.4,0,0,0-.442-.047h-.5v.817Zm-.439,1.531v-2.718h.936a2.283,2.283,0,0,1,.694.075.672.672,0,0,1,.343.263.7.7,0,0,1,.127.4.718.718,0,0,1-.214.518.843.843,0,0,1-.566.248.731.731,0,0,1,.231.144,3.055,3.055,0,0,1,.4.539l.332.532h-.533l-.242-.428a2.18,2.18,0,0,0-.461-.634.559.559,0,0,0-.352-.092h-.258v1.153Zm1.111-3.507a2.158,2.158,0,0,1,1.035.273,1.942,1.942,0,0,1,.789.781,2.112,2.112,0,0,1,.006,2.105,1.978,1.978,0,0,1-.781.781,2.106,2.106,0,0,1-2.1,0,1.988,1.988,0,0,1-.783-.781,2.1,2.1,0,0,1,0-2.105,1.957,1.957,0,0,1,.789-.781,2.158,2.158,0,0,1,1.039-.273Zm0-.419a2.587,2.587,0,0,1,1.243.327,2.324,2.324,0,0,1,.945.935,2.539,2.539,0,0,1,0,2.526,2.337,2.337,0,0,1-.935.937,2.539,2.539,0,0,1-2.518,0,2.351,2.351,0,0,1-.937-.937,2.531,2.531,0,0,1,0-2.526,2.343,2.343,0,0,1,.947-.935A2.589,2.589,0,0,1,739.006,187.447Z" transform="translate(-521.263 -68.292)" fill="#002773" fill-rule="evenodd"/><path d="M258.2,162.988h1.382c-.005.056-.01.132-.016.225-.011.222-.016.376-.016.458a1.618,1.618,0,0,0,.715,1.515,5.73,5.73,0,0,0,2.667.426h3.022a6.492,6.492,0,0,0,3.064-.466,1.972,1.972,0,0,0,.712-1.777,1.862,1.862,0,0,0-.5-1.5,3.473,3.473,0,0,0-2.042-.408h-4.881a5.487,5.487,0,0,1-3.247-.718,2.926,2.926,0,0,1-.935-2.463,2.794,2.794,0,0,1,1.067-2.5,7.493,7.493,0,0,1,3.906-.718h2.624a18.653,18.653,0,0,1,3.008.164,2.968,2.968,0,0,1,1.351.564,2.014,2.014,0,0,1,.585.9,4.345,4.345,0,0,1,.191,1.393v.334h-1.38v-.177a1.8,1.8,0,0,0-.548-1.541,4.386,4.386,0,0,0-2.314-.4h-3.943a4.873,4.873,0,0,0-2.426.411,1.682,1.682,0,0,0-.625,1.515,1.741,1.741,0,0,0,.609,1.536,5.05,5.05,0,0,0,2.534.419h4.152a14.285,14.285,0,0,1,2.045.109,3.008,3.008,0,0,1,1.1.357,1.96,1.96,0,0,1,.85.977,5.17,5.17,0,0,1,.251,1.83,3.117,3.117,0,0,1-1.035,2.685,6.649,6.649,0,0,1-3.734.76h-3.919a5.911,5.911,0,0,1-3.318-.7,2.665,2.665,0,0,1-.991-2.333c0-.143.008-.389.024-.736A.836.836,0,0,1,258.2,162.988Z" transform="translate(-140.953 -42.542)" fill="#002773" fill-rule="evenodd"/></g></g></svg>