<svg xmlns="http://www.w3.org/2000/svg" xmlns:xlink="http://www.w3.org/1999/xlink" width="237" height="148" viewBox="0 0 237 148"><defs><clipPath id="b"><rect width="237" height="148"/></clipPath></defs><g id="a" clip-path="url(#b)"><g transform="translate(-380.715 -169.697)"><path d="M439.388,241.477c-.1,0-.189,0-.238.008-.056.1-.14.24-.263.43a30.763,30.763,0,0,1,5.61.506l-.546.528a27.025,27.025,0,0,0-5.045-.433c-.27,0-.326,0-.39,0-.065.1-.211.285-.356.46.164-.01.481-.015.92-.015a27.541,27.541,0,0,1,4.483.361l-.547.529a26.755,26.755,0,0,0-3.894-.288c-.457,0-.976.017-1.442.044-.105.121-.38.417-.463.508a20.217,20.217,0,0,1,2.1-.095,22.438,22.438,0,0,1,3.286.23l-.547.524a21.012,21.012,0,0,0-2.433-.145,9.6,9.6,0,0,0-5.33,1.464,9.48,9.48,0,0,0,6.719,2.786h.236l-.882.852a29.261,29.261,0,0,1-10.709-4.478,34.887,34.887,0,0,0-6.633-3.8l-.015-.624,1.645.7.558-.444,5.369,2.46-.351.28-2.755-1.2-.272.213,1.433.8a6.191,6.191,0,0,0,2.978.974c1.859,0,3.528-1.318,4.6-3.636a20.807,20.807,0,0,1,2.713-.153,34.681,34.681,0,0,1,6.543.643l-.57.551a32.741,32.741,0,0,0-5.519-.551M434.17,256.8a12.648,12.648,0,1,1,12.648-12.648A12.65,12.65,0,0,1,434.17,256.8m0-26.1a13.455,13.455,0,1,0,13.455,13.455A13.443,13.443,0,0,0,434.17,230.7m35.548,18.811h7.714v3.614H465.566V235.181h4.152Zm17.043-9.3h3.869v12.917h-3.638v-1.487a3.822,3.822,0,0,1-3.665,1.872c-3.306,0-5.023-1.487-5.023-5.741V240.2h3.869v7.382c0,1.718.743,2.487,2.307,2.487,1.41,0,2.281-.769,2.281-2.487Zm6.843-.487c0-3.126,1.974-4.792,5.075-4.792a7.72,7.72,0,0,1,1.641.154v3.126s-.538-.051-1-.051c-1.2,0-1.845.411-1.845,1.538v.512h2.845v3.153h-2.845v9.764H493.6v-9.764h-1.948V240.2H493.6v-.487m13.532.487h2.948v3.153h-2.948v5.023c0,1.384.718,1.743,1.846,1.743.461,0,1.1-.077,1.1-.077v3.1a9.394,9.394,0,0,1-1.845.205c-3.1,0-4.972-1.41-4.972-4.537v-5.459h-1.949V240.2h1.949v-3.767h3.869Zm11.515-.384c3.281,0,5,1.487,5,5.741v7.56H519.78v-7.38c0-1.718-.743-2.487-2.358-2.487-1.461,0-2.331.769-2.331,2.487v7.38H511.22V235.207h3.895v6.255a3.968,3.968,0,0,1,3.537-1.641m14.865,8.278c0,1.41-1.333,2.461-3.383,2.461-1,0-1.589-.461-1.589-1.333,0-.666.411-1.23,1.718-1.41l2.23-.308a6.667,6.667,0,0,0,1.025-.2Zm-2.152-8.278c-3.819,0-5.665,1.461-5.818,4.2h3.767c.051-.718.462-1.255,2.051-1.255,1.409,0,2.076.461,2.076,1.153,0,.615-.385.846-1.334.949l-2.46.257c-3.331.358-4.844,1.742-4.844,4.254,0,2.331,1.435,4.126,4.486,4.126a5.04,5.04,0,0,0,4.381-2v1.615h3.538v-8.483c0-3.562-2.076-4.818-5.844-4.818m14.792,0c3.357,0,5.075,1.487,5.075,5.741v7.56h-3.871v-7.38c0-1.718-.742-2.487-2.357-2.487-1.461,0-2.333.769-2.333,2.487v7.38H538.8V240.2h3.64v1.487a3.856,3.856,0,0,1,3.716-1.87m13.238,5.2c3.28.435,4.921,1.461,4.921,4.152,0,2.716-1.922,4.331-6,4.331-4.434,0-6-1.769-6.075-4.357h3.819c.1.949.769,1.41,2.255,1.41,1.511,0,2.127-.359,2.127-1.077,0-.666-.514-.973-1.846-1.153l-1.358-.18c-2.845-.384-4.484-1.487-4.484-4.049,0-2.461,1.819-4.28,5.638-4.28,3.537,0,5.433,1.41,5.613,4.2h-3.768c-.128-.743-.538-1.2-1.845-1.2-1.282,0-1.769.435-1.769,1s.308.87,1.409,1.024l1.358.18M574,248.1c0,1.408-1.334,2.46-3.383,2.46-1,0-1.589-.461-1.589-1.333,0-.666.41-1.23,1.716-1.41l2.23-.308a6.685,6.685,0,0,0,1.026-.2Zm-2.154-8.279c-3.818,0-5.663,1.461-5.817,4.2H569.8c.051-.718.461-1.255,2.049-1.255,1.411,0,2.077.461,2.077,1.153,0,.615-.385.846-1.333.949l-2.461.257c-3.331.358-4.844,1.742-4.844,4.254,0,2.331,1.435,4.126,4.484,4.126a5.043,5.043,0,0,0,4.383-2v1.615h3.537v-8.483c0-3.562-2.076-4.818-5.844-4.818" transform="translate(0 0)" fill="#10192e"/></g></g></svg>