<svg xmlns="http://www.w3.org/2000/svg" xmlns:xlink="http://www.w3.org/1999/xlink" width="237" height="148" viewBox="0 0 237 148"><defs><clipPath id="b"><rect width="237" height="148"/></clipPath></defs><g id="a" clip-path="url(#b)"><rect width="237" height="148" fill="#fff"/><g transform="translate(-45.633 -93.452)"><path d="M112.209,197.815c5.579-8.694,12.648-15.992,26.9-16.557a42.853,42.853,0,0,0-.879-14.733l5.677-6.758-6.826,2.433a23.019,23.019,0,0,0-1.825-3.244c.676-2.23,1.385-4.393,2.061-6.623-1.464,1.149-2.962,2.23-4.426,3.379a15.936,15.936,0,0,0-7.3-4.258c-.563-1.757-1.025-3.514-1.588-5.272-.405,1.532-.912,3.064-1.318,4.6-4.643-.876-8.8.385-12.638,3.109l-1.622-3.987c4.036-4.284-.374-7.475,1.3-8.386-.23-.7-.928-.782-1.789-.675-1.777-2.329,9-2.5,3.679-8.4a3.647,3.647,0,0,1-3.038,1.958c-.01-1.488-.573-1.948-1.215-2.261a1.9,1.9,0,0,1-2.234,1.108c-3.756-.839-10.349-.482-7.047,6.418l-1.249,1.181a2.375,2.375,0,0,0-1.485-.439,2.324,2.324,0,0,1,.439,1.451c-2.418,4.373-1.264,6.564,1.181,7.965-.669.616-.377,1.072.574,1.417a2.114,2.114,0,0,0,1.282,2.734l.2,1.789q-1.114,1.738.743,2.4.54,2.363,3.51,2.025.169,1.468.337,2.936c-3.692,9.171-3.37,24.607,5.419,32.945,4.557-7.6,10.266-11.393,16.625-13.043A33.76,33.76,0,0,0,110.587,196.8Z" transform="translate(0 0)" fill="#071e3c" fill-rule="evenodd"/><g transform="translate(96.055 133.975)"><path d="M225.029,218.938a6.138,6.138,0,0,1,3.577.338L226.379,207.9Q225.7,213.42,225.029,218.938Z" transform="translate(-198.368 -193.344)" fill="#fff" fill-rule="evenodd"/><path d="M184.267,243.548l-5.231-8.674,7.087,6.109A4.284,4.284,0,0,0,184.267,243.548Z" transform="translate(-162.331 -214.477)" fill="#fff" fill-rule="evenodd"/><path d="M255.275,241.6l6.817-6.885-4.151,9.045A10.406,10.406,0,0,0,255.275,241.6Z" transform="translate(-222.066 -214.356)" fill="#fff" fill-rule="evenodd"/><path d="M275.7,270.922a11.576,11.576,0,0,1,1.384,3.071l6.716-6.379Z" transform="translate(-238.069 -240.131)" fill="#fff" fill-rule="evenodd"/><path d="M201.892,272.094a2.019,2.019,0,0,1,.473-2.767c-.332-3.128,1.007-4.646,3.105-5.434,3.4-.844,6.983.36,10.834,4.556,1,1.5.98,1.883.81,2.194l-1.789-1.958-1.046,1.114,2.059,1.89a3.738,3.738,0,0,1-4.05-.709c-.585-.54-1-1.688-1.755-1.62a10.53,10.53,0,0,0-6.446-.135l.439.945c2.43-.886,5.006-.273,7.8,2.531a1.324,1.324,0,0,0,2.126.169l.236,1.08.27.337c1.069-.641,1.721-.709,1.148.1-.709.585-1.283,1.643-2.126,1.451q-.726-.3-.506.743l2.8,6.514a22.593,22.593,0,0,0-8.336,2.228l-.979-2.768c.529-.765,1.057-1.609,1.586-2.464-2.576,1.26-3.454.765-3.51-.675.005-.675.1-.782.557-.624.471-.023.791-.618.118-.608-.337.068-.456.068-.794.135-.456.072-.641-.579-.32-.591a3.949,3.949,0,0,0,1.451.034c.583-.141.374-.826-1.181-.557-.393.07-.6-.222-.405-.472.36-.292.855-.383,1.08-.76-.585-.124-.917-.618-1.755-.371a21.409,21.409,0,0,1,.371-2.565c.179-.382.089-.612-.27-.439-.713.55-1.141.679-1.046.034a2.055,2.055,0,0,1,.405-1.721c.676-.514.677-1.189.3-1.181a2.867,2.867,0,0,0-1.654,2.362Zm2.295-5.906a2.349,2.349,0,0,0-.945,2.43,4.414,4.414,0,0,1,1.485-1.147l-.54-1.283Zm.979-.742.81,1.654a9.794,9.794,0,0,1,3.24.068l.338-1.688a4.726,4.726,0,0,0-4.388-.034Zm5.366,2.092,2.767,1.687.911-1.316-3-1.958-.675,1.586Zm-4.371,5.5c.59.433.618.057.505-.421H208.6c.2.331.774.022,1.212-.017.287.051.412-.28-.152-.555-.739-1.023-2.765-1.325-4.225-.3-.337.342-.18.623.2.875A1.556,1.556,0,0,1,206.16,273.04Z" transform="translate(-179.955 -237.016)" fill="#fff" fill-rule="evenodd"/><path d="M189.029,285.8a10.833,10.833,0,0,0-.405,2.362l-2.261-1.553q.017-1.08.034-2.16Z" transform="translate(-168.072 -253.324)" fill="#fff" fill-rule="evenodd"/><path d="M268.265,315.323c-1.172.981-2.651,1.887-1.62,3.51l2.261,4.286,2.194.068a42.058,42.058,0,0,1-2.565-4.961A5.365,5.365,0,0,1,268.265,315.323Z" transform="translate(-230.702 -277.511)" fill="#fff" fill-rule="evenodd"/><path d="M191.923,346.482c-.726-.005-1.4-.309-1.856-1.485-.506-1.147-.979-2.362-1.485-3.51-5.783-.281-3.87,6.862-5.805,10.294A29.873,29.873,0,0,1,191.923,346.482Z" transform="translate(-165.262 -298.005)" fill="#fff" fill-rule="evenodd"/><path d="M168.41,318.528c-10.7-.607-5.8,13.365-8.707,20.047,7.178-6.008,1.969-16.436,10.6-16.3Z" transform="translate(-147.183 -280.007)" fill="#fff" fill-rule="evenodd"/><path d="M141.184,225.459a10.119,10.119,0,0,1-1.352-4.6,23.755,23.755,0,0,0-1.216-3.582L133.5,203.918a2.762,2.762,0,0,0-1.856-1.924,8.23,8.23,0,0,1-2.227-.607c-.372-.3-.721.321-.506.878a1.584,1.584,0,0,0,1.519.979c.455.107.725.3.607.878.166,1.168-.369,3.061.473,3.341.709-.045.99.326.236.607q.253,6.142.506,12.285a14.747,14.747,0,0,0,.675,2.565l2.768,8.707C136.681,227.931,138.485,225.823,141.184,225.459Z" transform="translate(-123.002 -188.178)" fill="#fff" fill-rule="evenodd"/><path d="M114.831,203.948a13.667,13.667,0,0,0-2.677.943c-.074.269-.063.539.539.808l-.673.067q-.033.572-.067,1.145h1.279l-.774.69a.556.556,0,0,0-.017.64l.707,1.128a2.03,2.03,0,0,1,1.667-1.8l-.034-.943h.774l.017-1.2-1.33-.034c.23-.118.477-.32.707-.438C114.915,204.593,114.864,204.313,114.831,203.948Z" transform="translate(-109.769 -190.246)" fill="#fff" fill-rule="evenodd"/><path d="M121.68,224.87q-.008-1.372-.017-2.744a1.259,1.259,0,0,1,.37-1.077l1.246-.926,1.262,1.616a2.2,2.2,0,0,1,.337,1.279l.017,1.919c.817.64.463,1.577-.05,1.128a2.917,2.917,0,0,0-2.963-.034C121.124,226.224,120.939,225.155,121.68,224.87Z" transform="translate(-117.022 -202.919)" fill="#fff" fill-rule="evenodd"/><path d="M117.646,192.861l-.017-1.246c2.016-1.878,4.387-1.669,5.909.269q-.034.547-.067,1.094A4.231,4.231,0,0,0,117.646,192.861Z" transform="translate(-114.217 -179.563)" fill="#fff" fill-rule="evenodd"/><path d="M102.281,174.608a2.19,2.19,0,0,1-.3-1.953,2.32,2.32,0,0,0,.471-2.559c.944-.466,1.346,1.26,2.289-1.313,1.2.18,1.995,1.02,2.98-.286.168-.348.572-.713.909.017.4.679,1.15.92,2.155.32.969-.655,1.2.041,1.279.741-.146.965,1.021.752,1.936.522-.752.836,1.122,2.952.219,4.478C113.539,169.778,102.948,169.82,102.281,174.608Z" transform="translate(-101.865 -162.151)" fill="#fff" fill-rule="evenodd"/><path d="M116.918,145.278a2.993,2.993,0,0,1,1.633-4.158c1.891-.73,3.7,1.285,5.824-.471a2.191,2.191,0,0,1-.252,1.481,3.953,3.953,0,0,0,4.713-.859c.509,3.568-4.937,2.667-5.454,5l-.808-.64q-1.288,1.279-2.239-.2c-.215-.267-.593-.315-1.08-.151-.52.176-.66.516-1.09.791S117.32,146.231,116.918,145.278Z" transform="translate(-113.439 -140.649)" fill="#fff" fill-rule="evenodd"/></g><path d="M345.4,220.426v-.931q2.85.135,4.443.137,1.625,0,4.332-.137v.931a18.317,18.317,0,0,0-2.5.5q-.331.213-.331,1.095l-.034,3.232v10.461h4.051a3.783,3.783,0,0,0,1.338-.15,2.455,2.455,0,0,0,.878-.768,23.837,23.837,0,0,0,1.493-2.563h1q-.741,2.325-1.455,5.1-4.732-.135-7.874-.137-2.571,0-5.343.137v-.932a10.458,10.458,0,0,0,2.181-.6.908.908,0,0,0,.251-.61q.051-.451.049-6.031l-.011-4.576v-.807a12.6,12.6,0,0,0-.122-2.413.669.669,0,0,0-.3-.425A15.645,15.645,0,0,0,345.4,220.426Z" transform="translate(-196.626 -68.451)" fill="#071e3c" fill-rule="evenodd"/><path d="M413.642,217.352a2.037,2.037,0,0,1,0,4.074,2.04,2.04,0,0,1-1.447-3.477,1.953,1.953,0,0,1,1.447-.6Zm-3.649,8.448v-.906a14.313,14.313,0,0,0,4.932-1.747l.64.339q-.174,1.526-.228,2.717-.084,1.771-.086,5.61a11.178,11.178,0,0,0,.112,2.048.711.711,0,0,0,.3.433,7.756,7.756,0,0,0,1.5.485v.88q-1.745-.135-3.194-.137c-.923,0-2.266.047-4.04.137v-.88l.331-.073a3.875,3.875,0,0,0,1.305-.438.978.978,0,0,0,.253-.644c.077-.8.111-2.442.111-4.932a14.143,14.143,0,0,0-.111-2.516.67.67,0,0,0-.717-.463A8.4,8.4,0,0,0,409.993,225.8Z" transform="translate(-247.187 -66.773)" fill="#071e3c" fill-rule="evenodd"/><path d="M440.784,219.2v-.88a24.94,24.94,0,0,0,5.467-1.786l.681.386a46.5,46.5,0,0,0-.373,6.817c0,.279,0,.683.014,1.219a14.278,14.278,0,0,1,2.5-1.914,3.691,3.691,0,0,1,1.687-.4,3.9,3.9,0,0,1,2.977,1.309,5.511,5.511,0,0,1,1.219,3.885,6.916,6.916,0,0,1-2.325,5.4,8.62,8.62,0,0,1-5.982,2.091,11.365,11.365,0,0,1-3.818-.73q.12-3.535.123-8.744,0-5.808-.08-6.121a.8.8,0,0,0-.9-.618q-.347,0-1.191.09Zm5.789,13.994a4.1,4.1,0,0,0,1.8.481,2.318,2.318,0,0,0,1.881-.781,5.3,5.3,0,0,0,.926-3.447,5.954,5.954,0,0,0-.9-3.6,1.882,1.882,0,0,0-1.564-.764,1.937,1.937,0,0,0-1.522.721,3.7,3.7,0,0,0-.624,2.408Z" transform="translate(-271.363 -66.136)" fill="#071e3c" fill-rule="evenodd"/><path d="M522.075,253.414l.707.957a17.641,17.641,0,0,1-3.94,2.425,6.107,6.107,0,0,1-5.857-1.056,6.332,6.332,0,0,1-1.693-4.628,6.5,6.5,0,0,1,1.935-4.881,6.634,6.634,0,0,1,4.8-1.872,4.7,4.7,0,0,1,3.829,1.46,5.088,5.088,0,0,1,.926,2.979,8.544,8.544,0,0,0-1.265.944q-1.438-.051-2.917-.051-1.94,0-3.6.051-.014.277-.014.464a5.573,5.573,0,0,0,.879,3.121,2.94,2.94,0,0,0,2.638,1.343,5.1,5.1,0,0,0,1.642-.262,9.274,9.274,0,0,0,1.931-1Zm-7.048-4.967q.76.026,1.256.026,1.172,0,2.861-.1a3.477,3.477,0,0,0-.581-2.125,1.785,1.785,0,0,0-1.368-.528,1.928,1.928,0,0,0-1.447.631A3.43,3.43,0,0,0,515.027,248.448Z" transform="translate(-326.607 -87.935)" fill="#071e3c" fill-rule="evenodd"/><path d="M566.755,247.41v-.88a20.842,20.842,0,0,0,5.317-1.713l.641.339a20.429,20.429,0,0,0-.266,2.906,11.337,11.337,0,0,1,2.02-2.477,2.564,2.564,0,0,1,1.534-.464,3.459,3.459,0,0,1,1.328.3,27.988,27.988,0,0,0-.646,3.258h-.911a1.134,1.134,0,0,0-.348-.742,1.006,1.006,0,0,0-.669-.241,1.589,1.589,0,0,0-1.117.515,4.271,4.271,0,0,0-1.1,1.949,8.937,8.937,0,0,0-.16,2.039c0,1.7.018,2.683.055,2.945a.842.842,0,0,0,.293.575,4.874,4.874,0,0,0,1.489.455c.119.026.293.065.527.124v.88q-2.549-.135-4.122-.137-1.69,0-3.866.137v-.88c1.076-.21,1.685-.442,1.827-.7q.309-.541.307-5.168a9.406,9.406,0,0,0-.2-2.786.772.772,0,0,0-.724-.335A10.578,10.578,0,0,0,566.755,247.41Z" transform="translate(-370.065 -88.293)" fill="#071e3c" fill-rule="evenodd"/><path d="M626.417,233.763l.146.109c-.266.468.491.329.28.836-.9-.094-3.584.077-4.623.034l-.039,1.494-.039,1.726-.039,1.708a6.831,6.831,0,0,0,.4,3.014,1.187,1.187,0,0,0,1.035.61,4.662,4.662,0,0,0,1.584-.477l.455.906a19.239,19.239,0,0,1-2.528,1.369,4.762,4.762,0,0,1-1.61.3,2.426,2.426,0,0,1-1.867-.743,3.085,3.085,0,0,1-.7-2.185l.051-2.906.1-4.816L618,234.716c-.09,0-.352.009-.777.026v-.931a6.229,6.229,0,0,0,2.219-1.4,11.783,11.783,0,0,0,2.043-2.868H622.6a34.249,34.249,0,0,0-.378,4.08C623.534,233.659,625.088,233.784,626.417,233.763Z" transform="translate(-409.612 -76.329)" fill="#071e3c" fill-rule="evenodd"/><path d="M653.183,249.258l.05-.9c1.524.088,2.805.017,3.634.017q1.295,0,3.422-.134v.862c-.133.021-.236.038-.3.046a2.588,2.588,0,0,0-.945.265.459.459,0,0,0-.176.366,3,3,0,0,0,.266.812l1.885,4.608,1.5-4.335a3.672,3.672,0,0,0,.236-1.047.472.472,0,0,0-.163-.366,2.5,2.5,0,0,0-.854-.349v-.862c.957.088,1.739.134,2.352.134a16.82,16.82,0,0,0,2.061-.134v.862a4.141,4.141,0,0,0-1.219.517,2.543,2.543,0,0,0-.584.891c-.206.446-.846,2.107-1.919,4.97q-2.022,5.424-2.627,6.652c-.569,1.153-2.066,4.56-2.728,5a5.014,5.014,0,0,1-3.539.629l.239-3.055c1.055.83,1.992.837,3.586-.361.475-.357,1.505-3.386,2.025-4.815l-3.584-7.947a6.518,6.518,0,0,0-1-1.8C654.567,249.585,654.5,249.224,653.183,249.258Z" transform="translate(-437.784 -90.978)" fill="#071e3c" fill-rule="evenodd"/><path d="M355.02,355.154h-1.114a5.826,5.826,0,0,0-1.113-3.007,2.7,2.7,0,0,0-2.026-.766,2.448,2.448,0,0,0-1.79.626,2.134,2.134,0,0,0-.638,1.595,2.375,2.375,0,0,0,.589,1.563,9.039,9.039,0,0,0,2.8,1.767,8.282,8.282,0,0,1,3.1,2.217,4.769,4.769,0,0,1,.878,2.923,5.174,5.174,0,0,1-1.509,3.684c-1,1.057-2.63,1.583-4.868,1.583a13.28,13.28,0,0,1-2.273-.187,12.144,12.144,0,0,1-2.014-.538q.188-2.051.19-4.051v-.782h1.091a7.64,7.64,0,0,0,1.045,3.106,2.774,2.774,0,0,0,2.314,1.061,2.513,2.513,0,0,0,1.893-.734,2.593,2.593,0,0,0,.714-1.882,2.708,2.708,0,0,0-.3-1.284,3.14,3.14,0,0,0-.878-1.017,13.5,13.5,0,0,0-2.121-1.2,8.79,8.79,0,0,1-3.162-2.253,4.118,4.118,0,0,1-.8-2.536,4.67,4.67,0,0,1,1.512-3.561,6.162,6.162,0,0,1,4.367-1.415,12.744,12.744,0,0,1,4.108.762q-.068,1.83-.068,2.544C354.952,353.922,354.975,354.516,355.02,355.154Z" transform="translate(-196.339 -170.755)" fill="#071e3c" fill-rule="evenodd"/><path d="M408.394,385l.644.854a16.155,16.155,0,0,1-3.589,2.164,5.659,5.659,0,0,1-5.335-.942,5.584,5.584,0,0,1-1.542-4.129,5.734,5.734,0,0,1,1.763-4.354,6.11,6.11,0,0,1,4.373-1.67,4.323,4.323,0,0,1,3.487,1.3,4.475,4.475,0,0,1,.843,2.658,7.77,7.77,0,0,0-1.152.842q-1.309-.046-2.657-.046-1.767,0-3.279.046-.013.247-.013.413a4.9,4.9,0,0,0,.8,2.784,2.693,2.693,0,0,0,2.4,1.2,4.738,4.738,0,0,0,1.5-.234,8.52,8.52,0,0,0,1.758-.889Zm-6.419-4.431q.693.023,1.144.023,1.068,0,2.606-.092a3.056,3.056,0,0,0-.53-1.9,1.643,1.643,0,0,0-1.246-.471,1.772,1.772,0,0,0-1.318.563A3.023,3.023,0,0,0,401.974,380.572Z" transform="translate(-238.289 -191.804)" fill="#071e3c" fill-rule="evenodd"/><path d="M463.551,378.955l.131.245a11.334,11.334,0,0,0-.767,1.49,10.538,10.538,0,0,0-1.732-.169,4.6,4.6,0,0,1,.677,2.3,4.313,4.313,0,0,1-.627,2.27,4.376,4.376,0,0,1-1.9,1.65,6.164,6.164,0,0,1-2.679.611c-.2,0-.442-.013-.726-.036s-.6-.062-.965-.107c-.555.5-.83.887-.83,1.177,0,.156.1.286.3.392a6.616,6.616,0,0,0,2.355.245l2.179-.027c1.782,0,2.955.232,3.527.7a2.532,2.532,0,0,1,.862,2.1,4.27,4.27,0,0,1-.848,2.564,5.78,5.78,0,0,1-2.7,1.869,12.27,12.27,0,0,1-4.353.7,7.242,7.242,0,0,1-4.123-.968,1.989,1.989,0,0,1-.965-1.659,1.182,1.182,0,0,1,.171-.655,2.214,2.214,0,0,1,.7-.584,21.716,21.716,0,0,0,1.93-1.32,3.026,3.026,0,0,1-1.421-.892,1.969,1.969,0,0,1-.415-1.24,1.333,1.333,0,0,1,.113-.624,1.829,1.829,0,0,1,.483-.513q1.36-1.057,1.967-1.606a4.115,4.115,0,0,1-1.624-1.24,4.008,4.008,0,0,1-.713-2.4,4.3,4.3,0,0,1,1.385-3.309,5.6,5.6,0,0,1,3.938-1.28,6.9,6.9,0,0,1,1.276.121,7.82,7.82,0,0,1,1.29.352l1.543.027a18.021,18.021,0,0,0,2.567-.183Zm-8.512,3.684a5.34,5.34,0,0,0,.7,3.006,1.311,1.311,0,0,0,1.137.6,1.269,1.269,0,0,0,1.051-.62,4.285,4.285,0,0,0,.442-2.332,5.343,5.343,0,0,0-.632-2.939,1.313,1.313,0,0,0-1.136-.589,1.344,1.344,0,0,0-1.105.62,4.042,4.042,0,0,0-.456,2.257Zm-.528,9.316a2.535,2.535,0,0,0-1.245,1.829,1.513,1.513,0,0,0,.735,1.151,3.708,3.708,0,0,0,2.228.549,5.863,5.863,0,0,0,3.126-.709,1.956,1.956,0,0,0,1.128-1.605.9.9,0,0,0-.4-.812,4.271,4.271,0,0,0-2.129-.352l-1.637.027C456.032,392.03,455.427,392,454.512,391.954Z" transform="translate(-278.868 -193.145)" fill="#071e3c" fill-rule="evenodd"/><path d="M528.863,385.569v.854a28.839,28.839,0,0,0-2.971.476,17.322,17.322,0,0,0-2.2.677l-.606-.346a15.864,15.864,0,0,0,.23-1.661,13.958,13.958,0,0,1-2.29,1.649,3.536,3.536,0,0,1-1.5.3,4.125,4.125,0,0,1-1.688-.315,2.535,2.535,0,0,1-1.057-.807,2.82,2.82,0,0,1-.455-1.287c-.035-.339-.049-1.216-.049-2.629l.009-2.3a4.578,4.578,0,0,0-.283-2.2,3.347,3.347,0,0,0-1.786-.425v-.772a27.3,27.3,0,0,0,5.088-.764l.6.335a15.3,15.3,0,0,0-.168,1.708c-.071,1.362-.106,2.555-.106,3.586a8.173,8.173,0,0,0,.358,3.078,1.369,1.369,0,0,0,1.339.693,2.066,2.066,0,0,0,1.326-.437,2.144,2.144,0,0,0,.721-1.338,29.432,29.432,0,0,0,.115-3.633,4.523,4.523,0,0,0-.239-2.047,3.819,3.819,0,0,0-1.808-.409v-.772c1.5-.134,2.577-.248,3.227-.354a18.094,18.094,0,0,0,1.905-.41l.605.323a15,15,0,0,0-.243,1.96q-.106,1.535-.106,4.625a9.682,9.682,0,0,0,.133,2.295c.111.248.38.37.813.37h.141C528.133,385.585,528.447,385.577,528.863,385.569Z" transform="translate(-328.901 -191.094)" fill="#071e3c" fill-rule="evenodd"/><path d="M582.839,374.753v-.842a18.453,18.453,0,0,0,4.859-1.638l.586.324a20.4,20.4,0,0,0-.243,2.78,10.726,10.726,0,0,1,1.845-2.369,2.269,2.269,0,0,1,1.4-.444,3.046,3.046,0,0,1,1.214.287,27.81,27.81,0,0,0-.59,3.117h-.833a1.106,1.106,0,0,0-.318-.71.9.9,0,0,0-.611-.23,1.424,1.424,0,0,0-1.021.493,4.142,4.142,0,0,0-1,1.864,8.945,8.945,0,0,0-.147,1.951c0,1.63.017,2.567.05,2.817a.819.819,0,0,0,.268.55,4.317,4.317,0,0,0,1.36.435c.109.025.268.062.481.119v.842q-2.329-.129-3.766-.131-1.544,0-3.532.131v-.842c.983-.2,1.54-.423,1.67-.673q.282-.517.28-4.944a9.4,9.4,0,0,0-.184-2.665.7.7,0,0,0-.661-.32A9.2,9.2,0,0,0,582.839,374.753Z" transform="translate(-382.667 -188.158)" fill="#071e3c" fill-rule="evenodd"/><path d="M631.348,381.992a5.278,5.278,0,0,1,1.717-4.1,6.5,6.5,0,0,1,4.562-1.564,6.292,6.292,0,0,1,4.409,1.45,5.123,5.123,0,0,1,1.593,3.988,6.051,6.051,0,0,1-1.691,4.562,6.315,6.315,0,0,1-4.562,1.626,6.16,6.16,0,0,1-4.46-1.513,5.889,5.889,0,0,1-1.567-4.445Zm3.732-.606a8.355,8.355,0,0,0,.984,4.636,1.836,1.836,0,0,0,1.61.813,1.746,1.746,0,0,0,1.487-.7,5.936,5.936,0,0,0,.75-3.448,7.956,7.956,0,0,0-.937-4.445,1.848,1.848,0,0,0-1.61-.825,1.817,1.817,0,0,0-1.521.712A5.332,5.332,0,0,0,635.08,381.386Z" transform="translate(-420.676 -191.331)" fill="#071e3c" fill-rule="evenodd"/><path d="M693.19,384.866h1.071a3.894,3.894,0,0,0,1.027,2.18,2.421,2.421,0,0,0,1.672.651,1.69,1.69,0,0,0,1.144-.363,1.106,1.106,0,0,0,.422-.882,1.343,1.343,0,0,0-.414-.92,10.166,10.166,0,0,0-2.122-1.362,7.314,7.314,0,0,1-2.277-1.673,2.693,2.693,0,0,1-.584-1.688,2.877,2.877,0,0,1,1.177-2.312,5.275,5.275,0,0,1,3.376-.946,8.646,8.646,0,0,1,3.246.666,23.146,23.146,0,0,0-.345,2.781l-1.035-.034a3.314,3.314,0,0,0-.848-1.862,2.021,2.021,0,0,0-1.4-.545,1.5,1.5,0,0,0-1.018.318,1.036,1.036,0,0,0-.361.814,1.132,1.132,0,0,0,.321.787,7.744,7.744,0,0,0,1.96,1.287,8.31,8.31,0,0,1,2.5,1.741,2.67,2.67,0,0,1,.585,1.718,3.461,3.461,0,0,1-1.1,2.463,5.148,5.148,0,0,1-3.766,1.12,12.9,12.9,0,0,1-3.4-.511Q693.175,386.342,693.19,384.866Z" transform="translate(-469 -192.294)" fill="#071e3c" fill-rule="evenodd"/><rect width="64.107" height="1.217" transform="translate(148.974 173.356)" fill="#071e3c"/><rect width="12.984" height="1.217" transform="translate(222.818 173.356)" fill="#071e3c"/></g></g></svg>