<svg xmlns="http://www.w3.org/2000/svg" xmlns:xlink="http://www.w3.org/1999/xlink" width="237" height="148" viewBox="0 0 237 148"><defs><linearGradient id="a" x1="-3.676" y1="45.342" x2="-3.672" y2="45.342" gradientUnits="objectBoundingBox"><stop offset="0" stop-color="#940e19"/><stop offset="0.8" stop-color="#cf0021"/><stop offset="1" stop-color="#cf0021"/></linearGradient><linearGradient id="b" x1="-12.292" y1="32.254" x2="-12.282" y2="32.254" gradientUnits="objectBoundingBox"><stop offset="0" stop-color="#940e19"/><stop offset="0.5" stop-color="#d10022"/><stop offset="1" stop-color="#d10022"/></linearGradient><linearGradient id="c" x1="-19.038" y1="47.928" x2="-19.024" y2="47.928" gradientUnits="objectBoundingBox"><stop offset="0" stop-color="#e95d0c"/><stop offset="0.85" stop-color="#ffc000"/><stop offset="1" stop-color="#ffc000"/></linearGradient><clipPath id="e"><rect width="237" height="148"/></clipPath></defs><g id="d" clip-path="url(#e)"><g transform="translate(-423.224 28.888)"><path d="M557.533,40.086a64.634,64.634,0,0,0-3.957,6.851h0a78.291,78.291,0,0,0-3.585,8.041h4.86c.3-.932.659-1.874,1.043-2.759h7.984a27.791,27.791,0,0,1,1.046,2.759h4.861c-.865-2.24-2.123-5.158-3.576-8.023h0a61.824,61.824,0,0,0-3.967-6.869h-4.709Zm2.35,3.519c1,1.8,1.9,3.616,2.9,5.857h-5.8c.977-2.2,1.877-4.017,2.9-5.857M522.7,40.086c-.237,2.284-.359,5.005-.359,7.444h0c0,2.421.121,4.857.362,7.448H527.3c-.2-1.928-.3-3.579-.361-5.529h4.636a15.747,15.747,0,0,1,1.472,2h0a21.445,21.445,0,0,1,1.782,3.527h5.15a33.808,33.808,0,0,0-2.509-4.006h0a16.508,16.508,0,0,0-1.77-2.146h0a4.471,4.471,0,0,0,3.127-4.292h0a4.278,4.278,0,0,0-1.113-2.946h0c-1.006-1.039-2.566-1.5-5.065-1.5H522.7Zm4.387,2.789h4.052c1.491,0,2.217.183,2.681.676h0a1.7,1.7,0,0,1,.44,1.185h0a2.27,2.27,0,0,1-1.141,1.959h-6.173c0-1.1.049-2.354.141-3.82m-22.8-2.789c-.22,2.36-.362,5.031-.362,7.454h0c0,2.411.161,5.06.363,7.439h14.21c-.073-.993-.131-1.9-.184-2.969h-9.673c-.075-1.116-.11-2.144-.112-3.146h8.924V46.055h-8.924c0-.817.028-2.01.111-3H518.3c.048-1.045.106-1.922.2-2.969H504.284Zm-20.282,0c-.237,2.225-.361,5.028-.361,7.444h0c0,2.421.11,4.791.361,7.448h8.782c3.107,0,5.02-.36,6.208-1.172h0a3.933,3.933,0,0,0,1.482-3.26h0a3.791,3.791,0,0,0-2.56-3.592h0a3.512,3.512,0,0,0,1.774-3.052h0a3.165,3.165,0,0,0-1.1-2.637h0c-1.28-1.089-3.627-1.179-6.123-1.179H484Zm4.384,2.817h3.9c1.575,0,2.1.12,2.55.574h0a1.591,1.591,0,0,1,.369,1.1h0a1.879,1.879,0,0,1-.716,1.53h-6.237c.015-1.114.06-2.15.138-3.2m-.141,5.9h5.608a2.2,2.2,0,0,1,1.589.42h0a1.39,1.39,0,0,1,.5,1.139h0a1.624,1.624,0,0,1-.454,1.214h0a2.9,2.9,0,0,1-2.126.585h-4.975c-.1-1.185-.137-2.379-.141-3.358m55.113-8.718a72.247,72.247,0,0,0-.363,7.571h0a68.871,68.871,0,0,0,.363,7.32h3.965a66.342,66.342,0,0,0,.363-7.32h0c.007-2.626-.143-5.46-.359-7.571h-3.969Zm-68.771,0a72.505,72.505,0,0,0-.363,7.571h0a69.137,69.137,0,0,0,.363,7.32h3.968a67.341,67.341,0,0,0,.362-7.32h0c.006-2.626-.143-5.46-.36-7.571h-3.97Z" fill="url(#a)"/><path d="M576.791,59.836l-7,7.067h0c24.3,0,30.032-5.713,33.375-13.491h0l2.808-7.321c-8.188.236-20.544,5.062-29.182,13.744" fill="url(#b)"/><path d="M593.116,43.307l-7.878,7.98c7.479-5.373,14.938-8.614,22.368-9.451h0l1.812-4.724c-11,0-12.5,2.4-16.3,6.195" fill="url(#c)"/></g></g></svg>