<?xml version="1.0" encoding="utf-8"?>
<!-- Generator: Adobe Illustrator 16.0.0, SVG Export Plug-In . SVG Version: 6.00 Build 0)  -->
<!DOCTYPE svg PUBLIC "-//W3C//DTD SVG 1.1//EN" "http://www.w3.org/Graphics/SVG/1.1/DTD/svg11.dtd">
<svg version="1.1" id="Capa_1" xmlns="http://www.w3.org/2000/svg" xmlns:xlink="http://www.w3.org/1999/xlink" x="0px" y="0px"
	 width="600px" height="600px" viewBox="0 0 600 600" enable-background="new 0 0 600 600" xml:space="preserve">
<g>
	<g>
		<path fill="#CCCCCC" d="M553.868,372.62c-2.051-5.309-7.538-8.457-13.155-7.548l-282.362,84.287L139.265,50.681
			c-0.882-2.885-2.816-5.335-5.418-6.863L62.323,1.072c-6.06-2.739-13.192-0.047-15.932,6.013
			c-2.351,5.202-0.727,11.34,3.891,14.698H49.92l67.55,40.217l119.086,400.364c-36.105,16.984-51.606,60.021-34.621,96.127
			c16.984,36.104,60.021,51.604,96.126,34.621c32.097-15.1,48.485-51.267,38.676-85.354c-5.941-20.086-20.308-36.604-39.375-45.273
			l249.611-74.293C553.177,385.795,556.264,378.822,553.868,372.62z M313.739,514.621c7.382,25.556-7.354,52.257-32.909,59.637
			c-25.556,7.381-52.257-7.354-59.636-32.91c-7.381-25.555,7.354-52.256,32.91-59.636c4.201-1.213,8.546-1.849,12.917-1.889
			C288.571,479.824,307.565,493.973,313.739,514.621z"/>
	</g>
</g>
<g>
	<g>
		<path fill="#CCCCCC" d="M500.654,330.644c-0.013-0.044-0.026-0.087-0.039-0.13l-35.401-119.085
			c-3.877-13.209-17.728-20.772-30.937-16.896c-0.043,0.012-0.087,0.026-0.129,0.039l-95.124,28.296L243.9,251.164
			c-13.209,3.877-20.772,17.727-16.896,30.936c0.012,0.044,0.026,0.087,0.039,0.129l35.28,119.206
			c3.199,10.616,12.996,17.866,24.082,17.821c2.408-0.019,4.8-0.383,7.104-1.084l95.124-28.296l95.125-28.297
			C496.967,357.703,504.531,343.853,500.654,330.644z M286.647,394.693c-0.327,0.223-0.757,0.223-1.084,0l-35.4-119.086
			c-0.194-0.435-0.041-0.947,0.361-1.204v-0.12l83.564-24.925l36.123,120.41L286.647,394.693z M477.016,338.461l-83.564,24.926
			l-36.123-120.411l83.444-25.286c0.375,0.02,0.703,0.254,0.843,0.602l35.4,119.085V338.461z"/>
	</g>
</g>
<g>
	<g>
		<path fill="#CCCCCC" d="M410.55,158.568l-25.286-85.01c-4-13.165-17.871-20.638-31.066-16.737L276.894,79.82l-77.303,22.999
			c-13.214,3.948-20.75,17.836-16.857,31.066l25.286,85.13c3.937,13.191,17.824,20.691,31.013,16.752
			c0.018-0.005,0.034-0.011,0.052-0.015l154.607-46.117C406.905,185.686,414.441,171.798,410.55,158.568z M232.102,212.633
			c-0.313,0.263-0.771,0.263-1.084,0l-25.286-85.01c-0.263-0.313-0.263-0.771,0-1.084l65.864-19.627l25.768,86.696L232.102,212.633z
			 M386.828,166.516v0.12l-65.864,19.627l-25.768-86.695l65.864-19.627c0.386-0.017,0.733,0.232,0.843,0.602l25.286,85.13
			C387.245,166,387.104,166.33,386.828,166.516z"/>
	</g>
</g>
</svg>
