<?xml version="1.0" encoding="utf-8"?>
<!-- Generator: Adobe Illustrator 16.0.0, SVG Export Plug-In . SVG Version: 6.00 Build 0)  -->
<!DOCTYPE svg PUBLIC "-//W3C//DTD SVG 1.1//EN" "http://www.w3.org/Graphics/SVG/1.1/DTD/svg11.dtd">
<svg version="1.1" id="Layer_1" xmlns="http://www.w3.org/2000/svg" xmlns:xlink="http://www.w3.org/1999/xlink" x="0px" y="0px"
	 width="493px" height="406px" viewBox="0 0 493 406" enable-background="new 0 0 493 406" xml:space="preserve">
<path d="M407.706,224.863c2.729,2.729,7.153,2.729,9.882,0c38.809-38.875,38.809-101.833,0-140.705
	c-2.744-2.616-7.075-2.565-9.758,0.113c-2.682,2.682-2.736,7.013-0.124,9.757c33.358,33.421,33.358,87.539,0,120.956
	C404.98,217.713,404.98,222.134,407.706,224.863z"/>
<path d="M440.444,51.408c-2.725,2.729-2.725,7.15,0,9.878c51.451,51.498,51.451,134.939,0,186.437c-2.725,2.729-2.725,7.154,0,9.883
	c2.729,2.725,7.153,2.725,9.883,0c56.896-56.952,56.896-149.234,0-206.186C447.602,48.687,443.177,48.683,440.444,51.408z"/>
<path d="M85.289,84.146c-2.729-2.729-7.154-2.725-9.878,0.004c-38.809,38.875-38.809,101.834,0,140.708
	c2.725,2.729,7.149,2.733,9.878,0.004c2.729-2.725,2.733-7.149,0.004-9.878c-33.358-33.421-33.358-87.538,0-120.959
	C88.022,91.296,88.018,86.872,85.289,84.146z"/>
<path d="M47.611,259.648c2.827,0,5.372-1.703,6.456-4.312c1.08-2.612,0.483-5.614-1.513-7.614
	c-51.451-51.497-51.451-134.938,0-186.437c1.825-1.754,2.558-4.354,1.918-6.802c-0.639-2.448-2.549-4.358-4.998-4.994
	c-2.448-0.639-5.048,0.098-6.799,1.922c-56.901,56.952-56.901,149.23,0,206.182C43.981,258.908,45.759,259.648,47.611,259.648z"/>
<path d="M147.262,275.936h198.471c3.311,0,5.988-2.682,5.988-5.988V95.074l31.593,23c2.674,1.914,6.394,1.314,8.327-1.345
	c1.934-2.655,1.364-6.378-1.275-8.335L351.721,80.26V25.893c0-2.008-1.01-3.879-2.682-4.99L320.116,1.766
	c-1.836-1.216-4.194-1.325-6.136-0.281c-1.941,1.041-3.154,3.068-3.154,5.271v43.728L250.023,6.218
	c-2.102-1.528-4.947-1.528-7.048,0L102.633,108.395c-1.77,1.244-2.729,3.345-2.514,5.497c0.218,2.152,1.579,4.02,3.559,4.885
	c1.98,0.866,4.276,0.597,6.003-0.702l31.593-23.004v174.877C141.274,273.254,143.956,275.936,147.262,275.936z M322.803,17.894
	l16.942,11.215v42.426l-16.942-12.334V17.894z M246.5,18.466l93.246,67.891V263.96H153.25V86.357L246.5,18.466z"/>
</svg>
