<svg id="Layer_1" data-name="Layer 1" xmlns="http://www.w3.org/2000/svg" viewBox="0 0 100 100">
  <path d="M100,25,75,.05V18.77c-12.74,0-22.5,3.06-29.81,9.32l-1.48,1.35a82.15,82.15,0,0,1,6.55,11.22C55,35,61.76,31.28,74.92,31.28V50h0V68.72c-21.11,0-25.86-9.49-31.86-21.51-3.36-6.68-6.81-13.62-13.23-19.12C22.52,21.83,12.77,18.77,0,18.77V31.28c21.12,0,25.86,9.49,31.88,21.51,3.34,6.7,6.81,13.62,13.23,19.12,7.31,6.26,17.06,9.32,29.81,9.32V100l25-25L75,50ZM.07,68.68v12.5c12.76,0,22.52-3.05,29.83-9.31.5-.44,1-.9,1.46-1.36A83.7,83.7,0,0,1,24.81,59.3C20,65,13.25,68.72.07,68.72Z"/>
</svg>
