<svg id="Layer_1" data-name="Layer 1" xmlns="http://www.w3.org/2000/svg" viewBox="0 0 100 100">
  <path d="M71.84,69.12c-1.85-.29-1.9-5.35-1.9-5.35A25.65,25.65,0,0,0,76.5,51.25c3.19,0,5.15-7.62,2-10.31.16-2.82,4.11-22.17-16-22.17s-16.09,19.35-16,22.17c-3.19,2.69-1.23,10.31,2,10.31a25.65,25.65,0,0,0,6.56,12.52s0,5.06-1.88,5.35C47.2,70.06,25,79.78,25,90.46H100C100,79.78,77.74,70.06,71.84,69.12Zm-38.18,1.7a74.45,74.45,0,0,1,13.83-6.55,30.87,30.87,0,0,1-4.37-8.74A11.64,11.64,0,0,1,39.6,50.4a15.42,15.42,0,0,1-.85-6.8,11.73,11.73,0,0,1,1.35-4.36c-.43-4.55-.74-13.48,5.12-20a18.85,18.85,0,0,1,8.56-5.44C53.17,7.47,50,.05,37.53.05,17.43,0,21.38,19.38,21.6,22.28c-3.19,2.69-1.22,10.31,2,10.31a25.54,25.54,0,0,0,6.55,12.52s0,5-1.9,5.33C22.26,51.38,0,61.12,0,71.8H32.2a9.84,9.84,0,0,1,1.4-1Z"/>
</svg>
