<svg id="Layer_1" data-name="Layer 1" xmlns="http://www.w3.org/2000/svg" viewBox="0 0 100 100">
  <defs>
    <style>
      .cls-1 {
        fill: #fff;
      }
    </style>
  </defs>
  <g>
    <path class="cls-1" d="M38.75,23.4c1.93-5.81,3.77-7.16,9.5-7.16,1.75,0,3.51,0,5.27,0,3.51.11,6,1.8,7,5.15.51,1.72,1.34,2.1,2.9,2,1.75-.09,3.52-.09,5.27,0,7.45.31,9.39,6,8.32,11.94-.18,1-.47,2-1.41,2l-2.07.1v3.13q0,16.26,0,32.53c0,7.14-3.48,10.6-10.64,10.61q-13.19,0-26.38,0c-6.37,0-10-3.64-10-10-.06-10.85,0-21.69,0-32.54V37.48c-4.13-.08-3.83-2.91-3.73-5.62.14-4,2.2-7.13,5.7-7.95a40.22,40.22,0,0,1,7-.5C36.48,23.35,37.54,23.4,38.75,23.4Zm-7.31,14c-.07,1-.16,1.67-.16,2.35,0,11.22,0,22.44,0,33.67,0,4.16,1.48,5.6,5.67,5.61q12.87,0,25.76,0c4.71,0,6.11-1.39,6.12-6.11q0-16.24,0-32.5c0-1-.08-1.9-.13-3ZM27.5,32.26h45c0-2.57-1.15-3.82-3.42-4.09a20.27,20.27,0,0,0-2.34,0H32.26C29.65,28.12,27.65,28.78,27.5,32.26Zm28.31-9.1c-2.51-3.44-8.92-3.7-11.86,0Z"/>
    <path class="cls-1" d="M57.28,58.2c0-3.31-.17-6.64.11-9.94a3.75,3.75,0,0,1,2.16-2.77c1.77-.36,2.45,1.11,2.45,2.8,0,6.83.08,13.67-.11,20.49a3.69,3.69,0,0,1-2.16,2.76c-1.77.36-2.47-1.09-2.46-2.8C57.29,65.23,57.28,61.72,57.28,58.2Z"/>
    <path class="cls-1" d="M42.73,58.49c0,3.41.16,6.83-.1,10.22a3.75,3.75,0,0,1-2.08,2.8c-1.75.4-2.52-1-2.53-2.73q0-10.23,0-20.46c0-1.65.66-3.18,2.46-2.81a3.75,3.75,0,0,1,2.14,2.76C42.9,51.66,42.73,55.08,42.73,58.49Z"/>
    <path class="cls-1" d="M47.66,58.21q0-4.83,0-9.64c0-1.58.33-3.08,2.25-3.13s2.5,1.43,2.5,3.17c0,6.53,0,13,0,19.57,0,1.63-.17,3.36-2.27,3.43-2.32.09-2.5-1.74-2.51-3.47,0-3.31,0-6.62,0-9.93Z"/>
  </g>
</svg>
