<svg id="Layer_1" data-name="Layer 1" xmlns="http://www.w3.org/2000/svg" viewBox="0 0 100 100">
  <defs>
    <style>
      .cls-1 {
        fill: #fff;
      }
    </style>
  </defs>
  <g id="rSfqGI">
    <g id="hkVhRX">
      <g>
        <path class="cls-1" d="M35.09,73.53l10-10.61q8.63-9.21,17.27-18.41l.12-.13c.56-.63.6-1.21.13-1.64s-1.06-.35-1.63.26Q47.58,57.22,34.22,71.46c-.19.21-.4.39-.71.7a7.17,7.17,0,0,0-5.15-4.75c.36-.4.61-.7.88-1L53.51,40.56l2.16-2.29c.53-.57.58-1.15.12-1.6s-1.07-.39-1.63.2L39.75,52.23,27.28,65.52c-.08.09-.13.2-.26.38-.69-1.38-1.33-2.62-1.93-3.89-.07-.14.08-.45.22-.6q3.5-3.73,7-7.45L50,35.19C54.93,30,59.85,24.73,64.8,19.53a3.33,3.33,0,0,1,4.87-.09q4.56,4.3,9.13,8.58c1.81,1.7,1.85,3.57.15,5.38L53.58,60.32Q46.67,67.65,39.75,75a.6.6,0,0,1-.81.2C37.69,74.62,36.42,74.1,35.09,73.53ZM67.26,22.08,61,28.78l9.24,8.69,6.31-6.69Z"/>
        <path class="cls-1" d="M37.57,77.13c-2.92.83-5.84,1.67-8.77,2.48a.75.75,0,0,1-.57-.17q-3.35-3.12-6.65-6.26a.86.86,0,0,1-.24-.67c.62-2.94,1.27-5.87,1.91-8.8,0,0,.05-.05.12-.14.65,1.32,1.33,2.59,1.93,3.9A3,3,0,0,0,26.88,69a22.21,22.21,0,0,1,2.49,1.24,3.85,3.85,0,0,1,1.24,1.17A29.37,29.37,0,0,1,32.09,74a2.58,2.58,0,0,0,1.41,1.25c1.37.55,2.73,1.15,4.1,1.73Z"/>
        <path class="cls-1" d="M26.42,80.3c-1.5.43-2.88.87-4.29,1.21a1.82,1.82,0,0,1-2.29-2.13c.25-1.42.6-2.82.94-4.36Z"/>
      </g>
    </g>
  </g>
</svg>
