<?xml version="1.0" encoding="utf-8"?>
<!-- Generator: Adobe Illustrator 16.0.0, SVG Export Plug-In . SVG Version: 6.00 Build 0)  -->
<!DOCTYPE svg PUBLIC "-//W3C//DTD SVG 1.1//EN" "http://www.w3.org/Graphics/SVG/1.1/DTD/svg11.dtd">
<svg version="1.1" id="Layer_1" xmlns="http://www.w3.org/2000/svg" xmlns:xlink="http://www.w3.org/1999/xlink" x="0px" y="0px"
	 width="512px" height="512px" viewBox="0 0 512 512" enable-background="new 0 0 512 512" xml:space="preserve">
<path fill="#CCCCCC" d="M0,113.293h113.293V0H0V113.293z M30.004,30.004h53.289v53.289H30.004V30.004z"/>
<path fill="#CCCCCC" d="M149.297,0v113.293H512V0H149.297z M481.996,83.293H179.301V30.004h302.695V83.293z"/>
<path fill="#CCCCCC" d="M0,260.301h113.293V147.008H0V260.301z M30.004,177.008h53.289v53.289H30.004V177.008z"/>
<path fill="#CCCCCC" d="M149.297,260.301H512V147.008H149.297V260.301z M179.301,177.008h302.695v53.289H179.301V177.008z"/>
<path fill="#CCCCCC" d="M0,407.309h113.293V294.012H0V407.309z M30.004,324.016h53.289v53.289H30.004V324.016z"/>
<path fill="#CCCCCC" d="M149.297,407.309H512V294.012H149.297V407.309z M179.301,324.016h302.695v53.289H179.301V324.016z"/>
</svg>
