<?xml version="1.0" encoding="utf-8"?>
<!-- Generator: Adobe Illustrator 16.0.0, SVG Export Plug-In . SVG Version: 6.00 Build 0)  -->
<!DOCTYPE svg PUBLIC "-//W3C//DTD SVG 1.1//EN" "http://www.w3.org/Graphics/SVG/1.1/DTD/svg11.dtd">
<svg version="1.1" id="Capa_1" xmlns="http://www.w3.org/2000/svg" xmlns:xlink="http://www.w3.org/1999/xlink" x="0px" y="0px"
	 width="600px" height="600px" viewBox="0 0 600 600" enable-background="new 0 0 600 600" xml:space="preserve">
<g>
	<g>
		<path fill="#CCCCCC" d="M575,475h-66.575C497.601,438.975,464.5,412.5,425,412.5c-39.499,0-72.575,26.475-83.424,62.5H25
			c-13.8,0-25,11.2-25,25c0,13.801,11.2,25,25,25h316.575c10.825,36.024,43.926,62.5,83.425,62.5s72.575-26.476,83.425-62.5h66.575
			c13.825,0,25-11.199,25-25C599.999,486.2,588.825,475,575,475z M425,537.5c-20.675,0-37.5-16.824-37.5-37.5
			c0-20.675,16.825-37.5,37.5-37.5c20.676,0,37.5,16.825,37.5,37.5C462.5,520.676,445.675,537.5,425,537.5z"/>
	</g>
</g>
<g>
	<g>
		<path fill="#CCCCCC" d="M575,75h-66.575C497.574,38.976,464.5,12.5,425,12.5c-39.499,0-72.575,26.475-83.426,62.5H25
			C11.2,75,0,86.2,0,100c0,13.8,11.2,25,25,25h316.575C352.425,161.025,385.5,187.5,425,187.5c39.501,0,72.576-26.475,83.425-62.5
			H575c13.825,0,25-11.2,25-25C600,86.201,588.825,75,575,75z M425,137.5c-20.675,0-37.5-16.825-37.5-37.5s16.825-37.5,37.5-37.5
			c20.676,0,37.5,16.825,37.5,37.5S445.675,137.5,425,137.5z"/>
	</g>
</g>
<g>
	<g>
		<path fill="#CCCCCC" d="M575,275H258.425c-10.85-36.025-43.925-62.5-83.424-62.5c-39.5,0-72.576,26.475-83.425,62.5H25
			c-13.8,0-25,11.2-25,25s11.2,25,25,25h66.576c10.85,36.024,43.925,62.499,83.424,62.499c39.5,0,72.576-26.475,83.425-62.499
			h316.575c13.825,0,25-11.2,25-25C600,286.2,588.825,275,575,275z M175,337.5c-20.675,0-37.5-16.824-37.5-37.5
			c0-20.675,16.825-37.5,37.5-37.5s37.5,16.825,37.5,37.5C212.5,320.676,195.675,337.5,175,337.5z"/>
	</g>
</g>
</svg>
