<?xml version="1.0" encoding="utf-8"?>
<!-- Generator: Adobe Illustrator 26.0.3, SVG Export Plug-In . SVG Version: 6.00 Build 0)  -->
<svg version="1.1" id="Capa_1" xmlns="http://www.w3.org/2000/svg" xmlns:xlink="http://www.w3.org/1999/xlink" x="0px" y="0px"
	 viewBox="0 0 208.54 83.48" style="enable-background:new 0 0 208.54 83.48;" xml:space="preserve">
<style type="text/css">
	.st0{fill:#67696B;}
</style>
<g>
	<path class="st0" d="M38.64,59.93l1.19,3.31L39.1,63.5c-0.35-0.88-0.76-1.5-1.24-1.86c-0.48-0.36-1.09-0.54-1.84-0.54
		c-0.31,0-0.5,0.01-0.56,0.04c-0.06,0.03-0.1,0.07-0.12,0.13c-0.03,0.06-0.04,0.25-0.04,0.56v7.81c0,0.37,0.02,0.62,0.06,0.75
		c0.04,0.13,0.1,0.23,0.17,0.3c0.08,0.07,0.18,0.12,0.31,0.15c0.13,0.03,0.43,0.04,0.88,0.05v0.68h-4.34v-0.68
		c0.48-0.01,0.77-0.02,0.88-0.05c0.19-0.05,0.32-0.15,0.4-0.31c0.08-0.15,0.12-0.43,0.12-0.84v-7.97c0-0.25-0.01-0.39-0.04-0.45
		c-0.03-0.06-0.07-0.1-0.14-0.13c-0.07-0.03-0.2-0.05-0.42-0.05c-0.59,0-1.06,0.08-1.41,0.23c-0.35,0.15-0.68,0.41-0.99,0.77
		c-0.31,0.36-0.58,0.83-0.8,1.4l-0.73-0.26l1.16-3.31H31l0.08,0.38h6.91l0.06-0.38H38.64z M52.55,69.33
		c-0.4,0.47-0.87,0.82-1.4,1.04c-0.53,0.22-1.27,0.34-2.21,0.34h-1.69c-0.36,0-0.58-0.02-0.67-0.06c-0.08-0.04-0.14-0.09-0.17-0.18
		c-0.04-0.09-0.05-0.32-0.05-0.7v-3.66h1.36c0.42,0,0.72,0.03,0.9,0.08c0.17,0.05,0.34,0.16,0.49,0.3c0.15,0.15,0.26,0.31,0.31,0.48
		c0.05,0.17,0.09,0.44,0.09,0.82v0.42h0.79v-4.94H49.5v0.18c0,0.47-0.04,0.8-0.11,0.99c-0.1,0.26-0.27,0.46-0.53,0.63
		c-0.26,0.17-0.64,0.25-1.14,0.25h-1.36v-4.12h2.73c0.78,0,1.32,0.03,1.62,0.09c0.3,0.07,0.59,0.2,0.89,0.39
		c0.3,0.19,0.55,0.43,0.76,0.7c0.21,0.28,0.4,0.66,0.58,1.15l0.71-0.27l-1.06-2.96h-9.15v0.68c0.55,0,0.87,0.02,0.96,0.06
		c0.17,0.07,0.29,0.16,0.36,0.28c0.07,0.12,0.11,0.35,0.11,0.71v7.76c0,0.36-0.03,0.59-0.08,0.7c-0.08,0.16-0.19,0.27-0.32,0.34
		c-0.09,0.05-0.33,0.07-0.7,0.07h-0.32v0.68h9.5l1.26-3.53l-0.74-0.26C53.18,68.45,52.87,68.96,52.55,69.33z M69.2,70.89h0.2v0.68
		h-2.56l-4.14-5.38h-1.45v3.47c0,0.39,0.01,0.63,0.04,0.73c0.06,0.18,0.15,0.31,0.29,0.38c0.13,0.08,0.39,0.11,0.77,0.11h0.29v0.68
		h-4.31v-0.68h0.39c0.29,0,0.49-0.02,0.59-0.06c0.1-0.04,0.19-0.1,0.27-0.2c0.08-0.1,0.13-0.21,0.16-0.36
		c0.01-0.06,0.02-0.33,0.02-0.82v-7.37c0-0.33-0.03-0.56-0.1-0.71c-0.06-0.14-0.15-0.24-0.27-0.31c-0.12-0.06-0.32-0.09-0.6-0.09
		h-0.46v-0.68h5.81c1.1,0,1.94,0.11,2.5,0.34c0.57,0.23,1,0.56,1.3,0.99c0.3,0.43,0.46,0.93,0.46,1.5c0,0.59-0.15,1.11-0.45,1.56
		c-0.3,0.45-0.72,0.81-1.28,1.08c-0.56,0.26-1.3,0.4-2.22,0.41l2.98,3.64c0.24,0.3,0.4,0.48,0.48,0.55
		c0.19,0.16,0.39,0.29,0.59,0.38C68.71,70.85,68.94,70.89,69.2,70.89z M63.57,65.43c0.78,0,1.34-0.05,1.66-0.15
		c0.45-0.13,0.81-0.36,1.07-0.71c0.26-0.34,0.39-0.78,0.39-1.32c0-0.45-0.1-0.83-0.28-1.14c-0.19-0.31-0.45-0.54-0.77-0.7
		c-0.33-0.15-0.81-0.23-1.46-0.23h-2.93v4.24H63.57z M84.08,70.89h0.2v0.68h-2.56l-4.14-5.38h-1.45v3.47c0,0.39,0.01,0.63,0.04,0.73
		c0.06,0.18,0.16,0.31,0.29,0.38c0.13,0.08,0.39,0.11,0.77,0.11h0.29v0.68h-4.31v-0.68h0.39c0.29,0,0.48-0.02,0.59-0.06
		c0.1-0.04,0.19-0.1,0.27-0.2c0.08-0.1,0.13-0.21,0.17-0.36c0.01-0.06,0.02-0.33,0.02-0.82v-7.37c0-0.33-0.03-0.56-0.1-0.71
		c-0.06-0.14-0.15-0.24-0.27-0.31c-0.12-0.06-0.32-0.09-0.6-0.09h-0.46v-0.68h5.81c1.1,0,1.94,0.11,2.5,0.34
		c0.56,0.23,1,0.56,1.3,0.99c0.3,0.43,0.46,0.93,0.46,1.5c0,0.59-0.15,1.11-0.44,1.56c-0.3,0.45-0.73,0.81-1.28,1.08
		c-0.56,0.26-1.3,0.4-2.22,0.41l2.98,3.64c0.24,0.3,0.4,0.48,0.48,0.55c0.19,0.16,0.38,0.29,0.59,0.38
		C83.59,70.85,83.82,70.89,84.08,70.89z M78.45,65.43c0.79,0,1.34-0.05,1.66-0.15c0.45-0.13,0.81-0.36,1.07-0.71
		c0.26-0.34,0.39-0.78,0.39-1.32c0-0.45-0.09-0.83-0.28-1.14c-0.19-0.31-0.45-0.54-0.77-0.7c-0.33-0.15-0.81-0.23-1.46-0.23h-2.93
		v4.24H78.45z M98.31,70.89h0.18v0.68h-4.01v-0.68c0.13-0.01,0.26-0.02,0.38-0.02c0.26,0,0.43-0.03,0.51-0.08
		c0.15-0.1,0.23-0.23,0.23-0.39c0-0.11-0.08-0.39-0.22-0.83l-0.75-2.18h-4.08l-0.88,2.44c-0.09,0.26-0.14,0.43-0.14,0.52
		c0,0.11,0.03,0.2,0.08,0.29c0.06,0.08,0.14,0.14,0.23,0.18c0.1,0.04,0.25,0.06,0.47,0.06c0.15,0,0.27,0,0.36,0.01v0.68h-3.37v-0.68
		c0.31,0,0.53-0.03,0.67-0.1c0.14-0.06,0.26-0.16,0.36-0.29c0.1-0.14,0.24-0.43,0.4-0.87l3.51-9.32h1.32l3.51,9.42
		c0.17,0.47,0.34,0.78,0.52,0.94C97.78,70.81,98.02,70.89,98.31,70.89z M94.32,66.61l-1.73-4.85l-1.75,4.85H94.32z M102.39,60.31
		v0.68h0.38c0.3,0,0.51,0.03,0.63,0.09c0.12,0.06,0.21,0.16,0.27,0.3c0.06,0.14,0.09,0.38,0.09,0.72v7.65
		c0,0.36-0.03,0.61-0.09,0.75c-0.06,0.14-0.16,0.24-0.29,0.3c-0.13,0.07-0.37,0.1-0.72,0.1h-0.27v0.68h4.28v-0.68h-0.3
		c-0.34,0-0.57-0.03-0.71-0.1c-0.13-0.07-0.23-0.16-0.3-0.29c-0.07-0.13-0.1-0.36-0.1-0.68v-3.51h1.23c0.57,0,0.97,0.05,1.19,0.16
		c0.22,0.11,0.4,0.28,0.53,0.51c0.13,0.23,0.19,0.57,0.19,0.99v0.44h0.79v-4.94h-0.79v0.3c0,0.45-0.07,0.8-0.2,1.05
		c-0.14,0.25-0.33,0.42-0.58,0.54c-0.26,0.12-0.67,0.17-1.25,0.17h-1.11v-4.32h2.43c0.81,0,1.4,0.07,1.78,0.19
		c0.38,0.13,0.71,0.34,0.99,0.64c0.28,0.3,0.58,0.8,0.87,1.49l0.7-0.27L111,60.31H102.39z M126.7,62.93
		c0.48,0.85,0.72,1.83,0.72,2.96c0,1.73-0.54,3.14-1.61,4.23c-1.08,1.09-2.45,1.64-4.12,1.64c-1.86,0-3.34-0.66-4.43-1.97
		c-0.89-1.07-1.33-2.35-1.33-3.84c0-1.11,0.25-2.1,0.75-2.98c0.5-0.88,1.21-1.58,2.13-2.09c0.92-0.51,1.93-0.77,3.03-0.77
		c1.03,0,1.96,0.25,2.78,0.74C125.52,61.39,126.21,62.09,126.7,62.93z M125.68,65.88c0-1.02-0.19-1.94-0.56-2.78
		c-0.33-0.72-0.75-1.26-1.29-1.6c-0.53-0.34-1.2-0.52-1.99-0.52c-0.84,0-1.56,0.19-2.16,0.58c-0.61,0.39-1.09,0.96-1.45,1.7
		c-0.37,0.75-0.55,1.67-0.55,2.77c0,1.04,0.18,1.94,0.54,2.67c0.36,0.73,0.84,1.29,1.44,1.67c0.6,0.39,1.28,0.58,2.04,0.58
		c0.75,0,1.41-0.19,1.99-0.57c0.58-0.38,1.06-0.97,1.43-1.79C125.49,67.78,125.68,66.87,125.68,65.88z M142.94,70.89h0.2v0.68h-2.57
		l-4.14-5.38h-1.45v3.47c0,0.39,0.01,0.63,0.04,0.73c0.06,0.18,0.15,0.31,0.29,0.38c0.13,0.08,0.39,0.11,0.77,0.11h0.29v0.68h-4.31
		v-0.68h0.39c0.29,0,0.49-0.02,0.59-0.06c0.1-0.04,0.19-0.1,0.27-0.2c0.08-0.1,0.13-0.21,0.16-0.36c0.01-0.06,0.02-0.33,0.03-0.82
		v-7.37c0-0.33-0.03-0.56-0.1-0.71c-0.06-0.14-0.15-0.24-0.27-0.31c-0.11-0.06-0.31-0.09-0.6-0.09h-0.46v-0.68h5.81
		c1.1,0,1.93,0.11,2.5,0.34c0.56,0.23,1,0.56,1.3,0.99c0.3,0.43,0.46,0.93,0.46,1.5c0,0.59-0.15,1.11-0.45,1.56
		c-0.3,0.45-0.72,0.81-1.28,1.08c-0.56,0.26-1.3,0.4-2.22,0.41l2.98,3.64c0.24,0.3,0.4,0.48,0.48,0.55
		c0.19,0.16,0.39,0.29,0.59,0.38C142.45,70.85,142.68,70.89,142.94,70.89z M137.31,65.43c0.79,0,1.34-0.05,1.66-0.15
		c0.45-0.13,0.81-0.36,1.07-0.71c0.26-0.34,0.39-0.78,0.39-1.32c0-0.45-0.09-0.83-0.28-1.14c-0.19-0.31-0.44-0.54-0.77-0.7
		c-0.33-0.15-0.81-0.23-1.46-0.23h-2.93v4.24H137.31z M153.81,69.23l-3.33-8.92h-3.55v0.68h0.38c0.35,0,0.59,0.03,0.73,0.1
		c0.14,0.06,0.23,0.16,0.29,0.29c0.06,0.13,0.09,0.41,0.09,0.82v7.35c0,0.44-0.04,0.73-0.11,0.87c-0.07,0.15-0.19,0.26-0.35,0.34
		c-0.16,0.08-0.44,0.12-0.82,0.12h-0.23v0.68h3.96v-0.68h-0.26c-0.38,0-0.65-0.04-0.79-0.12c-0.15-0.08-0.26-0.19-0.33-0.33
		c-0.07-0.14-0.11-0.41-0.11-0.82v-7.98l3.7,9.93h0.81l3.68-10.08v8.29c0,0.13-0.01,0.3-0.04,0.52c-0.01,0.11-0.06,0.22-0.15,0.31
		c-0.08,0.1-0.19,0.17-0.31,0.22c-0.13,0.04-0.33,0.06-0.6,0.06h-0.31v0.68h4.3v-0.68h-0.29c-0.36,0-0.6-0.04-0.73-0.11
		c-0.13-0.07-0.23-0.18-0.28-0.32c-0.06-0.14-0.09-0.45-0.09-0.91v-7.43c0-0.34,0.04-0.59,0.11-0.74c0.07-0.15,0.17-0.25,0.29-0.31
		c0.12-0.06,0.36-0.09,0.71-0.09h0.29v-0.68h-3.43L153.81,69.23z M175.53,70.89v0.68h-4.01v-0.68c0.13-0.01,0.26-0.02,0.38-0.02
		c0.26,0,0.43-0.03,0.51-0.08c0.16-0.1,0.24-0.23,0.24-0.39c0-0.11-0.08-0.39-0.23-0.83l-0.74-2.18h-4.08l-0.88,2.44
		c-0.09,0.26-0.14,0.43-0.14,0.52c0,0.11,0.03,0.2,0.08,0.29c0.06,0.08,0.13,0.14,0.23,0.18c0.1,0.04,0.26,0.06,0.47,0.06
		c0.14,0,0.26,0,0.35,0.01v0.68h-3.36v-0.68c0.31,0,0.54-0.03,0.67-0.1c0.14-0.06,0.26-0.16,0.36-0.29c0.1-0.14,0.24-0.43,0.4-0.87
		l3.51-9.32h1.32l3.5,9.42c0.17,0.47,0.35,0.78,0.52,0.94c0.17,0.15,0.41,0.23,0.71,0.23H175.53z M171.35,66.61l-1.73-4.85
		l-1.75,4.85H171.35z M110.22,18.27c0-0.33-0.11-0.49-0.32-0.49s-0.35,0.25-0.39,0.74c-0.13,1.75-0.4,2.81-1.05,3.18
		c-0.41,0.24-1.39,0.4-2.53,0.48v0.75c1.14,0.03,2,0.19,2.45,0.48c0.5,0.33,0.82,1.14,0.99,2.46c0.11,0.86,0.17,1.36,0.22,1.48
		c0.04,0.13,0.15,0.2,0.32,0.2c0.21,0,0.32-0.13,0.32-0.39c0-0.17-0.01-0.31-0.03-0.39c-0.07-0.95-0.1-2.24-0.1-3.88
		c0-1.27,0.03-2.65,0.1-4.13C110.21,18.62,110.22,18.46,110.22,18.27z M113.81,14.16c-0.11-1.33-0.17-2.16-0.2-2.44
		c-0.82,0.13-3.05,0.17-6.69,0.17c-1.05,0-2.34,0-3.85,0c-0.44,0-0.89,0-1.37,0c-2.12,0-3.16,0-3.12,0h-0.52c-0.07,0-0.14,0-0.21,0
		c-3.64,0-5.87-0.04-6.69-0.17c-0.02,0.28-0.09,1.1-0.19,2.44c-0.06,0.9-0.15,1.72-0.26,2.43c-0.04,0.3-0.06,0.56-0.06,0.78
		c0,0.3,0.11,0.45,0.32,0.45c0.22,0,0.37-0.27,0.46-0.81c0.26-1.57,0.79-2.72,1.58-3.44c0.52-0.46,1.32-0.75,2.39-0.85
		c0.39-0.05,1.25-0.07,2.59-0.07c0.46,0,0.97,0,1.51,0.02c0.08,0.02,0.24,0.04,0.29,0.06c0.21,0.1,0.43,0.34,0.43,0.73v18.6
		c0,0.85-0.15,1.35-0.28,1.51c-0.13,0.16-0.61,0.26-1.35,0.31c-0.74,0.05-1.14,0.2-1.14,0.37c0,0.17,0.18,0.31,0.59,0.31h4.82
		c0.17,0,0.51,0,1,0c0.52,0,0.93,0,1.23,0h0.32c0.43,0,0.65-0.15,0.65-0.34c0-0.17-0.17-0.29-0.51-0.29
		c-0.81,0.02-1.32-0.02-1.56-0.11c-0.49-0.17-0.72-0.58-0.72-1.2v-6.33v-0.31v-2.99v-0.74v-4.28v-5.22c1.34-0.07,2.55-0.1,3.54-0.1
		c1.34,0,2.19,0.02,2.58,0.07c1.08,0.11,1.87,0.39,2.39,0.85c0.8,0.72,1.33,1.86,1.58,3.44c0.09,0.54,0.24,0.82,0.45,0.82
		c0.21,0,0.32-0.15,0.32-0.45c0-0.21-0.02-0.48-0.06-0.78C113.96,15.87,113.87,15.07,113.81,14.16z"/>
	<g>
		<path class="st0" d="M177.4,56.72c0.33,0,0.64,0.08,0.93,0.23c0.3,0.16,0.53,0.38,0.69,0.66c0.17,0.29,0.25,0.59,0.25,0.91
			c0,0.33-0.08,0.63-0.25,0.91c-0.17,0.28-0.4,0.5-0.68,0.65c-0.3,0.16-0.61,0.24-0.93,0.24c-0.33,0-0.64-0.08-0.93-0.24
			c-0.3-0.16-0.53-0.39-0.69-0.67c-0.16-0.28-0.24-0.58-0.24-0.89c0-0.33,0.09-0.63,0.26-0.92c0.17-0.29,0.4-0.5,0.69-0.65
			C176.78,56.8,177.08,56.72,177.4,56.72z M177.4,57.01c-0.28,0-0.54,0.07-0.78,0.2c-0.25,0.14-0.44,0.32-0.57,0.55
			c-0.14,0.24-0.21,0.49-0.21,0.75c0,0.27,0.07,0.52,0.21,0.76c0.14,0.23,0.33,0.42,0.57,0.54c0.25,0.13,0.51,0.2,0.78,0.2
			c0.28,0,0.54-0.07,0.78-0.2c0.25-0.13,0.44-0.32,0.57-0.56c0.14-0.24,0.2-0.48,0.2-0.74c0-0.27-0.07-0.53-0.22-0.77
			c-0.14-0.24-0.34-0.42-0.58-0.55C177.91,57.08,177.66,57.01,177.4,57.01z M176.58,59.51v-1.94h0.69c0.4,0,0.65,0.08,0.77,0.24
			c0.06,0.09,0.09,0.18,0.09,0.29c0,0.16-0.06,0.29-0.17,0.39c-0.11,0.09-0.24,0.15-0.4,0.16c0.07,0.03,0.13,0.06,0.17,0.1
			c0.08,0.08,0.18,0.2,0.3,0.38l0.24,0.38h-0.4l-0.18-0.3c-0.14-0.24-0.25-0.39-0.34-0.45c-0.06-0.05-0.15-0.07-0.26-0.07h-0.19
			v0.82H176.58z M176.9,58.42h0.39c0.32,0,0.49-0.1,0.49-0.3c0-0.12-0.06-0.2-0.19-0.25c-0.06-0.02-0.17-0.04-0.32-0.04h-0.37V58.42
			z"/>
	</g>
</g>
</svg>
